<svg width="68" height="67" viewBox="0 0 68 67" fill="none" xmlns="http://www.w3.org/2000/svg">
<path fill-rule="evenodd" clip-rule="evenodd" d="M26.0082 15.2973C26.6949 14.8089 28.7536 13.8323 30.8131 15.7856C31.9736 16.9787 32.0265 18.2806 31.8686 19.1486C31.7628 20.3961 31.1296 21.0474 30.8131 21.3727L19.4631 33.1439C18.1955 34.4458 17.9318 36.7779 19.5153 38.6224C21.3104 40.304 23.58 39.9243 24.952 38.6224L27.5917 35.8557C28.2393 35.2928 28.9349 35.1646 29.4983 35.0609L29.5005 35.0605L29.5983 35.0421C30.6545 34.9335 31.7628 35.1508 32.7661 36.1817C33.505 36.941 33.7687 37.9176 33.8744 38.7311C33.9802 39.8157 33.505 40.9009 32.7661 41.7146L18.6713 56.1975C17.4566 57.3908 16.5055 59.8322 18.4598 61.9478C20.3071 63.6836 22.5245 63.3039 23.8965 61.9478L28.6479 57.0111C29.2817 56.3605 30.0213 55.8179 30.9182 55.7093C32.1329 55.4926 33.2935 55.6549 34.3497 56.7402C35.1414 57.6081 35.458 58.6389 35.458 59.6149C35.458 60.5914 35.0886 61.5138 34.3497 62.436L29.9153 67H7.99975C3.58147 67 -0.00025177 63.4183 -0.00025177 59V41.8612L25.5865 15.6226C25.6883 15.5173 25.8402 15.4127 25.9928 15.3076L25.9989 15.3034L26.0082 15.2973ZM58.6306 48.8465C57.1528 50.4201 57.1528 52.9151 58.6306 54.4343C60.1091 56.0072 62.5373 56.0072 64.0686 54.4343L66.8656 51.5589C68.3441 49.9861 68.3441 47.491 66.8656 45.9718C65.3356 44.4532 62.9067 44.4532 61.4289 45.9718L58.6306 48.8465ZM36.8837 48.4407C35.4066 50.0143 35.4066 52.5093 36.8837 54.0278C38.3622 55.6015 40.8955 55.7095 42.3747 54.1909L52.6163 43.6672C54.1469 42.1486 53.9883 39.4905 52.5098 37.9713C50.9798 36.4528 48.5503 36.4528 47.0731 37.9713L36.8837 48.4407ZM35.3001 33.4151C33.823 31.8965 33.823 29.4007 35.3001 27.8279L43.2715 19.637C44.75 18.1178 47.3368 17.9555 48.8681 19.4739C50.3453 20.9931 50.188 23.7049 48.7095 25.2241L40.7382 33.4151C39.2068 34.9336 36.8315 34.9336 35.3001 33.4151ZM51.4539 16.762C49.9768 15.2428 49.9768 12.7477 51.4539 11.1742L61.2203 1.13941C62.6988 -0.379807 65.127 -0.379807 66.6583 1.13941C68.1368 2.65796 68.1368 5.15309 66.6583 6.72655L56.892 16.8156C55.4135 18.3348 52.9852 18.3348 51.4539 16.762ZM33.4531 7.54002C31.9753 9.1129 31.9753 11.6079 33.4531 13.1272C34.9838 14.7 37.412 14.7 38.8905 13.1815L45.0668 6.83516C46.5453 5.26153 46.5453 2.7664 45.0668 1.24718C43.5354 -0.271194 41.1072 -0.271194 39.63 1.24718L33.4531 7.54002ZM55.0966 29.7264C53.6187 31.2993 53.6187 33.7944 55.0966 35.3136C56.575 36.8865 59.1619 36.9951 60.6397 35.4759L66.9217 29.0208C68.453 27.5023 68.2944 24.8442 66.8166 23.325C65.2853 21.8065 62.8577 21.8065 61.3786 23.325L55.0966 29.7264ZM14.6049 9.68231C13.1277 8.16385 13.1277 5.66805 14.6049 4.09517L17.4032 1.22048C18.881 -0.298729 21.3099 -0.298729 22.8406 1.22048C24.3191 2.73903 24.3191 5.23417 22.8406 6.80762L20.043 9.68231C18.5645 11.2553 16.1362 11.2553 14.6049 9.68231Z" fill="#EDF1F8"/>
</svg>
