<svg width="142" height="129" viewBox="0 0 142 129" fill="none" xmlns="http://www.w3.org/2000/svg">
<path fill-rule="evenodd" clip-rule="evenodd" d="M62.2505 29.2585C63.5547 28.3318 67.4646 26.4788 71.3758 30.185C73.58 32.449 73.6804 34.9192 73.3804 36.5661C73.1796 38.9332 71.977 40.169 71.3758 40.7863L49.8202 63.1214C47.4127 65.5917 46.9119 70.0166 49.9194 73.5165C53.3285 76.7071 57.6389 75.9868 60.2447 73.5165L65.2579 68.2669C66.4877 67.1987 67.8089 66.9556 68.8788 66.7587L68.883 66.7579L69.0688 66.7231C71.0746 66.5169 73.1796 66.9293 75.085 68.8854C76.4883 70.326 76.9891 72.1791 77.1899 73.7227C77.3907 75.7806 76.4883 77.8398 75.085 79.3837L48.3165 106.864C46.0094 109.128 44.2032 113.761 47.9148 117.775C51.4231 121.068 55.6343 120.348 58.2401 117.775L67.2638 108.408C68.4675 107.173 69.8721 106.144 71.5754 105.938C73.8825 105.527 76.0866 105.835 78.0924 107.894C79.5962 109.541 80.1974 111.497 80.1974 113.348C80.1974 115.201 79.4957 116.951 78.0924 118.701L68.823 128.233H8.12598C3.70769 128.233 0.125961 124.651 0.125961 120.233V92.6759C6.40648 86.2553 11.0181 81.5445 11.0181 81.5445L61.4497 29.8758C61.6429 29.6761 61.9314 29.4776 62.2212 29.2782L62.2213 29.2782L62.2329 29.2701L62.2505 29.2585ZM124.206 92.9159C121.4 95.9018 121.4 100.636 124.206 103.519C127.014 106.503 131.626 106.503 134.534 103.519L139.846 98.0626C142.654 95.0784 142.654 90.344 139.846 87.4614C136.94 84.58 132.327 84.58 129.521 87.4614L124.206 92.9159ZM82.905 92.146C80.0997 95.1319 80.0997 99.8659 82.905 102.747C85.7129 105.733 90.5242 105.938 93.3334 103.057L112.784 83.0885C115.691 80.2072 115.39 75.1636 112.582 72.281C109.676 69.3998 105.062 69.3998 102.257 72.281L82.905 92.146ZM79.8975 63.6359C77.0922 60.7545 77.0922 56.0189 79.8975 53.0346L95.0366 37.4929C97.8445 34.6103 102.757 34.3023 105.666 37.1834C108.471 40.0661 108.172 45.2115 105.364 48.0941L90.2254 63.6359C87.317 66.5172 82.8059 66.5172 79.8975 63.6359ZM110.576 32.0377C107.771 29.1551 107.771 24.4208 110.576 21.4352L129.125 2.39487C131.933 -0.487747 136.544 -0.487747 139.452 2.39487C142.26 5.27621 142.26 10.0106 139.452 12.9961L120.904 32.1394C118.096 35.022 113.485 35.022 110.576 32.0377ZM76.3896 14.5396C73.583 17.524 73.583 22.2582 76.3896 25.1409C79.2967 28.1253 83.9084 28.1253 86.7163 25.2439L98.4462 13.2022C101.254 10.2163 101.254 5.48197 98.4462 2.59937C95.5379 -0.281662 90.9262 -0.281662 88.1208 2.59937L76.3896 14.5396ZM117.495 56.6369C114.688 59.6213 114.688 64.3557 117.495 67.2383C120.302 70.2227 125.215 70.4287 128.022 67.5461L139.953 55.298C142.861 52.4168 142.56 47.3732 139.753 44.4906C136.845 41.6093 132.234 41.6093 129.425 44.4906L117.495 56.6369ZM40.5935 18.6045C37.7882 15.7233 37.7882 10.9877 40.5935 8.00323L45.9081 2.54869C48.7147 -0.333908 53.3276 -0.333908 56.2346 2.54869C59.0425 5.43004 59.0425 10.1644 56.2346 13.1499L50.9214 18.6045C48.1135 21.5891 43.5019 21.5891 40.5935 18.6045Z" fill="#223366"/>
</svg>
