<svg width="317" height="286" viewBox="0 0 317 286" fill="none" xmlns="http://www.w3.org/2000/svg">
<path fill-rule="evenodd" clip-rule="evenodd" d="M138.81 64.8541C141.724 62.7836 150.46 58.6432 159.199 66.9242C164.124 71.9827 164.348 77.5022 163.678 81.1819C163.229 86.4711 160.542 89.2322 159.199 90.6114L111.036 140.517C105.657 146.036 104.538 155.923 111.257 163.743C118.875 170.872 128.506 169.263 134.328 163.743L145.529 152.013C148.277 149.627 151.229 149.083 153.62 148.643L153.629 148.642L154.044 148.564C158.526 148.103 163.229 149.025 167.487 153.395C170.622 156.614 171.741 160.755 172.19 164.204C172.639 168.802 170.622 173.403 167.487 176.853L107.676 238.254C102.521 243.313 98.4852 253.663 106.778 262.633C114.617 269.992 124.027 268.382 129.849 262.633L150.011 241.703C152.701 238.945 155.839 236.645 159.645 236.184C164.8 235.265 169.725 235.954 174.207 240.555C177.566 244.234 178.91 248.605 178.91 252.742C178.91 256.882 177.342 260.793 174.207 264.702L153.495 286H20.0001C8.95441 286 0.00012207 277.046 0.00012207 266V206.552C14.0332 192.206 24.3373 181.681 24.3373 181.681L137.02 66.2332C137.452 65.787 138.097 65.3436 138.744 64.8981L138.745 64.8979L138.77 64.8801L138.81 64.8541ZM277.242 207.089C270.971 213.76 270.971 224.338 277.242 230.779C283.516 237.447 293.82 237.447 300.318 230.779L312.187 218.588C318.461 211.92 318.461 201.342 312.187 194.901C305.695 188.463 295.388 188.463 289.117 194.901L277.242 207.089ZM184.96 205.368C178.692 212.04 178.692 222.618 184.96 229.056C191.234 235.727 201.984 236.185 208.26 229.747L251.72 185.131C258.216 178.693 257.543 167.423 251.269 160.982C244.776 154.545 234.467 154.545 228.198 160.982L184.96 205.368ZM178.24 141.666C171.972 135.228 171.972 124.647 178.24 117.979L212.066 83.2527C218.34 76.8119 229.317 76.1237 235.815 82.5614C242.084 89.0022 241.416 100.499 235.142 106.94L201.316 141.666C194.818 148.104 184.738 148.104 178.24 141.666ZM246.788 71.0639C240.52 64.6231 240.52 54.0448 246.788 47.374L288.232 4.83063C294.505 -1.6102 304.809 -1.6102 311.308 4.83063C317.581 11.2686 317.581 21.847 311.308 28.5178L269.864 71.2911C263.59 77.7319 253.286 77.7319 246.788 71.0639ZM170.402 31.9665C164.131 38.6349 164.131 49.2129 170.402 55.6537C176.897 62.322 187.202 62.322 193.476 55.884L219.684 28.9782C225.958 22.3067 225.958 11.7284 219.684 5.28754C213.186 -1.14975 202.882 -1.14975 196.614 5.28754L170.402 31.9665ZM262.246 126.028C255.974 132.696 255.974 143.274 262.246 149.715C268.52 156.383 279.497 156.844 285.768 150.403L312.425 123.036C318.924 116.598 318.25 105.329 311.979 98.8883C305.481 92.4503 295.18 92.4503 288.903 98.8883L262.246 126.028ZM90.42 41.049C84.1517 34.6113 84.1517 24.0302 90.42 17.3618L102.295 5.17432C108.566 -1.26651 118.873 -1.26651 125.368 5.17432C131.642 11.6123 131.642 22.1907 125.368 28.8615L113.496 41.049C107.222 47.7177 96.9183 47.7177 90.42 41.049Z" fill="#223366"/>
</svg>
