<svg width="16" height="14" viewBox="0 0 16 14" fill="none" xmlns="http://www.w3.org/2000/svg">
<path d="M8.86138 0.861725C8.79939 0.923638 8.75022 0.997163 8.71667 1.07809C8.68313 1.15902 8.66586 1.24577 8.66586 1.33338C8.66586 1.42098 8.68313 1.50773 8.71667 1.58866C8.75022 1.66959 8.79939 1.74311 8.86138 1.80503L13.7237 6.66654L0.666645 6.66654C0.489841 6.66654 0.320276 6.73677 0.195256 6.86179C0.0702362 6.98681 9.53674e-07 7.15638 9.53674e-07 7.33318C9.53674e-07 7.50999 0.0702362 7.67955 0.195256 7.80457C0.320276 7.92959 0.489841 7.99983 0.666645 7.99983L13.7237 7.99983L8.86138 12.8613C8.73629 12.9864 8.66601 13.1561 8.66601 13.333C8.66601 13.5099 8.73629 13.6795 8.86138 13.8046C8.98647 13.9297 9.15612 14 9.33303 14C9.50993 14 9.67959 13.9297 9.80468 13.8046L15.8045 7.80483C15.8665 7.74292 15.9156 7.6694 15.9492 7.58847C15.9827 7.50754 16 7.42079 16 7.33318C16 7.24557 15.9827 7.15882 15.9492 7.0779C15.9156 6.99697 15.8665 6.92344 15.8045 6.86153L9.80468 0.861725C9.74277 0.799743 9.66924 0.750571 9.58831 0.717023C9.50738 0.683475 9.42063 0.666207 9.33303 0.666207C9.24542 0.666207 9.15867 0.683475 9.07774 0.717023C8.99681 0.750571 8.92329 0.799743 8.86138 0.861725Z" fill="#EE3956"/>
</svg>
