<svg width="12" height="13" viewBox="0 0 12 13" fill="none" xmlns="http://www.w3.org/2000/svg">
<path fill-rule="evenodd" clip-rule="evenodd" d="M11.9996 11.5305C11.9994 11.7167 11.9255 11.8951 11.7938 12.0268C11.6622 12.1584 11.4838 12.2324 11.2976 12.2325L3.35119 12.2325C3.25692 12.2358 3.16295 12.2201 3.07489 12.1863C2.98682 12.1526 2.90646 12.1014 2.8386 12.0359C2.77073 11.9704 2.71676 11.8919 2.6799 11.805C2.64303 11.7182 2.62404 11.6249 2.62404 11.5305C2.62404 11.4362 2.64303 11.3429 2.6799 11.256C2.71676 11.1692 2.77073 11.0907 2.83859 11.0252C2.90646 10.9597 2.98682 10.9085 3.07489 10.8747C3.16295 10.841 3.25692 10.8253 3.35119 10.8286L9.60239 10.8286L0.20572 1.43194C0.0739999 1.30022 0 1.12156 0 0.935282C0 0.749002 0.0739999 0.570351 0.20572 0.438631C0.337441 0.30691 0.516091 0.23291 0.702372 0.23291C0.888653 0.23291 1.0673 0.30691 1.19903 0.438631L10.5957 9.8353V3.5841C10.5924 3.48983 10.6081 3.39586 10.6418 3.3078C10.6756 3.21973 10.7268 3.13937 10.7923 3.07151C10.8578 3.00364 10.9363 2.94967 11.0231 2.91281C11.1099 2.87594 11.2033 2.85695 11.2976 2.85695C11.392 2.85695 11.4853 2.87594 11.5721 2.91281C11.6589 2.94967 11.7375 3.00364 11.803 3.07151C11.8685 3.13937 11.9196 3.21973 11.9534 3.3078C11.9872 3.39586 12.0029 3.48983 11.9996 3.5841L11.9996 11.5305Z" fill="#182751"/>
</svg>
