<svg width="110" height="36" viewBox="0 0 110 36" fill="none" xmlns="http://www.w3.org/2000/svg">
<path fill-rule="evenodd" clip-rule="evenodd" d="M29.004 12.0522V23.7131C27.517 22.2261 26.6562 20.1131 26.6562 17.8435C26.5779 15.5739 27.517 13.5391 29.004 12.0522Z" fill="#1A2953"/>
<path d="M34.0907 16.8261H36.1255V22.2261H34.0907V16.8261Z" fill="#1A2953"/>
<path fill-rule="evenodd" clip-rule="evenodd" d="M40.7433 24.3391C39.1781 25.6696 37.2215 26.3739 35.1867 26.3739C33.0737 26.3739 31.1172 25.5913 29.6302 24.3391H40.7433Z" fill="#1A2953"/>
<path fill-rule="evenodd" clip-rule="evenodd" d="M41.2128 11.8174H39.5693V22.2261H38.0041V15.0261H36.1258V11.8174H34.2475V15.0261H32.3693V22.1478H30.7258V11.7391H29.1606C30.7258 10.1739 32.9171 9.31305 35.1084 9.31305C37.5345 9.39131 39.6475 10.3304 41.2128 11.8174Z" fill="#1A2953"/>
<path fill-rule="evenodd" clip-rule="evenodd" d="M43.7952 17.8435C43.7952 20.113 42.8561 22.2261 41.3691 23.713V11.9739C42.8561 13.5391 43.7952 15.5739 43.7952 17.8435Z" fill="#1A2953"/>
<path fill-rule="evenodd" clip-rule="evenodd" d="M94.1953 10.487C94.0388 10.3304 93.804 10.2522 93.4909 10.2522C92.8648 10.2522 92.317 10.6435 92.2388 11.1913L91.6909 13.8522C91.6909 13.8522 91.6127 14.2435 91.8475 14.5565C92.004 14.713 92.2388 14.7913 92.5518 14.7913C93.6475 14.7913 93.804 13.8522 93.804 13.8522L94.3518 11.1913C94.3518 11.1913 94.4301 10.7217 94.1953 10.487ZM94.1953 10.487C94.0388 10.3304 93.804 10.2522 93.4909 10.2522C92.8648 10.2522 92.317 10.6435 92.2388 11.1913L91.6909 13.8522C91.6909 13.8522 91.6127 14.2435 91.8475 14.5565C92.004 14.713 92.2388 14.7913 92.5518 14.7913C93.6475 14.7913 93.804 13.8522 93.804 13.8522L94.3518 11.1913C94.3518 11.1913 94.4301 10.7217 94.1953 10.487ZM94.1953 10.487C94.0388 10.3304 93.804 10.2522 93.4909 10.2522C92.8648 10.2522 92.317 10.6435 92.2388 11.1913L91.6909 13.8522C91.6909 13.8522 91.6127 14.2435 91.8475 14.5565C92.004 14.713 92.2388 14.7913 92.5518 14.7913C93.6475 14.7913 93.804 13.8522 93.804 13.8522L94.3518 11.1913C94.3518 11.1913 94.4301 10.7217 94.1953 10.487ZM94.1953 10.487C94.0388 10.3304 93.804 10.2522 93.4909 10.2522C92.8648 10.2522 92.317 10.6435 92.2388 11.1913L91.6909 13.8522C91.6909 13.8522 91.6127 14.2435 91.8475 14.5565C92.004 14.713 92.2388 14.7913 92.5518 14.7913C93.6475 14.7913 93.804 13.8522 93.804 13.8522L94.3518 11.1913C94.3518 11.1913 94.4301 10.7217 94.1953 10.487ZM82.8475 21.5217L81.4388 24.4174H83.004L82.8475 21.5217ZM94.1953 10.487C94.0388 10.3304 93.804 10.2522 93.4909 10.2522C92.8648 10.2522 92.317 10.6435 92.2388 11.1913L91.6909 13.8522C91.6909 13.8522 91.6127 14.2435 91.8475 14.5565C92.004 14.713 92.2388 14.7913 92.5518 14.7913C93.6475 14.7913 93.804 13.8522 93.804 13.8522L94.3518 11.1913C94.3518 11.1913 94.4301 10.7217 94.1953 10.487ZM94.1953 10.487C94.0388 10.3304 93.804 10.2522 93.4909 10.2522C92.8648 10.2522 92.317 10.6435 92.2388 11.1913L91.6909 13.8522C91.6909 13.8522 91.6127 14.2435 91.8475 14.5565C92.004 14.713 92.2388 14.7913 92.5518 14.7913C93.6475 14.7913 93.804 13.8522 93.804 13.8522L94.3518 11.1913C94.3518 11.1913 94.4301 10.7217 94.1953 10.487ZM82.8475 21.5217L81.4388 24.4174H83.004L82.8475 21.5217ZM82.8475 21.5217L81.4388 24.4174H83.004L82.8475 21.5217ZM94.1953 10.487C94.0388 10.3304 93.804 10.2522 93.4909 10.2522C92.8648 10.2522 92.317 10.6435 92.2388 11.1913L91.6909 13.8522C91.6909 13.8522 91.6127 14.2435 91.8475 14.5565C92.004 14.713 92.2388 14.7913 92.5518 14.7913C93.6475 14.7913 93.804 13.8522 93.804 13.8522L94.3518 11.1913C94.3518 11.1913 94.4301 10.7217 94.1953 10.487ZM94.1953 10.487C94.0388 10.3304 93.804 10.2522 93.4909 10.2522C92.8648 10.2522 92.317 10.6435 92.2388 11.1913L91.6909 13.8522C91.6909 13.8522 91.6127 14.2435 91.8475 14.5565C92.004 14.713 92.2388 14.7913 92.5518 14.7913C93.6475 14.7913 93.804 13.8522 93.804 13.8522L94.3518 11.1913C94.3518 11.1913 94.4301 10.7217 94.1953 10.487ZM82.8475 21.5217L81.4388 24.4174H83.004L82.8475 21.5217ZM61.0127 21.2087C60.7779 20.9739 60.3083 20.9739 60.3083 20.9739H59.2127L58.8214 22.8522H59.8388C59.917 22.8522 60.9344 22.8522 61.1692 21.913C61.1692 21.6 61.091 21.3652 61.0127 21.2087ZM65.8649 21.5217L64.4562 24.4174H66.0214L65.8649 21.5217ZM82.8475 21.5217L81.4388 24.4174H83.004L82.8475 21.5217ZM94.1953 10.487C94.0388 10.3304 93.804 10.2522 93.4909 10.2522C92.8648 10.2522 92.317 10.6435 92.2388 11.1913L91.6909 13.8522C91.6909 13.8522 91.6127 14.2435 91.8475 14.5565C92.004 14.713 92.2388 14.7913 92.5518 14.7913C93.6475 14.7913 93.804 13.8522 93.804 13.8522L94.3518 11.1913C94.3518 11.1913 94.4301 10.7217 94.1953 10.487ZM94.1953 10.487C94.0388 10.3304 93.804 10.2522 93.4909 10.2522C92.8648 10.2522 92.317 10.6435 92.2388 11.1913L91.6909 13.8522C91.6909 13.8522 91.6127 14.2435 91.8475 14.5565C92.004 14.713 92.2388 14.7913 92.5518 14.7913C93.6475 14.7913 93.804 13.8522 93.804 13.8522L94.3518 11.1913C94.3518 11.1913 94.4301 10.7217 94.1953 10.487ZM82.8475 21.5217L81.4388 24.4174H83.004L82.8475 21.5217ZM65.8649 21.5217L64.4562 24.4174H66.0214L65.8649 21.5217ZM61.0127 21.2087C60.7779 20.9739 60.3083 20.9739 60.3083 20.9739H59.2127L58.8214 22.8522H59.8388C59.917 22.8522 60.9344 22.8522 61.1692 21.913C61.1692 21.6 61.091 21.3652 61.0127 21.2087ZM108.908 1.01739C108.36 0.391304 107.578 0 106.639 0H8.03009C6.30835 0 4.66487 1.33043 4.43009 3.05217L0.0474801 32.5565C-0.109042 33.4174 0.125741 34.3565 0.673567 34.9826C1.14313 35.6087 2.004 36 2.86487 36H101.395C103.117 36 104.76 34.6696 105.074 32.9478L109.456 3.44348C109.613 2.50435 109.378 1.64348 108.908 1.01739ZM79.9518 8.92174L78.9344 13.9304C78.9344 13.9304 78.8561 14.3217 79.0909 14.6348C79.2475 14.7913 79.4822 14.8696 79.7953 14.8696C80.8909 14.8696 81.0474 13.9304 81.1257 13.9304L82.1431 9H83.7083L82.6909 14.0087C82.6909 14.0087 82.2214 16.2783 79.5605 16.2783C78.7779 16.2783 78.1518 16.0435 77.8388 15.6522C77.1344 14.9478 77.3692 13.9304 77.3692 13.9304L78.3866 9H79.9518V8.92174ZM72.3605 8.92174H77.6822L77.4475 10.3304H75.5692L74.317 16.2H72.7518L73.9257 10.2522H72.0475L72.3605 8.92174ZM64.8475 8.92174H66.4127L64.9257 16.2783H63.3605L64.8475 8.92174ZM59.8388 8.92174H61.4823L60.3083 14.8696H62.891L62.5779 16.2H58.3518L59.8388 8.92174ZM50.291 23.3217C50.1344 23.5565 47.317 26.9217 42.8562 29.0348C39.9605 30.4435 36.6736 31.2261 33.2301 31.2261C23.917 31.2261 15.9344 25.5913 12.491 17.5304C12.4127 17.3739 12.4127 17.2957 12.3344 17.1391C12.3344 17.0609 12.2562 16.9826 12.2562 16.9043C11.0823 14.0087 10.6127 10.9565 10.7692 7.90435C10.8475 6.96522 11.004 5.63478 11.004 5.63478C11.0823 5.16522 11.317 5.00869 11.6301 4.93043C13.117 4.53913 17.2649 3.9913 21.0214 4.69565C21.3344 4.77391 21.5692 5.00869 21.5692 5.32174C21.2562 6.41739 21.0997 7.98261 20.9431 9.23478C20.2388 14.9478 21.9605 19.0174 24.0736 21.8348C23.6823 20.6609 23.4475 19.4087 23.4475 18.0783C23.4475 11.6609 28.691 6.49565 35.1866 6.49565C41.6823 6.49565 46.9257 11.6609 46.9257 18.0783C46.9257 19.7217 46.5344 21.4435 45.8301 22.9304C48.9605 19.8783 50.6823 15.4957 50.3692 10.7217C50.3692 10.2522 50.291 9.86087 50.2127 9.31304C50.1344 8.92174 50.291 8.76522 50.604 8.68696C51.3866 8.53043 52.4823 8.60869 53.3431 8.84348C53.9692 9 53.9692 9.3913 53.9692 9.3913C53.9692 9.54783 54.0475 10.0174 54.0475 10.2522C54.2823 15.4174 53.1866 19.7217 50.291 23.3217ZM58.5084 24.1826L57.9605 26.8435H56.3953L57.8823 19.5652H60.5431C60.6214 19.5652 61.717 19.5652 62.3431 20.2696C62.7344 20.6609 62.891 21.2087 62.7344 21.913C62.2649 24.1826 59.6823 24.1826 59.604 24.1826H58.5084ZM66.3344 26.8435L66.1779 25.8261H63.7518L63.204 26.9217H61.5605L65.317 19.5652H67.1953L67.9779 26.9217H66.3344V26.8435ZM66.6475 15.4957C66.3344 15.1826 66.1779 14.713 66.2562 14.1652L66.3344 14.0087L66.9605 10.8783C67.3518 9.3913 68.9953 8.84348 70.0127 8.84348H72.1257L71.8127 10.2522H69.7779C69.3866 10.2522 68.6822 10.4087 68.5257 11.0348L68.3692 11.8174H70.8736L70.5605 13.2261H68.0562C67.9779 13.4609 67.8997 14.0087 67.8214 14.087C67.8214 14.3217 67.8214 14.4783 67.9779 14.6348C68.1344 14.7913 68.5257 14.8696 68.7605 14.8696H70.8736L70.5605 16.2783H68.5257C67.9779 16.2 67.117 16.0435 66.6475 15.4957ZM74.0822 20.9739H72.0475C72.0475 20.9739 71.1083 20.9739 70.9518 21.6C70.8736 21.913 71.4996 22.3043 72.1257 22.6957C72.9866 23.2435 74.1605 23.9478 73.9257 24.9652C73.6909 26.1391 72.4388 26.9217 70.8736 26.9217H68.8388L69.1518 25.513H71.1866C71.2649 25.513 72.1257 25.513 72.2822 24.887C72.3605 24.5739 71.8127 24.1826 71.1083 23.7913C70.2475 23.2435 69.1518 22.5391 69.3083 21.5217C69.5431 20.3478 70.7953 19.5652 72.3605 19.5652H74.3953L74.0822 20.9739ZM72.6736 19.3304H71.891L70.717 17.687H72.0475L72.517 18.313L73.2214 17.687H74.6301L72.6736 19.3304ZM77.2909 26.8435H75.7257L76.8996 20.8957H75.0214L75.3344 19.487H80.6562L80.3431 20.8957H78.4649L77.2909 26.8435ZM83.317 26.8435L83.1605 25.7478H80.7344L80.1866 26.8435H78.5431L82.2996 19.487H84.1779L84.9605 26.8435H83.317ZM84.2561 8.92174H85.8996L86.5257 13.3826L88.9518 8.92174H90.6735L86.604 16.2H85.4301L84.2561 8.92174ZM91.1431 20.9739H89.1083C89.1083 20.9739 88.1692 20.9739 88.0127 21.6C87.9344 21.913 88.5605 22.3043 89.1866 22.6957C90.0475 23.2435 91.2214 23.9478 90.9866 24.9652C90.7518 26.1391 89.5779 26.9217 87.9344 26.9217H85.8214L86.0562 25.513H88.0909C88.0909 25.513 89.0301 25.513 89.1866 24.887C89.2649 24.5739 88.6388 24.1826 88.0127 23.7913C87.1518 23.2435 86.0562 22.5391 86.2127 21.5217C86.4475 20.3478 87.6996 19.5652 89.2649 19.5652H91.2996L91.1431 20.9739ZM95.9953 11.1913L95.4475 13.8522C95.1344 15.2609 93.804 16.2 92.317 16.1217C91.5344 16.1217 90.9083 15.887 90.5953 15.4957C89.8909 14.7913 90.1257 13.7739 90.1257 13.7739L90.6735 11.113C90.6735 11.113 91.1431 8.84348 93.804 8.84348C94.5866 8.84348 95.2127 9.07826 95.5257 9.46957C96.1518 10.1739 95.9953 11.1913 95.9953 11.1913ZM101.708 10.2522H99.6735C99.6735 10.2522 98.7344 10.2522 98.5779 10.8783C98.4996 11.1913 99.1257 11.5826 99.7518 11.9739C100.613 12.5217 101.787 13.2261 101.552 14.2435C101.317 15.4174 100.065 16.2 98.4996 16.2H96.3866L96.6214 14.7913H98.6562C98.6562 14.7913 99.5953 14.7913 99.7518 14.1652C99.8301 13.8522 99.204 13.4609 98.5779 13.0696C97.717 12.5217 96.6214 11.8174 96.7779 10.8C97.0127 9.62609 98.2648 8.84348 99.8301 8.84348H101.943L101.708 10.2522ZM93.4909 10.2522C92.8648 10.2522 92.317 10.6435 92.2388 11.1913L91.6909 13.8522C91.6909 13.8522 91.6127 14.2435 91.8475 14.5565C92.004 14.713 92.2388 14.7913 92.5518 14.7913C93.6475 14.7913 93.804 13.8522 93.804 13.8522L94.3518 11.1913C94.3518 11.1913 94.4301 10.8 94.1953 10.487C94.0388 10.3304 93.804 10.2522 93.4909 10.2522ZM81.517 24.4174H83.0822L82.8475 21.5217L81.517 24.4174ZM64.4562 24.4174H66.0214L65.8649 21.5217L64.4562 24.4174ZM60.2301 20.9739H59.1344L58.7431 22.8522H59.7605C59.8388 22.8522 60.8562 22.8522 61.091 21.913C61.1692 21.6783 61.091 21.4435 60.9344 21.287C60.6996 20.9739 60.2301 20.9739 60.2301 20.9739ZM65.8649 21.5217L64.4562 24.4174H66.0214L65.8649 21.5217ZM82.8475 21.5217L81.4388 24.4174H83.004L82.8475 21.5217ZM94.1953 10.487C94.0388 10.3304 93.804 10.2522 93.4909 10.2522C92.8648 10.2522 92.317 10.6435 92.2388 11.1913L91.6909 13.8522C91.6909 13.8522 91.6127 14.2435 91.8475 14.5565C92.004 14.713 92.2388 14.7913 92.5518 14.7913C93.6475 14.7913 93.804 13.8522 93.804 13.8522L94.3518 11.1913C94.3518 11.1913 94.4301 10.7217 94.1953 10.487ZM94.1953 10.487C94.0388 10.3304 93.804 10.2522 93.4909 10.2522C92.8648 10.2522 92.317 10.6435 92.2388 11.1913L91.6909 13.8522C91.6909 13.8522 91.6127 14.2435 91.8475 14.5565C92.004 14.713 92.2388 14.7913 92.5518 14.7913C93.6475 14.7913 93.804 13.8522 93.804 13.8522L94.3518 11.1913C94.3518 11.1913 94.4301 10.7217 94.1953 10.487ZM82.8475 21.5217L81.4388 24.4174H83.004L82.8475 21.5217ZM65.8649 21.5217L64.4562 24.4174H66.0214L65.8649 21.5217ZM82.8475 21.5217L81.4388 24.4174H83.004L82.8475 21.5217ZM94.1953 10.487C94.0388 10.3304 93.804 10.2522 93.4909 10.2522C92.8648 10.2522 92.317 10.6435 92.2388 11.1913L91.6909 13.8522C91.6909 13.8522 91.6127 14.2435 91.8475 14.5565C92.004 14.713 92.2388 14.7913 92.5518 14.7913C93.6475 14.7913 93.804 13.8522 93.804 13.8522L94.3518 11.1913C94.3518 11.1913 94.4301 10.7217 94.1953 10.487ZM94.1953 10.487C94.0388 10.3304 93.804 10.2522 93.4909 10.2522C92.8648 10.2522 92.317 10.6435 92.2388 11.1913L91.6909 13.8522C91.6909 13.8522 91.6127 14.2435 91.8475 14.5565C92.004 14.713 92.2388 14.7913 92.5518 14.7913C93.6475 14.7913 93.804 13.8522 93.804 13.8522L94.3518 11.1913C94.3518 11.1913 94.4301 10.7217 94.1953 10.487ZM82.8475 21.5217L81.4388 24.4174H83.004L82.8475 21.5217ZM82.8475 21.5217L81.4388 24.4174H83.004L82.8475 21.5217ZM94.1953 10.487C94.0388 10.3304 93.804 10.2522 93.4909 10.2522C92.8648 10.2522 92.317 10.6435 92.2388 11.1913L91.6909 13.8522C91.6909 13.8522 91.6127 14.2435 91.8475 14.5565C92.004 14.713 92.2388 14.7913 92.5518 14.7913C93.6475 14.7913 93.804 13.8522 93.804 13.8522L94.3518 11.1913C94.3518 11.1913 94.4301 10.7217 94.1953 10.487ZM94.1953 10.487C94.0388 10.3304 93.804 10.2522 93.4909 10.2522C92.8648 10.2522 92.317 10.6435 92.2388 11.1913L91.6909 13.8522C91.6909 13.8522 91.6127 14.2435 91.8475 14.5565C92.004 14.713 92.2388 14.7913 92.5518 14.7913C93.6475 14.7913 93.804 13.8522 93.804 13.8522L94.3518 11.1913C94.3518 11.1913 94.4301 10.7217 94.1953 10.487ZM82.8475 21.5217L81.4388 24.4174H83.004L82.8475 21.5217ZM94.1953 10.487C94.0388 10.3304 93.804 10.2522 93.4909 10.2522C92.8648 10.2522 92.317 10.6435 92.2388 11.1913L91.6909 13.8522C91.6909 13.8522 91.6127 14.2435 91.8475 14.5565C92.004 14.713 92.2388 14.7913 92.5518 14.7913C93.6475 14.7913 93.804 13.8522 93.804 13.8522L94.3518 11.1913C94.3518 11.1913 94.4301 10.7217 94.1953 10.487ZM94.1953 10.487C94.0388 10.3304 93.804 10.2522 93.4909 10.2522C92.8648 10.2522 92.317 10.6435 92.2388 11.1913L91.6909 13.8522C91.6909 13.8522 91.6127 14.2435 91.8475 14.5565C92.004 14.713 92.2388 14.7913 92.5518 14.7913C93.6475 14.7913 93.804 13.8522 93.804 13.8522L94.3518 11.1913C94.3518 11.1913 94.4301 10.7217 94.1953 10.487Z" fill="#1A2953"/>
<path d="M41.3691 11.9739V23.713C42.8561 22.1478 43.7952 20.113 43.7952 17.8435C43.7952 15.5739 42.8561 13.5391 41.3691 11.9739ZM29.239 11.8174H30.8042V22.2261H32.4477V15.1044H34.3259V11.8957H36.2042V15.1044H38.0824V22.3043H39.6477V11.8174H41.2911C39.6477 10.3304 37.5346 9.39131 35.1868 9.39131C32.9955 9.39131 30.8042 10.2522 29.239 11.8174ZM35.1868 26.2957C37.2216 26.2957 39.1781 25.5913 40.7433 24.2609H29.6303C31.1172 25.5913 33.0737 26.2957 35.1868 26.2957ZM34.0907 16.8261V22.2261H36.1255V16.8261H34.0907ZM26.5781 17.8435C26.5781 20.113 27.5172 22.1478 28.9259 23.713V12.0522C27.5172 13.5391 26.5781 15.5739 26.5781 17.8435Z" fill="#1A2953"/>
</svg>
