<svg width="16" height="17" viewBox="0 0 16 17" fill="none" xmlns="http://www.w3.org/2000/svg">
<path fill-rule="evenodd" clip-rule="evenodd" d="M15.9994 15.2964C15.9993 15.5446 15.9006 15.7825 15.7251 15.958C15.5496 16.1335 15.3117 16.2322 15.0635 16.2323L4.46825 16.2323C4.34256 16.2368 4.21727 16.2158 4.09985 16.1708C3.98243 16.1258 3.87528 16.0575 3.78479 15.9702C3.69431 15.8828 3.62235 15.7782 3.5732 15.6624C3.52405 15.5467 3.49872 15.4222 3.49872 15.2964C3.49872 15.1706 3.52405 15.0462 3.5732 14.9304C3.62235 14.8147 3.69431 14.71 3.78479 14.6226C3.87528 14.5353 3.98243 14.4671 4.09985 14.422C4.21727 14.377 4.34256 14.3561 4.46825 14.3605L12.8032 14.3605L0.274294 1.83161C0.0986665 1.65598 0 1.41778 0 1.16941C0 0.921032 0.0986665 0.682831 0.274294 0.507204C0.449921 0.331577 0.688122 0.23291 0.936496 0.23291C1.18487 0.23291 1.42307 0.331577 1.5987 0.507204L14.1276 13.0361V4.70116C14.1232 4.57547 14.1441 4.45018 14.1891 4.33276C14.2341 4.21534 14.3024 4.10819 14.3897 4.0177C14.4771 3.92722 14.5817 3.85526 14.6975 3.80611C14.8133 3.75696 14.9377 3.73163 15.0635 3.73163C15.1893 3.73163 15.3137 3.75696 15.4295 3.80611C15.5453 3.85526 15.6499 3.92722 15.7373 4.0177C15.8246 4.10819 15.8929 4.21534 15.9379 4.33276C15.9829 4.45018 16.0039 4.57547 15.9994 4.70116L15.9994 15.2964Z" fill="white"/>
</svg>
