<svg width="68" height="40" viewBox="0 0 68 40" fill="none" xmlns="http://www.w3.org/2000/svg">
<path d="M11.4231 5.13492C11.3168 5.10647 11.2105 5.08759 11.0992 5.08759C10.4949 5.08759 10.3015 5.59936 10.3015 6.15403C10.3015 6.75603 10.5142 7.1967 11.0461 7.1967C11.2202 7.1967 11.341 7.17781 11.4233 7.12559L11.4231 5.13492Z" fill="#182751"/>
<path d="M62.1073 30.4116C61.0028 30.4116 60.092 32.1491 59.8024 32.9605C61.0082 32.7638 62.1121 32.0909 62.4977 31.1845C62.5736 31.0065 62.5852 30.7989 62.5142 30.6489C62.448 30.5082 62.3129 30.4116 62.1073 30.4116Z" fill="#182751"/>
<path d="M50.451 34.6285C51.8355 34.6285 52.9403 32.2194 52.9802 31.4514C53.0008 31.0545 52.834 30.6576 52.3899 30.6576C51.3087 30.6576 50.1339 32.686 49.9394 33.5182C49.8179 34.0382 49.8463 34.6285 50.451 34.6285Z" fill="#182751"/>
<path d="M17.2489 35.1598C18.2963 35.1598 19.3319 34.7671 20.3615 34.1207C18.8562 33.4196 17.4538 32.7916 16.2216 32.7914C15.3002 32.7914 14.7839 33.274 14.7839 33.8089C14.7839 34.5642 15.6706 35.1598 17.2489 35.1598Z" fill="#182751"/>
<path d="M12.7604 6.08292C12.7507 5.39092 13.0311 5.09225 13.4082 5.09225C13.7804 5.09225 14.0075 5.31981 14.0078 5.89803L12.7604 6.08292Z" fill="#182751"/>
<path d="M20.1078 6.70848C20.1078 6.19181 20.4993 6.05448 21.1568 5.97381V7.14448C21.0505 7.20136 20.891 7.22981 20.7266 7.22981C20.3399 7.22981 20.1078 7.07825 20.1078 6.70848Z" fill="#182751"/>
<path d="M24.0557 6.08292C24.0459 5.39092 24.3263 5.09225 24.7035 5.09225C25.0757 5.09225 25.3028 5.31981 25.303 5.89803L24.0557 6.08292Z" fill="#182751"/>
<path d="M30.5964 5.97381C29.9388 6.05448 29.5474 6.19181 29.5474 6.70848C29.5474 7.07825 29.7795 7.22981 30.1662 7.22981C30.3305 7.22981 30.4901 7.20136 30.5964 7.14448V5.97381Z" fill="#182751"/>
<path d="M37.0976 6.70848C37.0976 6.19181 37.4891 6.05448 38.1466 5.97381V7.14448C38.0403 7.20136 37.8808 7.22981 37.7164 7.22981C37.3297 7.22981 37.0976 7.07825 37.0976 6.70848Z" fill="#182751"/>
<path d="M42.8416 5.08759C42.9529 5.08759 43.0592 5.10647 43.1655 5.13492H43.1657V7.12559C43.0834 7.17781 42.9626 7.1967 42.7885 7.1967C42.2566 7.1967 42.0439 6.75603 42.0439 6.15403C42.0439 5.59936 42.2373 5.08759 42.8416 5.08759Z" fill="#182751"/>
<path d="M50.2169 5.07336C50.3667 5.07336 50.4923 5.09225 50.5891 5.14448L50.5893 7.10181C50.4877 7.16336 50.3427 7.20603 50.1783 7.20603C49.6803 7.20603 49.4627 6.83648 49.4627 6.17759C49.4627 5.5047 49.6899 5.07336 50.2169 5.07336Z" fill="#182751"/>
<path fill-rule="evenodd" clip-rule="evenodd" d="M0 0H68V40H0V0ZM11.0267 7.47159C10.2821 7.47159 9.88085 6.95981 9.88085 6.18714C9.88085 5.3387 10.3401 4.84581 11.0121 4.84581C11.1572 4.84581 11.2828 4.8647 11.4231 4.9027V3.70359H11.8438V7.29136C11.6697 7.39581 11.3893 7.47159 11.0267 7.47159ZM6.54228 4.3767C6.40197 4.3767 6.29091 4.27248 6.29091 4.14914C6.29091 4.02114 6.4022 3.91692 6.54228 3.91692C6.6776 3.91692 6.78889 4.02114 6.78889 4.14914C6.78867 4.27248 6.6776 4.3767 6.54228 4.3767ZM6.32944 7.42425V4.86959H6.75489V7.42425H6.32944ZM4.25 4.16336V7.42425L5.73625 7.42403V7.13025H4.69472V4.16336H4.25ZM59.6888 33.5067L59.6829 33.5076C59.4941 34.3682 60.0664 35.0571 61.0649 35.0571C62.0607 35.0571 62.9419 34.6914 63.9134 34.2336L63.9238 34.7622C62.7481 35.506 60.9319 36.1131 59.4991 36.1131C57.7581 36.1131 56.9699 35.2767 56.8011 34.3654C55.4642 35.4716 54.0167 36.0022 53.19 36.0022C52.1771 36.0022 51.8219 35.2714 51.8992 34.5905C51.4112 35.0422 49.9954 36.0022 48.8074 36.0022C47.7827 36.0022 47.054 35.3485 46.927 34.4018C45.5908 35.4836 44.1193 36.0022 43.1292 36.0022C41.9453 36.0022 41.3241 35.1376 41.8819 34.0787L42.8493 32.2422C43.0664 31.8291 42.9672 31.4262 42.5218 31.4262C40.9992 31.4262 39.4493 34.1354 38.828 35.3214L38.5619 35.8285H35.5529L36.4788 34.0705C35.0363 35.3782 33.3429 36.0022 32.2562 36.0022C31.1039 36.0022 30.4647 35.172 30.9661 34.1618C29.9193 35.0469 28.3202 36.0022 26.4123 36.0022C24.9603 36.0022 23.5212 35.5202 22.1415 34.93C20.39 35.6447 18.7145 36.0022 17.2348 36.0022C14.6209 36.0022 12.4089 35.268 12.4089 34.0834C12.4089 32.7496 14.394 31.978 17.5134 31.978C19.1186 31.978 20.6557 32.3396 22.1354 32.7785C23.3665 31.7081 24.596 30.3865 25.8355 29.0542C26.3593 28.4912 26.8848 27.9263 27.4131 27.3776C30.6882 23.972 35.5481 21.7022 41.1511 21.7022C47.6603 21.7022 51.7863 23.498 51.7863 25.8522C51.7863 27.2045 50.4295 28.3734 48.0078 28.4627L47.9318 28.0287C48.4441 27.7989 49.0661 27.3885 49.0661 26.1038C49.0661 24.4331 47.0265 22.4089 41.5661 22.4089C37.3372 22.4089 34.7825 24.068 30.9232 28.4411C28.9802 30.6427 26.8716 32.3634 24.7858 33.604C26.0986 34.0009 27.3682 34.3127 28.6031 34.3127C30.4302 34.3127 31.5486 33.1038 32.0003 32.2878L33.2112 30.1005H36.2175L34.0426 34.0314C33.8434 34.3911 33.9041 34.6778 34.3191 34.6778C35.0127 34.6778 36.7186 33.6142 37.682 31.7847L38.568 30.1005H41.5763L40.7943 31.5858C42.1901 30.5865 43.3312 29.928 44.5765 29.928C46.0108 29.928 46.488 31.0449 45.9528 32.0611L44.9151 34.0314C44.7234 34.3958 44.7773 34.6778 45.1923 34.6778C45.5675 34.6778 46.2377 34.3667 46.9266 33.792C46.9533 33.5722 47.0093 33.3431 47.0968 33.1071C47.6009 31.7536 49.0309 29.7618 51.4794 29.7618C52.7669 29.7618 53.3528 30.3534 53.4942 30.8605L55.4055 27.2311H58.3195L54.7402 34.0316C54.5485 34.396 54.6017 34.678 55.0174 34.678C55.3967 34.678 56.0771 34.3602 56.775 33.7734C56.7861 33.6516 56.8067 33.5311 56.8378 33.4149C57.4156 31.1702 59.6897 29.8051 61.9376 29.8051C63.0657 29.8051 64.1709 30.3685 63.84 31.5205C63.439 32.9177 60.5951 33.3643 59.6888 33.5067ZM36.1783 26.496C37.0181 26.496 37.6029 27.0991 37.4864 27.8442C37.3685 28.59 36.5935 29.1931 35.7542 29.1931C34.9141 29.1931 34.3296 28.59 34.4468 27.8442C34.5642 27.0991 35.3385 26.496 36.1783 26.496ZM8.93769 5.59003V7.42425H9.36337V5.58048C9.36337 5.21559 9.15053 4.82225 8.42543 4.82225C8.00949 4.82225 7.70508 4.89314 7.47297 5.00225V7.42425H7.89843V5.18248C8.03375 5.12559 8.1498 5.09247 8.39143 5.09247C8.83615 5.09247 8.93769 5.35314 8.93769 5.59003ZM13.5678 7.16825C13.0988 7.16825 12.8232 6.88381 12.7749 6.30559L14.414 6.07359C14.4237 5.22048 14.0465 4.82225 13.423 4.82225C12.8092 4.82225 12.374 5.27248 12.374 6.13981C12.374 7.04981 12.8527 7.47159 13.5343 7.47159C13.887 7.47159 14.1626 7.39114 14.3222 7.29625L14.2109 7.02136C14.0753 7.09714 13.8627 7.16825 13.5678 7.16825ZM18.8027 7.42425C18.7979 7.38159 18.5465 4.98336 18.5465 4.98336C18.5273 4.77959 18.5223 4.59959 18.5223 4.59959H18.5125C18.5125 4.59959 18.4788 4.77959 18.4207 4.98336C18.4207 4.98336 17.7344 7.36736 17.7149 7.42425H17.42C17.4055 7.37692 16.7239 4.9787 16.7239 4.9787C16.6707 4.78448 16.6321 4.59959 16.6321 4.59959H16.6224C16.6224 4.59959 16.6176 4.78448 16.5981 4.9787C16.5981 4.9787 16.342 7.37692 16.337 7.42425H15.9551L16.3515 4.16336H16.8205L17.4876 6.51892C17.5506 6.73692 17.5748 6.88848 17.5748 6.88848H17.5846C17.5846 6.88848 17.6088 6.73692 17.6716 6.52359L18.358 4.16336H18.8269L19.2234 7.42425H18.8027ZM19.7016 6.71803C19.7016 7.18247 20.0158 7.47159 20.6926 7.47159C21.0553 7.47159 21.3597 7.40048 21.558 7.29136V5.65159C21.558 5.02603 21.1326 4.82225 20.6491 4.82225C20.2914 4.82225 20.0013 4.93114 19.8515 5.01181L19.953 5.25825C20.0981 5.18714 20.3302 5.09714 20.5816 5.09714C20.9152 5.09714 21.1568 5.21092 21.1568 5.60425V5.7607C20.3495 5.84114 19.7016 6.04025 19.7016 6.71803ZM23.0307 7.44781C22.557 7.44781 22.3829 7.11603 22.3829 6.80314V5.13003H22.0832V4.86936H22.3829V4.28181L22.8083 4.15381V4.86959H23.2628V5.13025H22.8083V6.79381C22.8083 6.99759 22.9001 7.16359 23.137 7.16359C23.1761 7.16359 23.2113 7.15589 23.2494 7.14757L23.2626 7.1447V7.41003L23.2591 7.41105C23.2106 7.42535 23.1345 7.44781 23.0307 7.44781ZM24.8631 7.16825C24.3941 7.16825 24.1185 6.88381 24.0702 6.30559L25.7092 6.07359C25.719 5.22048 25.3418 4.82225 24.7182 4.82225C24.1044 4.82225 23.6692 5.27248 23.6692 6.13981C23.6692 7.04981 24.1479 7.47159 24.8295 7.47159C25.1822 7.47159 25.4578 7.39114 25.6174 7.29625L25.5061 7.02136C25.3706 7.09714 25.158 7.16825 24.8631 7.16825ZM27.3813 5.14448C27.1687 5.08292 26.9269 5.10181 26.7868 5.19181V7.42403H26.3613V5.00692C26.6177 4.87892 26.8641 4.8127 27.4829 4.82692L27.3813 5.14448ZM28.048 4.14914C28.048 4.27248 28.159 4.3767 28.2993 4.3767C28.4347 4.3767 28.5459 4.27248 28.5459 4.14914C28.5459 4.02114 28.4347 3.91692 28.2993 3.91692C28.1593 3.91692 28.048 4.02114 28.048 4.14914ZM28.0867 4.86959V7.42425H28.5122V4.86959H28.0867ZM30.1324 7.47159C29.4556 7.47159 29.1414 7.18247 29.1414 6.71803C29.1414 6.04025 29.7892 5.84114 30.5966 5.7607V5.60425C30.5966 5.21092 30.355 5.09714 30.0213 5.09714C29.7699 5.09714 29.5378 5.18714 29.3928 5.25825L29.2912 5.01181C29.4411 4.93114 29.7312 4.82225 30.0889 4.82225C30.5723 4.82225 30.9978 5.02603 30.9978 5.65159V7.29136C30.7995 7.40048 30.4948 7.47159 30.1324 7.47159ZM31.6839 3.70359V7.42425L32.1094 7.42403V3.70359H31.6839ZM35.639 7.42425V5.88381H34.3665V7.42425H33.9218V4.16336H34.3665V5.5947H35.639V4.16336H36.0837V7.42425H35.639ZM36.6917 6.71803C36.6917 7.18247 37.0058 7.47159 37.6827 7.47159C38.0451 7.47159 38.3497 7.40048 38.5481 7.29136V5.65159C38.5481 5.02603 38.1226 4.82225 37.6391 4.82225C37.2815 4.82225 36.9913 4.93114 36.8415 5.01181L36.943 5.25825C37.0881 5.18714 37.3202 5.09714 37.5716 5.09714C37.9052 5.09714 38.1469 5.21092 38.1469 5.60425V5.7607C37.3395 5.84114 36.6917 6.04025 36.6917 6.71803ZM40.6862 7.42425V5.59003C40.6862 5.35314 40.5847 5.09247 40.1399 5.09247C39.8983 5.09247 39.7823 5.12559 39.6469 5.18248V7.42425H39.2215V5.00225C39.4536 4.89314 39.758 4.82225 40.174 4.82225C40.8991 4.82225 41.1119 5.21559 41.1119 5.58048V7.42425H40.6862ZM41.6233 6.18714C41.6233 6.95981 42.0245 7.47159 42.7691 7.47159C43.1315 7.47159 43.4119 7.39581 43.5862 7.29136V3.70359H43.1655V4.9027C43.0252 4.8647 42.8996 4.84581 42.7545 4.84581C42.0825 4.84581 41.6233 5.3387 41.6233 6.18714ZM44.3163 7.42425V3.70359H44.7417V7.42403L44.3163 7.42425ZM45.4462 4.14914C45.4462 4.27248 45.5573 4.3767 45.6976 4.3767C45.8329 4.3767 45.944 4.27248 45.9442 4.14914C45.9442 4.02114 45.8329 3.91692 45.6976 3.91692C45.5575 3.91692 45.4462 4.02114 45.4462 4.14914ZM45.4847 4.86959V7.42425H45.9102V4.86959H45.4847ZM48.0989 7.42425V5.59003C48.0989 5.35314 47.9974 5.09247 47.5526 5.09247C47.311 5.09247 47.195 5.12559 47.0596 5.18248V7.42425H46.6342V5.00225C46.8663 4.89314 47.1707 4.82225 47.5866 4.82225C48.3117 4.82225 48.5246 5.21559 48.5246 5.58048V7.42425H48.0989ZM49.1919 8.32003C49.366 8.42425 49.6561 8.49536 49.9993 8.49536C50.6231 8.49536 51 8.12092 50.9998 7.47625V5.00225C50.8499 4.90759 50.5888 4.82225 50.2264 4.82225C49.4433 4.82225 49.0421 5.38159 49.0421 6.19203C49.0421 6.96936 49.4435 7.4527 50.067 7.4527C50.2942 7.4527 50.473 7.41003 50.5891 7.34359V7.52381C50.5891 7.90759 50.4052 8.19203 49.9267 8.19203C49.6946 8.19203 49.4675 8.12114 49.3224 8.04047L49.1919 8.32003Z" fill="#182751"/>
</svg>
