<svg width="121" height="32" viewBox="0 0 121 32" fill="none" xmlns="http://www.w3.org/2000/svg">
<path d="M18.4978 7.21366H23.0321V24.8871H18.4978V7.21366ZM30.9671 16.2823C32.7705 16.2823 34.0586 15.4063 34.0586 13.5514C34.0586 11.748 32.8735 10.9235 31.0186 10.9235H29.7305V16.2307H30.9671V16.2823ZM62.4495 20.8166H68.5811V24.8356H57.8637V7.21366H62.4495L62.4495 20.8166ZM70.0239 7.21366H81.6173V11.2327H74.5582V14.1697H81.3081V17.8796H74.5582V20.8681H81.6173V24.8871H69.9723V7.21366H70.0239ZM109.338 15.6639L115.625 7.21366H109.184L103.361 15.3548V7.21366H97.7449V24.8871H103.361V16.6945L113.357 29.6275C110.781 31.2248 107.793 32.0492 104.752 31.9977C95.6839 31.9977 88.7278 25.0932 88.7278 15.9731C88.7278 6.9045 95.6323 0 104.752 0C113.873 0 120.777 6.9045 120.777 15.9731C120.829 19.5284 119.644 23.0322 117.479 25.8661L109.338 15.6639ZM38.5414 13.0361C38.5414 15.6124 37.0472 17.3643 35.2953 18.1372L39.778 24.8871H34.4193L29.6789 17.4674V24.8871H25.1446V7.21366H30.8125C35.8105 7.21366 38.5414 9.17165 38.5414 13.0361ZM9.37764 11.0266C6.5437 11.0266 4.5857 13.2937 4.5857 15.9731C4.5857 18.704 6.5437 20.9196 9.37764 20.9196C11.2841 20.9196 12.7784 19.8891 13.6543 18.4464L17.1581 20.7135C15.5608 23.3413 12.7268 25.0417 9.27458 25.0417C3.91586 25.0417 -0.00012207 21.0742 -0.00012207 15.9216C-0.00012207 10.769 3.91586 6.80145 9.27458 6.80145C12.7268 6.80145 15.6123 8.45028 17.2096 11.1296L13.6028 13.4998C12.6753 12.0571 11.3356 11.0266 9.37764 11.0266ZM48.8466 11.0266C46.0127 11.0266 44.0547 13.2937 44.0547 15.9731C44.0547 18.704 46.0127 20.9196 48.8466 20.9196C50.7531 20.9196 52.2474 19.8891 53.1233 18.4464L56.6271 20.7135C55.0298 23.3413 52.1958 25.0417 48.7436 25.0417C43.3849 25.0417 39.4689 21.0742 39.4689 15.9216C39.4689 10.769 43.3849 6.80145 48.7436 6.80145C52.1958 6.80145 55.0813 8.45028 56.6786 11.1296L53.0718 13.4998C52.1443 12.0571 50.7531 11.0266 48.8466 11.0266Z" fill="#1A2953"/>
</svg>
