<svg width="16" height="17" viewBox="0 0 16 17" fill="none" xmlns="http://www.w3.org/2000/svg">
<path fill-rule="evenodd" clip-rule="evenodd" d="M4 0.233154C2.93913 0.233154 1.92172 0.654582 1.17157 1.40473C0.421427 2.15487 0 3.17229 0 4.23315V12.2332C0 13.294 0.421427 14.3114 1.17157 15.0616C1.92172 15.8117 2.93913 16.2332 4 16.2332H12C13.0609 16.2332 14.0783 15.8117 14.8284 15.0616C15.5786 14.3114 16 13.294 16 12.2332V4.23315C16 3.17229 15.5786 2.15487 14.8284 1.40473C14.0783 0.654582 13.0609 0.233154 12 0.233154H4ZM10.984 7.18035C11.0559 7.10366 11.1119 7.01357 11.149 6.91521C11.186 6.81686 11.2033 6.71217 11.1999 6.60713C11.1965 6.50209 11.1724 6.39875 11.129 6.30301C11.0857 6.20727 11.0239 6.12101 10.9472 6.04915C10.8705 5.9773 10.7804 5.92124 10.6821 5.8842C10.5837 5.84716 10.479 5.82986 10.374 5.83327C10.2689 5.83669 10.1656 5.86077 10.0699 5.90412C9.97412 5.94748 9.88786 6.00926 9.816 6.08595L7.3496 8.71795L6.1312 7.63555C5.97157 7.50285 5.7666 7.43739 5.5596 7.45301C5.3526 7.46863 5.15977 7.5641 5.02186 7.71925C4.88394 7.8744 4.81174 8.07709 4.8205 8.2845C4.82926 8.4919 4.91829 8.68778 5.0688 8.83075L6.8688 10.4308C7.02455 10.5691 7.22812 10.6412 7.43623 10.6318C7.64434 10.6224 7.84058 10.5322 7.9832 10.3804L10.984 7.18035Z" fill="#EA3652"/>
</svg>
