<svg width="23" height="24" viewBox="0 0 23 24" fill="none" xmlns="http://www.w3.org/2000/svg">
<path d="M19.5 9.75H18V8.25C18 6.15 16.35 4.5 14.25 4.5H12V3H14.25C17.175 3 19.5 5.325 19.5 8.25V9.75ZM15 15H17.25V16.5H15V15ZM15 18H17.25V19.5H15V18Z" fill="#EA3652"/>
<path d="M20.8333 24H16.6667V22.2857H20.8333V13.7143H15V21.4286C15 22.8857 13.9167 24 12.5 24C11.0833 24 10 22.8857 10 21.4286V18.8571H11.6667V21.4286C11.6667 21.9429 12 22.2857 12.5 22.2857C13 22.2857 13.3333 21.9429 13.3333 21.4286V12H22.5V22.2857C22.5 23.2286 21.75 24 20.8333 24ZM8.33333 22.2857H7.5C4.25 22.2857 1.66667 19.6286 1.66667 16.2857V12.8571H3.33333V16.2857C3.33333 18.6857 5.16667 20.5714 7.5 20.5714H8.33333V22.2857ZM7.5 6.85714V8.57143H10C10.9167 8.57143 11.6667 7.8 11.6667 6.85714V1.71429C11.6667 0.771429 10.9167 0 10 0H1.66667C0.75 0 0 0.771429 0 1.71429V6.85714C0 7.8 0.75 8.57143 1.66667 8.57143H3.66667L5.08333 11.1429L6.5 10.2857L4.58333 6.85714H1.66667V1.71429H10V6.85714H7.5Z" fill="#EA3652"/>
</svg>
