<svg width="105" height="20" viewBox="0 0 105 20" fill="none" xmlns="http://www.w3.org/2000/svg">
<g clip-path="url(#clip0_2040_498)">
<path d="M74.1398 12.013C73.6016 14.6084 72.3407 15.2321 70.4808 15.2321H69.142L69.7391 10.4549C67.3924 10.3643 64.7224 10.2758 62.0827 10.2017L61.3962 19.4103H74.2463C77.0913 19.4103 80.4706 17.8502 81.3835 13.9045C81.4501 13.6266 81.7125 12.4287 82.0206 11.0044C79.6149 10.8851 77.0418 10.7616 74.4098 10.6484C74.3337 11.0621 74.2501 11.484 74.1398 12.013ZM54.4092 12.1447L53.5439 10.0185C52.7737 10.0103 52.0606 10.0062 51.4273 10.0062C47.4698 10.0062 42.588 10.0721 39.0831 10.1647L39.5681 19.4083H44.0295L43.9364 10.068L50.3852 19.4083H58.8802L59.4545 10.1318C57.7011 10.0886 56.0162 10.0536 54.5081 10.0309L54.4092 12.1447ZM29.8045 15.2815L29.4794 12.8177H35.0781L34.8346 10.2985C31.2689 10.3746 26.0714 10.5928 21.0299 10.8336L22.3935 19.4103H37.3506L37.0711 15.2815H29.8045ZM85.5445 19.4103H93.5926L95.7112 11.7783C94.3571 11.6857 91.2972 11.5005 87.3017 11.2823L85.5445 19.4103ZM0.525391 0.595459L3.3856 11.6342L5.40601 19.4062H13.3416L12.0393 13.2808H17.3581L16.8834 11.0415C13.1978 11.2308 9.89944 11.4165 7.80372 11.542C7.64398 11.5502 7.50629 11.5581 7.36556 11.5684C7.36556 11.5684 7.16284 11.2926 7.07346 11.1732C7.65729 11.1094 8.27232 11.0546 8.91129 10.9888C9.74426 10.9044 10.6134 10.8118 11.5281 10.7253C13.1465 10.5751 14.8854 10.4236 16.713 10.2774L16.2018 7.91952H10.9074L10.2988 5.11372H18.0518L17.1755 0.595459H0.525391Z" fill="#182751"/>
<mask id="mask0_2040_498" style="mask-type:luminance" maskUnits="userSpaceOnUse" x="0" y="0" width="105" height="12">
<path d="M85.1244 0.589722L84.1107 5.10963H88.6369L87.5548 10.1173C90.9456 10.3582 93.8058 10.5866 95.9928 10.7616L97.5617 5.10963H102.617L104.024 0.589722H85.1244ZM62.7998 0.589722L62.1837 8.86181C64.8385 8.92973 67.4192 9.01823 69.9047 9.12114L70.4011 5.1405H72.5482C75.3722 5.1405 75.068 6.44748 74.7218 8.73419C74.6895 8.95031 74.6591 9.1479 74.6306 9.3352C77.3386 9.46899 79.9022 9.61512 82.2889 9.76538C82.7814 7.49102 83.2873 5.1405 83.2873 5.1405C83.7874 2.25072 81.9998 0.589722 78.9665 0.589722H62.7998ZM54.9552 0.589722L54.5691 8.73214C56.2465 8.74654 57.9029 8.77124 59.5384 8.80212L60.0461 0.589722H54.9552ZM38.5812 0.589722L39.0205 8.96266C43.1834 8.80623 47.2379 8.71567 50.9216 8.71567C51.6005 8.71567 52.2775 8.71772 52.9526 8.71978L47.9283 0.589722H38.5812ZM19.4022 0.589722L20.8912 9.96297C25.2862 9.64806 30.0158 9.3599 34.7226 9.14173L34.5609 7.46632H28.774L28.4564 5.0664H36.4361L36.1204 0.589722H19.4022ZM0.521729 0.589722L3.38955 11.6301C4.44692 11.4902 5.91316 11.3111 7.07131 11.1773C7.65515 11.1135 8.26941 11.0497 8.90839 10.9839C9.74136 10.8995 10.6162 10.8151 11.5309 10.7286C13.1493 10.5784 14.8875 10.4281 16.715 10.282L16.2035 7.91295H10.9052L10.3024 5.10963H18.0481L17.1714 0.589722H0.521729Z" fill="white"/>
</mask>
<g mask="url(#mask0_2040_498)">
<path d="M0.37915 0.591775L0.5427 13.1944L104.166 11.6281L104.003 -0.974548L0.37915 0.591775Z" fill="url(#paint0_radial_2040_498)"/>
</g>
</g>
<defs>
<radialGradient id="paint0_radial_2040_498" cx="0" cy="0" r="1" gradientUnits="userSpaceOnUse" gradientTransform="translate(66.8203 9.11241) rotate(-0.865743) scale(100.807 16.3637)">
<stop offset="1" stop-color="#182751"/>
</radialGradient>
<clipPath id="clip0_2040_498">
<rect width="104.545" height="20" fill="white"/>
</clipPath>
</defs>
</svg>
