<svg width="23" height="24" viewBox="0 0 23 24" fill="none" xmlns="http://www.w3.org/2000/svg">
<path d="M17.698 7.644L18.2073 7.1336C18.6128 6.72794 19.1629 6.49998 19.7365 6.49988C20.3101 6.49977 20.8602 6.72753 21.2659 7.13305C21.6715 7.53857 21.8995 8.08862 21.8996 8.66221C21.8997 9.2358 21.6719 9.78594 21.2664 10.1916L20.7571 10.702M17.698 7.644C17.698 7.644 17.7618 8.7264 18.7177 9.6823C19.6736 10.6382 20.7571 10.702 20.7571 10.702M17.698 7.644L13.012 12.33C12.693 12.6468 12.5346 12.8063 12.3982 12.9812C12.2369 13.188 12.0997 13.4102 11.9868 13.6478C11.8911 13.848 11.8207 14.0603 11.6788 14.486L11.0771 16.2911M20.7571 10.702L16.0711 15.388C15.7521 15.707 15.5937 15.8654 15.4188 16.0018C15.212 16.1631 14.9898 16.3003 14.7522 16.4132C14.552 16.5089 14.3397 16.5793 13.914 16.7212L12.1089 17.3229M11.0771 16.2911L10.9308 16.7333C10.8967 16.8359 10.8919 16.946 10.9168 17.0513C10.9417 17.1565 10.9954 17.2528 11.0719 17.3292C11.1483 17.4057 11.2446 17.4594 11.3498 17.4843C11.4551 17.5092 11.5652 17.5044 11.6678 17.4703L12.1089 17.3229M11.0771 16.2911L12.1089 17.3229M6.5 13.1H9.25M6.5 8.7H13.65M6.5 17.5H8.15M19.5108 2.2892C18.2227 1 16.1481 1 12 1H9.8C5.6519 1 3.5773 1 2.2892 2.2892C1.0011 3.5784 1 5.6519 1 9.8V14.2C1 18.3481 1 20.4227 2.2892 21.7108C3.5784 22.9989 5.6519 23 9.8 23H12C16.1481 23 18.2227 23 19.5108 21.7108C20.5492 20.6735 20.7505 19.128 20.7901 16.4" stroke="#EA3652" stroke-width="1.6" stroke-linecap="round"/>
</svg>
