<svg width="24" height="24" viewBox="0 0 24 24" fill="none" xmlns="http://www.w3.org/2000/svg">
<path fill-rule="evenodd" clip-rule="evenodd" d="M11.9828 0C16.4773 0 20.221 3.74373 20.221 8.23655C20.221 9.70388 19.7171 11.1506 19.0125 12.4603C18.3046 13.7767 17.3687 15.0041 16.4396 16.0497C15.6282 16.958 14.7572 17.8113 13.8323 18.6038C13.5301 18.8632 13.2179 19.1108 12.8964 19.346C12.7879 19.4247 12.6764 19.499 12.5622 19.5689C12.4675 19.6258 12.3677 19.6735 12.2639 19.7112C12.0346 19.785 11.7856 19.7666 11.5696 19.6597C11.512 19.6326 11.4559 19.6023 11.4017 19.5689C11.2867 19.4973 11.1746 19.4213 11.0657 19.3409C10.7448 19.1045 10.4331 18.8558 10.1315 18.5952C9.20689 17.7993 8.33645 16.9426 7.52594 16.0309C6.59686 14.9818 5.66093 13.751 4.95469 12.4397C4.25017 11.1335 3.74449 9.69188 3.74449 8.23655C3.74449 3.74373 7.48823 0 11.9828 0ZM11.9828 10.6964C11.3304 10.6964 10.7047 10.4372 10.2434 9.97591C9.7821 9.51461 9.52294 8.88894 9.52294 8.23655C9.52294 7.58417 9.7821 6.9585 10.2434 6.4972C10.7047 6.03589 11.3304 5.77673 11.9828 5.77673C12.6351 5.77673 13.2608 6.03589 13.7221 6.4972C14.1834 6.9585 14.4426 7.58417 14.4426 8.23655C14.4426 8.88894 14.1834 9.51461 13.7221 9.97591C13.2608 10.4372 12.6351 10.6964 11.9828 10.6964ZM17.2958 17.409C17.2964 17.409 17.2969 17.4088 17.2972 17.4084C17.4517 17.2349 17.6058 17.0574 17.7597 16.8757C18.0676 16.5122 18.5164 16.2948 18.9928 16.2948H20.5416C20.8844 16.2948 21.193 16.5005 21.3301 16.8142L23.8962 22.8052C23.9521 22.9357 23.9748 23.0779 23.9621 23.2193C23.9495 23.3606 23.9019 23.4966 23.8238 23.615C23.7456 23.7335 23.6393 23.8306 23.5143 23.8978C23.3893 23.965 23.2496 24.0001 23.1077 24H0.857844C0.715941 24.0001 0.576227 23.965 0.451241 23.8978C0.326255 23.8306 0.219908 23.7335 0.141744 23.615C0.0635802 23.4966 0.0160457 23.3606 0.00340667 23.2193C-0.00923239 23.0779 0.0134195 22.9357 0.0693293 22.8052L2.63715 16.8142C2.70328 16.66 2.81326 16.5285 2.95343 16.4362C3.09361 16.3438 3.25781 16.2947 3.42566 16.2948H4.32138C5.22373 16.2948 6.0706 16.7095 6.66886 17.385C7.80363 18.6638 8.9487 19.7437 9.84006 20.5065C10.2857 20.8888 10.6749 21.1956 10.9731 21.4116C11.1217 21.5202 11.2542 21.6099 11.3708 21.6807C11.4705 21.7481 11.5797 21.8001 11.6948 21.835C11.929 21.9112 12.1837 21.8928 12.4044 21.7836C12.473 21.7504 12.5359 21.7167 12.593 21.6825C12.729 21.6001 12.8612 21.5114 12.989 21.4168C13.2872 21.2008 13.6746 20.8956 14.122 20.5168C15.0133 19.7593 16.1615 18.6847 17.2944 17.4097C17.2947 17.4093 17.2953 17.409 17.2958 17.409Z" fill="white"/>
</svg>
