<svg width="85" height="32" viewBox="0 0 85 32" fill="none" xmlns="http://www.w3.org/2000/svg">
<path d="M0 11.2688V15.8885L12.4625 14.5176V9.51747L0 11.2688ZM3.977 16.1693V31.9997H8.53966V15.7032L3.977 16.1693ZM14.1457 9.28075V31.9997H18.9534V8.60504L14.1457 9.28075ZM19.8491 8.47881V13.7054L26.7915 12.9416V7.50338L19.8491 8.47881ZM19.8491 17.5952V22.9165L24.4063 22.668V17.2028L19.8491 17.5952ZM19.8491 26.7523V31.9997H26.7915V26.5429L19.8491 26.7523ZM44.7454 4.97205V31.9997H51.048V4.08644L44.7454 4.97205ZM52.2249 3.92083V10.1378L61.4098 9.12794V2.6297L52.2249 3.92083ZM52.2249 14.8134V21.1456L58.2451 20.8168V14.2979L52.2249 14.8134ZM52.2249 25.7739V32H61.4098V25.4963L52.2249 25.7739ZM28.6284 7.24476V32H34.105V6.47505L28.6284 7.24476ZM35.1272 26.2916V31.9997H43.0767V26.0515L35.1272 26.2916ZM82.0018 2.32408C80.0098 0.442128 77.0892 -0.329796 73.8947 0.129126V7.02453C75.1883 6.95267 76.2366 7.43276 76.7036 8.39933C77.4411 9.92324 76.6802 12.2097 74.8854 14.3282C72.1151 17.5972 64.7485 24.2884 64.7485 24.2884L75.3236 23.9407C81.7852 17.628 84.1057 13.7962 84.522 9.01376C84.7408 6.48366 83.8225 4.04559 82.0018 2.32408ZM84.8946 32V24.785L63.445 25.4311M63.445 25.4311L63.4473 31.9997L84.8946 32M72.6616 0.283659C66.4304 1.61097 63.3705 6.19527 63.7236 13.6756L70.3675 13.086C70.0648 8.85997 71.3575 7.85748 72.6648 7.30628L72.6616 0.283659Z" fill="#1A2953"/>
</svg>
