<svg width="28" height="20" viewBox="0 0 28 20" fill="none" xmlns="http://www.w3.org/2000/svg">
<path fill-rule="evenodd" clip-rule="evenodd" d="M0 2.72727C0 2.00396 0.287337 1.31026 0.7988 0.7988C1.31026 0.287337 2.00395 0 2.72727 0H24.5455C25.2688 0 25.9625 0.287337 26.4739 0.7988C26.9854 1.31026 27.2727 2.00396 27.2727 2.72727V17.2727C27.2727 17.996 26.9854 18.6897 26.4739 19.2012C25.9625 19.7127 25.2688 20 24.5455 20H2.72727C2.00395 20 1.31026 19.7127 0.7988 19.2012C0.287337 18.6897 0 17.996 0 17.2727L0 2.72727ZM5.45455 7.27273C5.45455 6.3083 5.83766 5.38338 6.51961 4.70143C7.20156 4.01948 8.12648 3.63636 9.09091 3.63636C10.0553 3.63636 10.9803 4.01948 11.6622 4.70143C12.3442 5.38338 12.7273 6.3083 12.7273 7.27273C12.7273 8.23715 12.3442 9.16208 11.6622 9.84402C10.9803 10.526 10.0553 10.9091 9.09091 10.9091C8.12648 10.9091 7.20156 10.526 6.51961 9.84402C5.83766 9.16208 5.45455 8.23715 5.45455 7.27273ZM21.8182 6.36364C21.8182 6.86571 21.4112 7.27273 20.9091 7.27273H17.2727C16.7706 7.27273 16.3636 6.86571 16.3636 6.36364C16.3636 5.86156 16.7706 5.45455 17.2727 5.45455H20.9091C21.4112 5.45455 21.8182 5.86156 21.8182 6.36364ZM21.8182 11.8182C21.8182 12.3203 21.4112 12.7273 20.9091 12.7273H17.2727C16.7706 12.7273 16.3636 12.3203 16.3636 11.8182C16.3636 11.3161 16.7706 10.9091 17.2727 10.9091H20.9091C21.4112 10.9091 21.8182 11.3161 21.8182 11.8182ZM9.09091 12.7273C8.10271 12.7279 7.13417 13.0034 6.29356 13.5229C5.45295 14.0424 4.7734 14.7855 4.33091 15.6691L3.73091 16.8655C3.66139 17.0042 3.62854 17.1584 3.63549 17.3134C3.64244 17.4685 3.68895 17.6191 3.77061 17.7511C3.85226 17.883 3.96634 17.9919 4.10197 18.0673C4.2376 18.1427 4.39027 18.1821 4.54545 18.1818H13.6364C13.7914 18.1818 13.9438 18.1422 14.0792 18.0666C14.2146 17.9911 14.3284 17.8822 14.4099 17.7503C14.4913 17.6184 14.5377 17.4679 14.5445 17.313C14.5514 17.1581 14.5185 17.0041 14.4491 16.8655L13.8509 15.6691C13.4084 14.7855 12.7289 14.0424 11.8883 13.5229C11.0477 13.0034 10.0791 12.7279 9.09091 12.7273Z" fill="white"/>
</svg>
