<svg width="118" height="18" viewBox="0 0 118 18" fill="none" xmlns="http://www.w3.org/2000/svg">
<path d="M7.7924 12.6106C7.95393 13.0164 7.90271 13.5364 7.82392 13.8516C7.68603 14.411 7.30783 14.9822 6.18899 14.9822C5.14105 14.9822 4.50284 14.3755 4.50284 13.4616V11.8345H-0.00012207V13.1267C-0.00012207 16.8693 2.94276 18 6.09838 18C9.13187 18 11.6296 16.9678 12.0275 14.1667C12.2323 12.717 12.0826 11.7675 12.0117 11.4169C11.3026 7.90278 4.93619 6.85485 4.4595 4.88899C4.39331 4.59909 4.38794 4.29861 4.44374 4.00653C4.56193 3.4668 4.92831 2.8798 5.97625 2.8798C6.96115 2.8798 7.53239 3.4865 7.53239 4.40048V5.44054H11.7202V4.25866C11.7202 0.602717 8.4385 0.0314758 6.06686 0.0314758C3.08064 0.0314758 0.642032 1.02031 0.196858 3.75833C0.0786701 4.50685 0.058972 5.17658 0.236254 6.01966C0.96508 9.44711 6.92569 10.4399 7.7924 12.6106Z" fill="#1A2953"/>
<path d="M17.9646 0.56729L14.8523 17.346H19.3868L21.6836 2.11949H21.7781L24.0119 17.346H28.5227L25.4301 0.563351L17.9646 0.56729ZM43.3159 0.56729L41.2476 13.3946H41.1491L39.0848 0.567291H32.2417L31.8714 17.346H36.071L36.1734 2.26132H36.2679L39.069 17.346H43.3277L46.1327 2.26526H46.2233L46.3297 17.346H50.5253L50.155 0.563351L43.3159 0.56729Z" fill="#1A2953"/>
<path d="M62.3439 12.5791C62.5054 12.9849 62.4542 13.5049 62.3754 13.8201C62.2375 14.3795 61.8593 14.9508 60.7405 14.9508C59.6926 14.9508 59.0544 14.3441 59.0544 13.4301V11.803H54.5514V13.0952C54.5514 16.8378 57.4943 17.9685 60.6499 17.9685C63.6834 17.9685 66.1811 16.9363 66.579 14.1353C66.7838 12.6855 66.6341 11.7361 66.5632 11.3854C65.8541 7.87131 59.4877 6.82338 59.011 4.85752C58.9448 4.56761 58.9395 4.26713 58.9953 3.97505C59.1134 3.43532 59.4798 2.84833 60.5278 2.84833C61.5127 2.84833 62.0839 3.45502 62.0839 4.36901V5.40906H66.2717V4.22718C66.2717 0.571241 62.99 0 60.6184 0C57.6322 0 55.1935 0.988838 54.7484 3.72686C54.6302 4.47538 54.6105 5.14511 54.7878 5.98818C55.5166 9.41563 61.4772 10.4084 62.3439 12.5791Z" fill="#1A2953"/>
<path d="M76.4278 14.8327C77.594 14.8327 77.9525 14.029 78.0352 13.6193C78.0706 13.4381 78.0746 13.1938 78.0746 12.9771V0.567406H82.3215V12.595C82.3223 12.963 82.3091 13.331 82.2821 13.6981C81.9866 16.83 79.5126 17.8465 76.4278 17.8465C73.3392 17.8465 70.8651 16.83 70.5697 13.6981C70.5578 13.5326 70.5263 12.9023 70.5302 12.595V0.563466H74.7772V12.9732C74.7732 13.1938 74.7811 13.4381 74.8166 13.6193C74.8953 14.029 75.2578 14.8327 76.4278 14.8327ZM96.9453 0.567406L97.1738 13.7375H97.0831L93.2224 0.567406H86.9978V17.1689H91.1225L90.894 3.5418H90.9846L95.1252 17.1689H101.102V0.567406L96.9453 0.567406ZM111.423 14.6593C112.637 14.6593 113.062 13.8911 113.137 13.4381C113.172 13.2529 113.176 13.0165 113.176 12.8077V10.3652H111.455V7.92263H117.4V12.4216C117.4 12.7368 117.392 12.9653 117.341 13.5247C117.065 16.5819 114.413 17.6731 111.439 17.6731C108.465 17.6731 105.817 16.5819 105.538 13.5247C105.49 12.9653 105.478 12.7368 105.478 12.4216V5.36189C105.478 5.06248 105.518 4.53458 105.549 4.2588C105.924 1.11895 108.465 0.110413 111.439 0.110413C114.413 0.110413 117.021 1.11107 117.329 4.25487C117.384 4.79065 117.368 5.35795 117.368 5.35795V5.92131H113.137V4.97975C113.137 4.97975 113.137 4.58579 113.086 4.34154C113.007 3.97122 112.692 3.12026 111.408 3.12026C110.186 3.12026 109.828 3.92788 109.737 4.34154C109.686 4.56215 109.666 4.86156 109.666 5.1334V12.8038C109.666 13.0165 109.674 13.2529 109.706 13.442C109.784 13.8911 110.21 14.6593 111.423 14.6593Z" fill="#1A2953"/>
</svg>
