<svg width="99" height="28" viewBox="0 0 99 28" fill="none" xmlns="http://www.w3.org/2000/svg">
<g clip-path="url(#clip0_2040_475)">
<path fill-rule="evenodd" clip-rule="evenodd" d="M77.3093 17.9095H82.3936L83.6062 13.3698H84.3266L85.4874 8.98801H84.7767L85.9684 4.52725H80.8544L77.3093 17.9095ZM92.7022 8.98801H91.9072L90.7465 13.3698H91.5315L90.3189 17.9095H95.3615L98.9066 4.52725H93.8937L92.7022 8.98801Z" fill="#182751"/>
<path fill-rule="evenodd" clip-rule="evenodd" d="M83.7539 17.9095H88.8373L92.3823 4.52722H87.2988L83.7539 17.9095ZM92.5496 3.89559L93.5473 0.129333H88.4639L87.4662 3.89559H92.5496Z" fill="#182751"/>
<path fill-rule="evenodd" clip-rule="evenodd" d="M0.159912 27.9777H92.7594L94.6526 20.3818H5.67423L0.159912 27.9777ZM47.4969 24.4693H48.8759L48.1771 22.8963L47.4969 24.4693ZM46.0381 26.3157L47.9558 21.9506H48.4169L50.3593 26.3157H49.7049L49.1349 25.0305H47.2495L46.6871 26.3157H46.0381ZM54.8049 24.1753V26.0218C54.5133 26.1465 54.2379 26.2401 53.9777 26.302C53.7175 26.3626 53.4691 26.3935 53.2326 26.3935C52.967 26.3935 52.7165 26.3616 52.4833 26.2966C52.249 26.2327 52.0341 26.1369 51.8376 26.0101C51.5082 25.7971 51.2523 25.5266 51.0698 25.1976C50.8873 24.8674 50.7967 24.5076 50.7967 24.1157C50.7967 23.8229 50.8571 23.5384 50.977 23.2627C51.0968 22.988 51.2685 22.7461 51.4899 22.5407C51.7231 22.3181 51.9876 22.153 52.2803 22.0444C52.574 21.9369 52.9011 21.8826 53.2639 21.8826C53.5113 21.8826 53.7584 21.9113 54.0058 21.9699C54.2541 22.0285 54.5079 22.1157 54.7671 22.2318V22.9092C54.4863 22.759 54.2228 22.6482 53.9765 22.5768C53.7293 22.5055 53.4897 22.4692 53.2575 22.4692C52.7414 22.4692 52.3138 22.628 51.9768 22.9452C51.6389 23.2617 51.4704 23.6598 51.4704 24.1381C51.4704 24.6098 51.6366 25.0049 51.9703 25.3211C52.303 25.6386 52.7219 25.7971 53.2261 25.7971C53.3773 25.7971 53.5296 25.7811 53.6818 25.7492C53.833 25.7162 53.9906 25.6672 54.1526 25.6011V24.7556H53.3202V24.1753H54.8049ZM55.96 26.3157V21.9506H57.257C57.7039 21.9506 58.0484 22.0551 58.2914 22.2628C58.5344 22.4704 58.6553 22.7654 58.6553 23.1455C58.6553 23.4331 58.5884 23.6641 58.4555 23.8388C58.3226 24.0134 58.1132 24.1444 57.826 24.2317C57.8993 24.2712 57.9695 24.3234 58.0343 24.3894C58.1002 24.4553 58.1845 24.5651 58.2881 24.7183L59.3637 26.3157H58.598L57.8389 25.171C57.6111 24.8259 57.4275 24.6055 57.2871 24.5096C57.1467 24.4138 56.9795 24.3658 56.7862 24.3658H56.5961V26.3157H55.96ZM56.5961 23.8419H57.1209C57.4156 23.8419 57.637 23.7856 57.7839 23.6738C57.9296 23.5609 58.0032 23.3895 58.0032 23.1582C58.0032 22.9208 57.934 22.7494 57.7947 22.6419C57.6553 22.5342 57.4308 22.4811 57.1209 22.4811H56.5961V23.8419ZM59.9942 26.3157V21.9506H60.6268V26.3157H59.9942ZM65.7083 25.2795V25.9845C65.4491 26.1177 65.1847 26.2188 64.9158 26.2891C64.6468 26.3583 64.3802 26.3935 64.1166 26.3935C63.8641 26.3935 63.6222 26.3605 63.3922 26.2954C63.1632 26.2295 62.9451 26.1326 62.741 26.0038C62.4118 25.7918 62.1559 25.5202 61.9734 25.1912C61.7908 24.8611 61.7001 24.5033 61.7001 24.1157C61.7001 23.8229 61.7605 23.5384 61.8805 23.2627C62.0004 22.988 62.1719 22.7461 62.3933 22.5407C62.6288 22.3201 62.8944 22.1552 63.187 22.0465C63.4807 21.9369 63.8047 21.8826 64.1611 21.8826C64.4105 21.8826 64.6566 21.9103 64.9017 21.9666C65.1467 22.0231 65.4028 22.1114 65.6705 22.2318V22.9092C65.3897 22.759 65.1264 22.6482 64.8801 22.5768C64.6329 22.5055 64.3931 22.4692 64.1611 22.4692C63.6448 22.4692 63.2172 22.628 62.8803 22.9452C62.5424 23.2617 62.374 23.6598 62.374 24.1381C62.374 24.6098 62.5402 25.0049 62.8718 25.3211C63.2043 25.6386 63.6211 25.7971 64.1233 25.7971C64.3802 25.7971 64.6414 25.7545 64.905 25.6693C65.1685 25.5841 65.4362 25.4542 65.7083 25.2795ZM66.7523 21.9506H67.382V24.4553C67.382 24.7343 67.3971 24.9324 67.4272 25.0485C67.4586 25.1646 67.5093 25.2658 67.5817 25.351C67.7124 25.5032 67.8667 25.6162 68.0459 25.6916C68.2253 25.7662 68.4293 25.8036 68.6571 25.8036C69.0405 25.8036 69.3493 25.7056 69.5836 25.5108C69.8178 25.3148 69.9345 25.0571 69.9345 24.7365V21.9506H70.564V24.7556C70.564 25.2423 70.3881 25.6363 70.0361 25.9399C69.6841 26.2424 69.2241 26.3935 68.6571 26.3935C68.3213 26.3935 68.0189 26.335 67.7491 26.2168C67.4791 26.0996 67.2513 25.9271 67.0655 25.7013C66.9521 25.5661 66.8711 25.4149 66.8237 25.2486C66.7762 25.0815 66.7523 24.8259 66.7523 24.4809V21.9506ZM71.8554 26.3157V21.9506H72.4817V25.7545H74.5884V26.3157H71.8554ZM76.2943 26.3157V22.5184H74.6682V21.9506H78.5501V22.5184H76.924V26.3157H76.2943ZM79.3856 21.9506H80.0153V24.4553C80.0153 24.7343 80.0304 24.9324 80.0606 25.0485C80.0919 25.1646 80.1426 25.2658 80.2151 25.351C80.3457 25.5032 80.5 25.6162 80.6793 25.6916C80.8585 25.7662 81.0626 25.8036 81.2905 25.8036C81.6738 25.8036 81.9826 25.7056 82.2169 25.5108C82.4512 25.3148 82.5679 25.0571 82.5679 24.7365V21.9506H83.1974V24.7556C83.1974 25.2423 83.0214 25.6363 82.6694 25.9399C82.3174 26.2424 81.8574 26.3935 81.2905 26.3935C80.9546 26.3935 80.6523 26.335 80.3823 26.2168C80.1125 26.0996 79.8845 25.9271 79.6988 25.7013C79.5854 25.5661 79.5044 25.4149 79.4571 25.2486C79.4095 25.0815 79.3856 24.8259 79.3856 24.4809V21.9506ZM84.4607 26.3157V21.9506H85.7574C86.2046 21.9506 86.5489 22.0551 86.7919 22.2628C87.0349 22.4704 87.1557 22.7654 87.1557 23.1455C87.1557 23.4331 87.0889 23.6641 86.956 23.8388C86.8232 24.0134 86.6137 24.1444 86.3265 24.2317C86.4 24.2712 86.4702 24.3234 86.535 24.3894C86.6008 24.4553 86.6851 24.5651 86.7886 24.7183L87.8641 26.3157H87.0986L86.3395 25.171C86.1117 24.8259 85.9281 24.6055 85.7877 24.5096C85.6474 24.4138 85.48 24.3658 85.2866 24.3658H85.0966V26.3157H84.4607ZM85.0966 23.8419H85.6214C85.9161 23.8419 86.1375 23.7856 86.2845 23.6738C86.4301 23.5609 86.5036 23.3895 86.5036 23.1582C86.5036 22.9208 86.4345 22.7494 86.2953 22.6419C86.156 22.5342 85.9313 22.4811 85.6214 22.4811H85.0966V23.8419ZM88.4753 26.3157V21.9506H91.1348V22.5055H89.1015V23.8292H91.0786V24.3937H89.1015V25.7545H91.2017V26.3157H88.4753Z" fill="#182751"/>
<path fill-rule="evenodd" clip-rule="evenodd" d="M57.1472 17.9114H71.349L72.2629 14.4099H63.1959L63.6495 12.6718H72.3204L73.0589 9.78042H64.4249L64.8774 8.04665H73.9239L74.8378 4.5451H60.6362L57.1472 17.9114Z" fill="#182751"/>
<path fill-rule="evenodd" clip-rule="evenodd" d="M40.5224 17.9114H34.7889L34.6776 16.3225H29.0132L27.9913 17.9114H21.9832L31.9514 4.5451H38.1441L40.5224 17.9114ZM34.4832 13.546L34.1213 8.37922L30.7987 13.546H34.4832Z" fill="#182751"/>
<path fill-rule="evenodd" clip-rule="evenodd" d="M49.7943 7.22965C51.5696 7.15253 52.4701 7.81578 52.5726 8.83838L57.7813 8.83665C57.8239 6.25068 56.4427 4.07012 49.8471 4.083C45.4148 4.11564 42.5851 6.39841 42.5539 8.51491C42.51 9.67459 42.842 11.1084 45.5238 11.9385C46.331 12.1882 48.8346 13.0126 49.9575 13.2698C50.7103 13.4232 51.3348 13.5637 51.3799 14.1611C51.2931 14.9563 50.3226 15.1124 49.2033 15.1609C46.6429 15.1399 46.3921 14.0895 46.2404 13.2426L40.9285 13.2096C40.9804 15.9997 42.3602 18.2402 48.6069 18.2192C53.8997 18.1972 56.9259 16.2259 56.9261 13.0731C56.9076 11.0593 55.607 10.6154 52.1022 9.80943C50.8112 9.4901 48.1177 9.23415 48.0877 8.30568C48.0229 7.5727 48.7141 7.27741 49.7943 7.22965Z" fill="#182751"/>
<path fill-rule="evenodd" clip-rule="evenodd" d="M19.2978 10.4692C19.4942 9.10017 18.7932 7.9958 17.811 7.91094C15.7461 7.73263 14.4154 8.71761 13.4891 10.0846C12.4182 11.6652 12.5034 14.4789 15.5271 14.6095C16.7649 14.6629 17.9794 13.8037 18.5427 12.9717H23.7968C22.9768 15.2081 22.159 16.4073 18.7825 17.7584C17.7403 18.1754 15.9917 18.1881 14.2584 18.1964C12.6306 18.2041 11.0272 17.7278 9.72666 16.9237C7.61823 15.6204 6.43347 12.3133 8.4299 8.80076C10.6611 4.87491 14.298 4.08439 17.8087 4.07391C20.9383 4.06446 23.08 5.2719 23.7912 6.39069C24.4369 7.40642 24.6076 9.00414 24.444 10.4692H19.2978Z" fill="#182751"/>
</g>
<defs>
<clipPath id="clip0_2040_475">
<rect width="98.9333" height="28" fill="white"/>
</clipPath>
</defs>
</svg>
