<svg width="15" height="24" viewBox="0 0 15 24" fill="none" xmlns="http://www.w3.org/2000/svg">
<path d="M0 3C0 2.20435 0.31607 1.44129 0.87868 0.87868C1.44129 0.31607 2.20435 0 3 0H12C12.7956 0 13.5587 0.31607 14.1213 0.87868C14.6839 1.44129 15 2.20435 15 3V21C15 21.7957 14.6839 22.5587 14.1213 23.1213C13.5587 23.6839 12.7956 24 12 24H3C2.20435 24 1.44129 23.6839 0.87868 23.1213C0.31607 22.5587 0 21.7957 0 21V3ZM3.15 3C2.95109 3 2.76032 3.07902 2.61967 3.21967C2.47902 3.36032 2.4 3.55109 2.4 3.75V6.75C2.4 6.94891 2.47902 7.13968 2.61967 7.28033C2.76032 7.42098 2.95109 7.5 3.15 7.5H11.85C12.0489 7.5 12.2397 7.42098 12.3803 7.28033C12.521 7.13968 12.6 6.94891 12.6 6.75V3.75C12.6 3.55109 12.521 3.36032 12.3803 3.21967C12.2397 3.07902 12.0489 3 11.85 3H3.15ZM3.15 9C2.95109 9 2.76032 9.07902 2.61967 9.21967C2.47902 9.36032 2.4 9.55109 2.4 9.75V17.25C2.4 17.4489 2.47902 17.6397 2.61967 17.7803C2.76032 17.921 2.95109 18 3.15 18H11.85C12.0489 18 12.2397 17.921 12.3803 17.7803C12.521 17.6397 12.6 17.4489 12.6 17.25V9.75C12.6 9.55109 12.521 9.36032 12.3803 9.21967C12.2397 9.07902 12.0489 9 11.85 9H3.15ZM5.4 20.25C5.4 20.4489 5.47902 20.6397 5.61967 20.7803C5.76032 20.921 5.95109 21 6.15 21H8.85C9.04891 21 9.23968 20.921 9.38033 20.7803C9.52098 20.6397 9.6 20.4489 9.6 20.25C9.6 20.0511 9.52098 19.8603 9.38033 19.7197C9.23968 19.579 9.04891 19.5 8.85 19.5H6.15C5.95109 19.5 5.76032 19.579 5.61967 19.7197C5.47902 19.8603 5.4 20.0511 5.4 20.25Z" fill="white"/>
</svg>
