<svg width="95" height="46" viewBox="0 0 95 46" fill="none" xmlns="http://www.w3.org/2000/svg">
<path d="M72.3805 11.9938C72.2095 11.6503 71.858 11.4404 71.478 11.4404H58.539L57.095 13.4346V13.4632H69.4545L55.727 32.0311L48.735 22.5945L64.125 1.61253C64.353 1.3072 64.3815 0.896909 64.2105 0.553412C64.0395 0.209915 63.688 0 63.308 0H31.5115C31.1315 0 30.78 0.219457 30.609 0.562954C30.438 0.906451 30.476 1.31674 30.704 1.62207L37.9335 11.3831H23.408C23.028 11.3831 22.6765 11.6026 22.5055 11.9461C22.3345 12.2896 22.3725 12.6999 22.6005 13.0052L38.475 34.3879C38.665 34.6455 38.969 34.7982 39.2825 34.7982C39.6055 34.7982 39.9 34.6455 40.09 34.3879L47.4905 24.3024L54.9195 34.3402C55.1095 34.5978 55.4135 34.7505 55.727 34.7505C56.0405 34.7505 56.3445 34.5978 56.5345 34.3402L72.2855 13.0624C72.5135 12.7476 72.542 12.3373 72.3805 11.9938ZM39.273 32.0788L25.4125 13.4059H39.425L46.227 22.5945L39.273 32.0788ZM47.481 20.8865L41.9235 13.4727H51.4615L52.9435 11.3736H40.4415L33.5255 2.02282H61.332L47.481 20.8865Z" fill="#182751"/>
<path d="M6.1465 45.9427V42.2883L4.218 45.9427H3.154L1.2445 42.2883V45.9427H0V41.1433H2.1185L3.724 44.3302L5.3105 41.1433H7.41V45.9427H6.1465ZM9.6805 45.9427H8.1985L10.64 41.1433H12.4355L14.82 45.9427H13.3475L12.939 45.0745H10.1175L9.6805 45.9427ZM10.5735 44.0726H12.445L11.5045 42.1738L10.5735 44.0726ZM16.853 44.4924C16.853 44.6833 16.91 44.8073 17.0335 44.8646C17.1665 44.9123 17.3375 44.9409 17.537 44.9409H18.164L19.057 44.9123C19.304 44.9123 19.4655 44.8836 19.5415 44.8168C19.6175 44.7501 19.6555 44.6451 19.6555 44.502C19.6555 44.3684 19.608 44.273 19.5225 44.1966C19.437 44.1203 19.2755 44.0821 19.038 44.0821H18.8195L16.6345 44.0249C16.226 44.0249 15.941 43.9104 15.7605 43.6814C15.599 43.4429 15.5135 43.0994 15.5135 42.6318C15.5135 42.2406 15.561 41.9353 15.675 41.7158C15.7795 41.4964 15.9695 41.3437 16.2545 41.2578C16.4065 41.2101 16.5775 41.1815 16.758 41.1529C16.948 41.1242 17.1475 41.1147 17.3565 41.1147L18.278 41.0956H19.209C19.399 41.0956 19.57 41.1052 19.7125 41.1147C19.855 41.1338 19.988 41.1529 20.1115 41.2006C20.3395 41.2578 20.4915 41.3723 20.5865 41.5536C20.6815 41.7254 20.7385 41.8876 20.767 42.0307C20.7955 42.1738 20.8145 42.3742 20.8145 42.6127H19.513C19.513 42.4505 19.4655 42.336 19.38 42.2597C19.2945 42.1929 19.1615 42.1547 19 42.1547L18.354 42.1452L17.3375 42.1834C17.2045 42.1834 17.1 42.212 16.9955 42.2692C16.9005 42.3265 16.853 42.4219 16.853 42.5555C16.853 42.7368 16.91 42.8513 17.0145 42.9181C17.062 42.9467 17.1285 42.9658 17.2045 42.9753C17.2805 42.9944 17.366 42.9944 17.4705 42.9944H19.38C19.95 42.9944 20.3585 43.0898 20.6055 43.2902C20.862 43.481 20.995 43.8627 20.995 44.4543C20.995 45.0268 20.881 45.4084 20.653 45.6183C20.425 45.8283 20.045 45.9332 19.513 45.9332L17.8125 45.9809L16.9195 45.9618C16.4445 45.9618 16.093 45.876 15.8745 45.7138C15.656 45.5515 15.542 45.208 15.542 44.7023V44.4161H16.8435L16.853 44.4924ZM23.294 44.4924C23.294 44.6833 23.351 44.8073 23.4745 44.8646C23.6075 44.9123 23.7785 44.9409 23.978 44.9409H24.605L25.498 44.9123C25.745 44.9123 25.9065 44.8836 25.9825 44.8168C26.0585 44.7501 26.0965 44.6451 26.0965 44.502C26.0965 44.3684 26.049 44.273 25.9635 44.1966C25.878 44.1203 25.7165 44.0821 25.479 44.0821H25.2605L23.0755 44.0249C22.667 44.0249 22.382 43.9104 22.2015 43.6814C22.04 43.4429 21.9545 43.0994 21.9545 42.6318C21.9545 42.2406 22.002 41.9353 22.116 41.7158C22.2205 41.4964 22.4105 41.3437 22.6955 41.2578C22.8475 41.2101 23.0185 41.1815 23.199 41.1529C23.389 41.1242 23.5885 41.1147 23.7975 41.1147L24.719 41.0956H25.65C25.84 41.0956 26.011 41.1052 26.1535 41.1147C26.296 41.1338 26.429 41.1529 26.5525 41.2006C26.7805 41.2578 26.9325 41.3723 27.0275 41.5536C27.1225 41.7349 27.1795 41.8876 27.208 42.0307C27.2365 42.1738 27.2555 42.3742 27.2555 42.6127H25.954C25.954 42.4505 25.9065 42.336 25.821 42.2597C25.7355 42.1929 25.6025 42.1547 25.441 42.1547L24.795 42.1452L23.7785 42.1834C23.6455 42.1834 23.541 42.212 23.4365 42.2692C23.3415 42.3265 23.294 42.4219 23.294 42.5555C23.294 42.7368 23.351 42.8513 23.4555 42.9181C23.503 42.9467 23.5695 42.9658 23.6455 42.9753C23.7215 42.9944 23.807 42.9944 23.9115 42.9944H25.821C26.391 42.9944 26.7995 43.0898 27.0465 43.2902C27.303 43.481 27.436 43.8627 27.436 44.4543C27.436 45.0268 27.322 45.4084 27.094 45.6183C26.866 45.8283 26.486 45.9332 25.954 45.9332L24.2535 45.9809L23.3605 45.9618C22.8855 45.9618 22.534 45.876 22.3155 45.7138C22.097 45.5515 21.983 45.208 21.983 44.7023V44.4161H23.2845L23.294 44.4924ZM33.3545 41.1338V42.2311H29.811V43.0517H33.117V44.0058H29.811V44.855H33.3545V45.9427H28.481V41.1338H33.3545ZM40.1755 41.1338L37.715 44.2634V45.9332H36.385V44.2634L33.8865 41.1338H35.568L37.05 43.1184L38.5225 41.1338C38.513 41.1338 40.1755 41.1338 40.1755 41.1338ZM47.9845 41.1338V42.2311H44.612V43.0517H47.9845V44.0058H44.612V45.9427H43.2535V41.1338H47.9845ZM53.7795 41.1338V42.2311H50.16V43.0517H53.5325V44.0058H50.16V44.855H53.7795V45.9427H48.811V41.1338H53.7795ZM58.9285 41.1338C59.47 41.1338 59.85 41.2483 60.0685 41.4773C60.1825 41.5918 60.268 41.7349 60.325 41.9353C60.382 42.1261 60.4105 42.3742 60.4105 42.67V42.7559C60.4105 42.9562 60.401 43.128 60.382 43.2616C60.363 43.3951 60.3155 43.5192 60.249 43.6337C60.1825 43.7482 60.1065 43.8341 60.0115 43.8913C59.945 43.9295 59.7645 44.0058 59.451 44.1203C59.755 44.168 59.983 44.2539 60.135 44.3779C60.287 44.502 60.363 44.7214 60.363 45.0458V45.9618H58.995V45.5038C58.995 45.2748 58.976 45.0936 58.938 44.9504C58.9 44.8073 58.7195 44.7405 58.406 44.7405H56.145V45.9618H54.7865V41.1529H58.9285V41.1338ZM58.368 43.5478C58.672 43.5478 58.8715 43.5096 58.938 43.4238C59.014 43.3379 59.052 43.1566 59.052 42.8704C59.052 42.7082 59.033 42.5841 59.0045 42.5173C58.976 42.4505 58.919 42.3933 58.824 42.3551L58.6055 42.3074H56.145V43.5574H58.368V43.5478ZM67.2695 43.2329L67.279 44.2444C67.279 44.8455 67.184 45.2844 66.994 45.5611C66.804 45.8473 66.4335 45.9905 65.892 45.9905H63.6785C63.175 45.9905 62.7665 45.9523 62.472 45.8855C62.1775 45.8092 61.9305 45.647 61.75 45.3893C61.5695 45.1317 61.4745 44.7405 61.4745 44.2157L61.4555 43.6146C61.4555 42.6795 61.56 42.0307 61.7785 41.6681C61.9875 41.3055 62.491 41.1242 63.289 41.1242L64.3055 41.0861H64.676L65.588 41.1242C66.177 41.1242 66.6045 41.2292 66.8705 41.4487C67.1365 41.6681 67.2695 42.0784 67.2695 42.6986V42.7845H65.949C65.949 42.67 65.93 42.5746 65.9015 42.4982C65.873 42.4219 65.816 42.3647 65.7495 42.336C65.6735 42.3074 65.588 42.2883 65.474 42.2692H65.1415L63.5645 42.2406C63.2415 42.2406 63.042 42.3265 62.9565 42.4982C62.871 42.67 62.8235 42.9562 62.8235 43.3474V43.7959C62.8235 44.1299 62.8615 44.3779 62.947 44.5401C63.0325 44.7023 63.1465 44.7978 63.3175 44.8264L63.6785 44.8646H65.208C65.436 44.8646 65.6165 44.8264 65.7495 44.7405C65.8825 44.6546 65.9395 44.502 65.9395 44.273V44.1298H64.2105V43.2329H67.2695ZM74.062 44.1585C74.062 44.9027 73.8815 45.3893 73.511 45.6374C73.1405 45.876 72.5895 46 71.839 46H70.7275C70.4235 46 70.1575 45.9905 69.9485 45.9809C69.7395 45.9618 69.54 45.9428 69.3785 45.9046C69.0745 45.8378 68.818 45.6756 68.628 45.3893C68.438 45.1126 68.3335 44.6833 68.3335 44.1012V41.1529H69.692V43.6719C69.692 44.1394 69.749 44.4543 69.8535 44.6069C69.958 44.7596 70.2335 44.8359 70.661 44.8359H71.8295C72.2 44.8359 72.4375 44.7691 72.542 44.6451C72.6465 44.5211 72.7035 44.2634 72.7035 43.8818V41.1529H74.062V44.1585ZM76.494 44.4924C76.494 44.6833 76.551 44.8073 76.6745 44.8646C76.8075 44.9123 76.9785 44.9409 77.1875 44.9409H77.8335L78.7455 44.9123C78.9925 44.9123 79.1635 44.8836 79.23 44.8168C79.306 44.7501 79.344 44.6451 79.344 44.502C79.344 44.3684 79.2965 44.273 79.211 44.1966C79.1255 44.1203 78.9545 44.0821 78.7075 44.0821H78.489L76.2565 44.0249C75.8385 44.0249 75.544 43.9104 75.3635 43.6814C75.1925 43.4429 75.107 43.0994 75.107 42.6318C75.107 42.2406 75.164 41.9353 75.2685 41.7158C75.373 41.4964 75.5725 41.3437 75.867 41.2578C76.0285 41.2101 76.19 41.1815 76.38 41.1529C76.57 41.1242 76.7695 41.1147 76.9975 41.1147L77.938 41.0956H78.888C79.078 41.0956 79.2585 41.1052 79.401 41.1147C79.5435 41.1338 79.6765 41.1529 79.8095 41.2006C80.0375 41.2578 80.199 41.3723 80.294 41.5536C80.389 41.7349 80.4555 41.8876 80.484 42.0307C80.5125 42.1738 80.5315 42.3742 80.5315 42.6127H79.2015C79.2015 42.4505 79.154 42.336 79.0685 42.2597C78.9735 42.1929 78.85 42.1547 78.679 42.1547L78.0235 42.1452L76.988 42.1834C76.855 42.1834 76.741 42.212 76.646 42.2692C76.551 42.3265 76.494 42.4219 76.494 42.5555C76.494 42.7368 76.551 42.8513 76.6555 42.9181C76.7125 42.9467 76.7695 42.9658 76.855 42.9753C76.931 42.9944 77.026 42.9944 77.1305 42.9944H79.078C79.6575 42.9944 80.0755 43.0898 80.3225 43.2902C80.5885 43.481 80.712 43.8627 80.712 44.4543C80.712 45.0268 80.598 45.4084 80.3605 45.6183C80.123 45.8283 79.743 45.9332 79.2015 45.9332L77.463 45.9809L76.551 45.9618C76.0665 45.9618 75.715 45.876 75.487 45.7138C75.259 45.5515 75.145 45.208 75.145 44.7023V44.4161H76.475L76.494 44.4924ZM84.664 41.0861L85.747 41.1052C86.5355 41.1052 87.0865 41.2483 87.3715 41.525C87.666 41.8112 87.8085 42.3742 87.8085 43.2234V43.4524C87.8085 44.4447 87.6945 45.1126 87.457 45.4466C87.229 45.7901 86.64 45.9523 85.6995 45.9523L84.6735 45.9809H84.246L83.3245 45.9523C82.8115 45.9523 82.4125 45.8283 82.1275 45.5706C81.8425 45.313 81.7 44.9123 81.7 44.3493L81.681 43.4619C81.681 42.4887 81.795 41.8494 82.023 41.5441C82.251 41.2387 82.802 41.0956 83.676 41.0956L84.664 41.0861ZM83.9325 44.8168H85.3575C85.7375 44.8168 86.013 44.7691 86.184 44.6833C86.355 44.5974 86.4405 44.3779 86.4405 44.0154L86.4595 43.3665C86.4595 43.1471 86.45 42.9562 86.4215 42.8036C86.393 42.6414 86.3455 42.5269 86.279 42.4601C86.203 42.3837 86.0985 42.336 85.9465 42.3169C85.804 42.2883 85.69 42.2788 85.6235 42.2788C85.557 42.2788 85.5 42.2788 85.462 42.2788H84.113C83.7995 42.2788 83.562 42.3074 83.41 42.3837C83.2485 42.4505 83.1535 42.5937 83.1345 42.8227L83.106 43.3665V43.6909C83.106 44.1299 83.1535 44.4352 83.2485 44.5878C83.315 44.7405 83.543 44.8168 83.9325 44.8168ZM92.8435 45.9427L90.155 42.336V45.9427H88.882V41.1338H91.0385L93.727 44.7405V41.1338H95V45.9427H92.8435Z" fill="#182751"/>
</svg>
