<svg width="85" height="32" viewBox="0 0 85 32" fill="none" xmlns="http://www.w3.org/2000/svg">
<path d="M-0.00012207 11.2688V15.8885L12.4624 14.5176V9.51747L-0.00012207 11.2688ZM3.97688 16.1693V31.9997H8.53953V15.7032L3.97688 16.1693ZM14.1455 9.28075V31.9997H18.9533V8.60504L14.1455 9.28075ZM19.849 8.47881V13.7054L26.7914 12.9416V7.50338L19.849 8.47881ZM19.849 17.5952V22.9165L24.4062 22.668V17.2028L19.849 17.5952ZM19.849 26.7523V31.9997H26.7914V26.5429L19.849 26.7523ZM44.7452 4.97205V31.9997H51.0479V4.08644L44.7452 4.97205ZM52.2248 3.92083V10.1378L61.4097 9.12794V2.6297L52.2248 3.92083ZM52.2248 14.8134V21.1456L58.2449 20.8168V14.2979L52.2248 14.8134ZM52.2248 25.7739V32H61.4097V25.4963L52.2248 25.7739ZM28.6283 7.24476V32H34.1049V6.47505L28.6283 7.24476ZM35.127 26.2916V31.9997H43.0766V26.0515L35.127 26.2916ZM82.0016 2.32408C80.0097 0.442128 77.0891 -0.329796 73.8946 0.129126V7.02453C75.1882 6.95267 76.2364 7.43276 76.7035 8.39933C77.441 9.92324 76.6801 12.2097 74.8853 14.3282C72.115 17.5972 64.7484 24.2884 64.7484 24.2884L75.3235 23.9407C81.7851 17.628 84.1055 13.7962 84.5219 9.01376C84.7407 6.48366 83.8223 4.04559 82.0016 2.32408ZM84.8945 32V24.785L63.4449 25.4311M63.4449 25.4311L63.4471 31.9997L84.8945 32M72.6615 0.283659C66.4303 1.61097 63.3704 6.19527 63.7235 13.6756L70.3674 13.086C70.0647 8.85997 71.3573 7.85748 72.6647 7.30628L72.6615 0.283659Z" fill="#1A2953"/>
</svg>
