<svg width="56" height="56" viewBox="0 0 56 56" fill="none" xmlns="http://www.w3.org/2000/svg">
<circle cx="28" cy="28" r="28" fill="#EDF1F8"/>
<path d="M38 28C38.0006 28.2612 37.9373 28.5181 37.8162 28.7457C37.6951 28.9733 37.5204 29.1639 37.3091 29.299L24.2109 37.7736C23.9901 37.9166 23.7372 37.9947 23.4783 37.9997C23.2194 38.0048 22.9639 37.9367 22.7382 37.8024C22.5146 37.6702 22.3284 37.4775 22.1987 37.2439C22.069 37.0104 22.0004 36.7445 22 36.4736V19.5264C22.0004 19.2555 22.069 18.9896 22.1987 18.7561C22.3284 18.5225 22.5146 18.3298 22.7382 18.1976C22.9639 18.0633 23.2194 17.9952 23.4783 18.0003C23.7372 18.0053 23.9901 18.0834 24.2109 18.2264L37.3091 26.701C37.5204 26.8361 37.6951 27.0267 37.8162 27.2543C37.9373 27.4819 38.0006 27.7388 38 28Z" fill="#1C2C5A"/>
</svg>
