<svg width="108" height="42" viewBox="0 0 108 42" fill="none" xmlns="http://www.w3.org/2000/svg">
<path fill-rule="evenodd" clip-rule="evenodd" d="M40.1103 27.5465C36.2904 38.2898 24.5025 43.9301 13.7592 40.1102C3.01579 36.2904 -2.62447 24.5025 1.19539 13.7592C5.01525 3.01582 16.8031 -2.62444 27.5465 1.19542C38.2899 4.98544 43.9003 16.8031 40.1103 27.5465ZM39.3045 27.2481C42.9453 16.9523 37.5438 5.64198 27.2481 1.97133C16.9523 -1.66947 5.64195 3.73205 1.9713 14.0278C-1.66951 24.3235 3.73202 35.6339 14.0277 39.3045C24.3533 42.9453 35.6637 37.5736 39.3045 27.2481ZM29.6653 6.776C29.158 5.19434 28.3522 4.06032 27.3376 3.46346C27.1585 4.00063 26.8899 4.83622 26.502 5.88072C27.3077 6.1493 28.5015 6.50741 29.6653 6.776ZM30.292 10.0885C30.2323 9.37231 30.1428 8.68593 29.9936 8.05923C28.5015 7.76081 26.9795 7.28332 26.1439 7.01474L25.7261 8.26813C27.3077 8.83514 28.8596 9.46184 30.292 10.0885ZM29.9041 17.0419C30.292 14.923 30.4412 12.9534 30.3815 11.1927C28.8894 10.5063 27.2481 9.81995 25.4277 9.16341C24.801 11.0137 24.0847 13.1026 23.3685 15.1618C25.7559 15.9974 27.9344 16.5942 29.9041 17.0419ZM26.8303 26.7109C27.3077 25.6366 27.7852 24.5025 28.203 23.3088C28.6805 21.9361 29.0983 20.5931 29.3967 19.3099C27.4868 18.3251 25.3083 17.3701 22.8612 16.5047C22.2643 18.1759 21.6973 19.8471 21.19 21.3094C20.9214 22.0853 20.623 22.9209 20.2947 23.7863C22.6821 24.6517 24.8905 25.6366 26.8303 26.7109ZM26.3826 27.6957L26.4125 27.636C24.6219 26.6214 22.4732 25.6067 19.9963 24.6816L19.5785 25.8455C21.9957 26.681 24.2936 27.2779 26.3826 27.6957ZM21.8167 34.5894C23.1894 33.0972 24.5324 31.1873 25.7559 28.9192C23.6072 28.5015 21.369 27.9046 19.101 27.1287C18.3251 29.2475 17.5492 31.3663 16.8628 33.2166C18.6235 33.8134 20.2947 34.2611 21.8167 34.5894ZM18.3848 37.4244C19.1607 37.0066 19.9366 36.4396 20.7125 35.6935C19.3099 35.3653 17.8775 34.9773 16.4152 34.47L15.7586 36.2307C16.4152 36.5291 17.4 36.9469 18.3848 37.4244ZM15.0424 38.2003C15.6989 38.3197 16.3853 38.2302 17.1314 37.9914C16.5345 37.6632 15.878 37.3647 15.4304 37.1857L15.0424 38.2003ZM12.4759 36.3501C12.8937 37.0066 13.4011 37.4841 13.9681 37.8124L14.3262 36.7679C13.8188 36.6485 13.1623 36.4694 12.4759 36.3501ZM11.1032 32.3213C11.2524 33.3956 11.521 34.3506 11.8492 35.1564C12.9236 35.3653 13.9382 35.6637 14.5948 35.8726L15.1916 34.082C13.789 33.5449 12.4162 32.948 11.1032 32.3213ZM11.4613 23.846C10.9838 26.3826 10.8346 28.7103 10.9539 30.7396C12.3566 31.4559 13.9382 32.1423 15.6691 32.769C16.2958 30.9187 17.0419 28.77 17.7879 26.6214C15.5199 25.8156 13.4011 24.8606 11.4613 23.846ZM11.7597 22.4434L11.7299 22.5031C13.6099 23.4879 15.7885 24.4727 18.1759 25.368L18.5937 24.2041C16.1167 23.3685 13.789 22.8015 11.7597 22.4434ZM14.6544 14.0874C14.0874 15.311 13.5503 16.5942 13.0728 17.967C12.655 19.1607 12.2969 20.3246 11.9984 21.4586C14.177 21.8465 16.5644 22.4732 18.9219 23.279C19.2204 22.4135 19.5188 21.578 19.7874 20.802C20.2947 19.3398 20.8916 17.6984 21.4884 16.0272C19.0712 15.1618 16.7434 14.5351 14.6544 14.0874ZM19.0413 7.16395C17.9073 8.50687 16.7733 10.1184 15.7288 11.9985C17.5193 12.8937 19.6382 13.789 21.9957 14.6545C22.7418 12.5953 23.4879 10.5063 24.1743 8.68593C22.324 8.08907 20.623 7.58175 19.0413 7.16395ZM21.2795 4.9556C20.7722 5.37339 20.2649 5.82103 19.7575 6.3582C21.2795 6.776 22.891 7.28332 24.4727 7.82049L24.9203 6.5671C24.1146 6.26867 22.6224 5.67182 21.2795 4.9556ZM26.2334 3.10535C25.0695 2.92629 23.7266 3.31425 22.324 4.20953C23.3983 4.7467 24.5622 5.22418 25.3381 5.52261C25.7261 4.44827 26.0543 3.61268 26.2334 3.10535ZM12.6848 4.98544C14.0874 3.94095 15.6094 3.07551 17.1612 2.5085C14.9529 2.92629 12.834 3.76189 10.9241 4.92575C11.4613 4.92575 12.0581 4.92575 12.6848 4.98544ZM9.5215 7.9697C10.1184 7.25348 10.7749 6.62678 11.4314 6.02993C9.99898 6.02993 9.1037 6.29852 8.95449 6.74616C8.86496 7.01474 9.04402 7.46238 9.5215 7.9697ZM6.62676 12.267C7.25346 11.0435 7.96968 9.90947 8.77544 8.89483C8.29795 8.35766 7.96968 7.85033 7.79062 7.37285C6.17912 8.92467 4.8362 10.8048 3.85139 12.9236C4.59746 12.5655 5.52258 12.3267 6.62676 12.267ZM4.68699 17.4597C4.86604 16.7136 5.10478 15.9675 5.34353 15.2513C5.55242 14.6246 5.79116 14.0278 6.05975 13.4608C4.68699 13.6696 3.82155 14.1173 3.58281 14.8037C3.34407 15.4304 3.73202 16.3555 4.68699 17.4597ZM4.06029 21.5183C4.11998 20.623 4.2095 19.7576 4.38856 18.8623C3.58281 18.0267 2.98595 17.2209 2.65768 16.4749C2.15036 18.6832 2.06083 20.8916 2.32941 23.0402C2.62784 22.3539 3.22469 21.8465 4.06029 21.5183ZM4.23935 25.9648C4.09013 24.9502 4.0006 23.8758 4.0006 22.8313C3.67234 23.0402 3.43359 23.279 3.34407 23.5774C3.13517 24.1743 3.46344 25.0099 4.23935 25.9648ZM6.56707 32.6197C5.76132 31.247 5.13463 29.7548 4.71683 28.1732C4.06029 27.5763 3.52312 27.0093 3.10532 26.4125C3.85139 28.6805 5.01525 30.7993 6.56707 32.6197ZM28.2926 36.4993C26.9496 37.4841 25.4873 38.26 23.9952 38.7972C26.3826 38.3495 28.6507 37.4543 30.68 36.1412C29.9936 36.3501 29.1878 36.4694 28.2926 36.4993ZM32.2019 32.7988C31.5156 33.6344 30.7993 34.4103 30.0533 35.0967C31.247 34.8579 32.0229 34.4103 32.2616 33.7836C32.3512 33.4852 32.3213 33.1569 32.2019 32.7988ZM34.4103 29.4863C33.9627 30.292 33.4852 31.0381 32.9779 31.7543C33.4255 32.5302 33.5747 33.3061 33.3658 34.0223C34.9475 32.5302 36.2606 30.7396 37.2752 28.6805C36.5291 29.0983 35.5443 29.3669 34.4103 29.4863ZM36.4993 24.2041C36.3501 24.8308 36.1412 25.4575 35.9323 26.0543C35.6637 26.8004 35.3653 27.5166 35.0668 28.203C36.4694 27.9643 37.3647 27.4868 37.6035 26.8004C37.8422 26.1439 37.4543 25.2188 36.4993 24.2041ZM37.2752 18.922C37.2454 20.235 37.0961 21.578 36.8276 22.9507C37.6333 23.7266 38.2302 24.4727 38.5584 25.2188C39.1553 22.9209 39.2747 20.5931 38.9762 18.3251C38.5584 18.6235 37.9914 18.8026 37.2752 18.922ZM37.0066 15.0723C37.1558 15.9675 37.2454 16.8628 37.2752 17.7879C37.9616 17.6686 38.3794 17.4597 38.4988 17.1612C38.6181 16.7136 38.1108 15.9675 37.0066 15.0723ZM34.7386 8.68593C35.604 10.1482 36.2606 11.7597 36.6783 13.4906C37.2155 13.8487 37.693 14.2367 38.1108 14.5948C37.3349 12.4461 36.2009 10.4466 34.7386 8.68593ZM32.3512 7.16395C31.7543 6.41788 31.0679 5.76135 30.3219 5.19434C30.5904 5.76135 30.8292 6.38804 31.0381 7.04458C31.5156 7.13411 31.9632 7.16395 32.3512 7.16395ZM35.2161 12.5655C34.7386 10.9838 34.0223 9.52152 33.1569 8.23829C32.6496 8.32782 32.0229 8.32782 31.3067 8.23829C31.4559 9.0142 31.5454 9.81995 31.6051 10.6854C32.948 11.3121 34.1417 11.9388 35.2161 12.5655ZM36.0517 17.8775C36.0218 16.5644 35.8726 15.2812 35.604 14.0576C34.5595 13.3712 33.2464 12.5953 31.6648 11.8194C31.6946 13.5503 31.5454 15.4005 31.2171 17.3403C33.1868 17.6984 34.8281 17.8775 36.0517 17.8775ZM35.7234 22.0256C35.9024 21.0109 35.992 20.0261 36.0517 19.0413C34.649 19.101 32.9182 18.922 31.0082 18.5638C30.9784 18.6832 30.9486 18.8324 30.9187 18.9518C32.7988 19.9664 34.4401 20.9811 35.7234 22.0256ZM33.6045 28.3522C34.0522 27.4868 34.4401 26.5915 34.7684 25.6366C35.0668 24.8308 35.3056 24.0251 35.4846 23.1895C34.3208 22.1748 32.6794 21.0706 30.68 19.9664C30.3815 21.2198 29.9936 22.5031 29.5459 23.7565C29.0983 25.0099 28.591 26.2334 28.0538 27.3973C28.4418 27.636 28.8297 27.9046 29.2177 28.1433C30.8889 28.3821 32.3512 28.4418 33.6045 28.3522ZM32.2019 30.7098C32.4407 30.3517 32.6794 29.9637 32.9182 29.6056C32.3213 29.6355 31.7245 29.6056 31.0679 29.5758C31.5156 29.9637 31.9035 30.3517 32.2019 30.7098ZM27.9941 35.2757C29.2774 34.2611 30.5009 33.0375 31.5454 31.6349C31.0082 30.9485 30.2025 30.2025 29.158 29.3967C28.5015 29.337 27.8449 29.2475 27.1585 29.1281C25.9947 31.3067 24.6517 33.2464 23.2491 34.8281C25.0695 35.1862 26.6512 35.3056 27.9941 35.2757ZM20.2947 38.648C22.324 38.3794 24.3533 37.6632 26.2334 36.5291C24.98 36.4694 23.6072 36.2904 22.2046 36.0218C21.3392 36.8574 20.4439 37.5736 19.5785 38.1108C19.8172 38.2898 20.0858 38.4689 20.2947 38.648ZM6.32833 29.4564C7.0744 31.5454 8.17858 33.3658 9.61103 34.8579C9.90946 34.8579 10.2079 34.8878 10.5063 34.9176C10.1482 33.9328 9.90946 32.8286 9.76024 31.6051C8.50685 30.9187 7.34298 30.2025 6.32833 29.4564ZM5.22415 22.3539C5.16447 24.1146 5.34353 25.8156 5.70164 27.4271C6.71629 28.2926 8.02937 29.1878 9.64087 30.0831C9.55134 27.9643 9.7304 25.6366 10.2079 23.1895C9.61103 22.8612 9.04402 22.5031 8.47701 22.145C7.16393 22.0554 6.08959 22.145 5.22415 22.3539ZM5.4629 19.8769C5.40321 20.3246 5.34353 20.7424 5.31368 21.19C5.79116 21.1005 6.32833 21.0408 6.92519 21.0408C6.38802 20.6528 5.91054 20.2649 5.4629 19.8769ZM7.4922 13.3115C7.13409 14.0576 6.80582 14.8335 6.50739 15.6393C6.17912 16.5942 5.91054 17.5492 5.70164 18.4743C6.62676 19.3099 7.82047 20.2052 9.25292 21.0706C9.70056 21.1005 10.1482 21.1602 10.6257 21.2198C10.9241 19.9664 11.3121 18.7131 11.7597 17.4597C12.2073 16.1764 12.7147 14.9529 13.2817 13.789C11.0136 13.4011 9.04402 13.2519 7.4922 13.3115ZM9.67071 9.73042C9.07386 10.5063 8.53669 11.3419 8.05921 12.2372C9.70056 12.267 11.6403 12.4759 13.7293 12.8937C13.789 12.7744 13.8487 12.655 13.9084 12.5356C12.2073 11.5807 10.7451 10.6257 9.67071 9.73042ZM13.1623 6.08962C12.1775 6.86553 11.2524 7.7608 10.4168 8.77546C11.3717 9.55136 12.7445 10.4466 14.5052 11.3718C15.4602 9.67074 16.5345 8.11892 17.6387 6.80584C15.9078 6.44773 14.4157 6.20899 13.1623 6.08962ZM18.713 3.13519C17.2209 3.58283 15.7885 4.26921 14.4157 5.19434C15.6393 5.37339 16.9822 5.64198 18.3848 6.00009C18.9518 5.37339 19.5486 4.80638 20.1455 4.29906C19.5486 3.9111 19.0413 3.52315 18.713 3.13519ZM22.8313 2.53834C21.8764 2.53834 20.9512 2.62787 20.0261 2.80692C20.3246 3.04567 20.7125 3.28441 21.1303 3.55299C21.6973 3.13519 22.2643 2.80692 22.8313 2.53834Z" fill="#1A2953"/>
<path fill-rule="evenodd" clip-rule="evenodd" d="M91.6785 22.1748H102.273L98.5721 16.1466C98.1842 15.5497 97.856 15.3408 97.1099 15.3408H96.8413C96.0654 15.3408 95.7073 15.6094 95.379 16.1466L91.6785 22.1748ZM97.6172 13.4309C98.8706 13.4309 99.4376 13.8189 99.9748 14.6545L107.764 27.636H105.466L103.287 23.9952H90.634L88.5152 27.636H86.2173L94.0062 14.6545C94.5435 13.8189 94.9314 13.4309 96.3041 13.4309H97.6172Z" fill="#1A2953"/>
<path d="M54.9121 14.9827C54.8823 14.9827 54.8226 15.0126 54.7928 15.1021C54.7928 15.1021 54.0168 17.1612 50.8237 25.6664C50.3761 26.8601 49.3912 27.5763 48.1378 27.5763H47.2426C46.2876 27.5763 45.0641 26.9198 44.7059 25.4575L41.9604 13.222H44.1389L46.5562 24.7711C46.6457 25.2188 47.0038 25.6366 47.3918 25.6366C47.6305 25.6366 47.7499 25.6366 47.9588 25.6366C48.4661 25.6366 48.8541 25.2784 49.063 24.7711C51.9577 16.9523 52.853 14.4456 53.0321 14.0278C53.2708 13.4309 53.808 13.222 54.1661 13.222H55.6284C55.9566 13.222 56.4938 13.4309 56.7624 14.0278C56.9415 14.4754 58.2545 17.9968 60.7315 24.7711C60.9105 25.2784 61.3283 25.6366 61.8356 25.6366C62.0445 25.6366 62.1639 25.6366 62.4027 25.6366C62.7906 25.6366 63.1487 25.2486 63.2383 24.7711L65.6555 13.222H67.834L65.0885 25.4575C64.7304 26.9198 63.477 27.5763 62.5519 27.5763H61.6566C60.433 27.5763 59.4483 26.8899 58.9707 25.6664C55.509 16.5345 55.0017 15.1021 55.0017 15.1021C55.0017 15.0126 54.942 14.9827 54.9121 14.9827Z" fill="#1A2953"/>
<path d="M71.8627 13.222H86.3961V15.1618H71.8627C70.4601 15.1618 69.8633 15.6393 69.8633 16.5345V18.0267C69.8633 18.8921 70.4302 19.3696 71.8627 19.3696H82.8747C85.471 19.3696 86.8437 20.4141 86.8437 22.5329V24.413C86.8437 26.5318 85.471 27.6062 82.8747 27.6062H68.3413V25.6664H82.8747C84.2474 25.6664 84.8443 25.1591 84.8443 24.234V22.7418C84.8443 21.8167 84.2474 21.3094 82.8747 21.3094H71.8627C69.2365 21.3094 67.8638 20.3544 67.8638 18.4146V16.3853C67.8638 14.2367 69.2365 13.222 71.8627 13.222Z" fill="#1A2953"/>
</svg>
