<svg width="22" height="24" viewBox="0 0 22 24" fill="none" xmlns="http://www.w3.org/2000/svg">
<path fill-rule="evenodd" clip-rule="evenodd" d="M20.2597 6.4V4.8096C20.2597 3.92 19.5584 3.2 18.692 3.2H15.5844V4.8H14.026V3.2H7.79221V4.8H6.23377V3.2H3.12623C2.25974 3.2 1.55844 3.92 1.55844 4.8096V20.7904C1.55844 21.68 2.25974 22.4 3.12623 22.4H18.692C19.5584 22.4 20.2597 21.68 20.2597 20.7904V8H1.55844V6.4H20.2597ZM15.5844 1.6H18.692C20.4187 1.6 21.8182 3.0352 21.8182 4.8096V20.7904C21.8184 21.212 21.7377 21.6294 21.5806 22.0189C21.4236 22.4084 21.1933 22.7623 20.903 23.0604C20.6126 23.3585 20.2679 23.5949 19.8886 23.7561C19.5092 23.9173 19.1026 24.0002 18.692 24H3.12623C2.71563 24.0002 2.30902 23.9173 1.92963 23.7561C1.55025 23.5949 1.20553 23.3585 0.915196 23.0604C0.624858 22.7623 0.394589 22.4084 0.237554 22.0189C0.0805182 21.6294 -0.000204451 21.212 3.88868e-07 20.7904V4.8096C3.88868e-07 3.0368 1.39792 1.6 3.12623 1.6H6.23377V0H7.79221V1.6H14.026V0H15.5844V1.6ZM4.67533 11.2H7.79221V12.8H4.67533V11.2ZM9.35065 11.2H12.4675V12.8H9.35065V11.2ZM14.026 11.2H17.1429V12.8H14.026V11.2ZM4.67533 14.4H7.79221V16H4.67533V14.4ZM9.35065 14.4H12.4675V16H9.35065V14.4ZM14.026 14.4H17.1429V16H14.026V14.4ZM4.67533 17.6H7.79221V19.2H4.67533V17.6ZM9.35065 17.6H12.4675V19.2H9.35065V17.6ZM14.026 17.6H17.1429V19.2H14.026V17.6Z" fill="#EA3652"/>
</svg>
