<svg width="114" height="54" viewBox="0 0 114 54" fill="none" xmlns="http://www.w3.org/2000/svg">
<path d="M28.9415 0.542049C31.5082 0.719063 34.1634 5.94095 36.7301 16.4732C39.2968 27.0055 43.0141 29.5722 46.7313 29.5722C56.4671 29.5722 54.3429 8.59615 60.9809 8.41913C63.9901 8.33063 65.0522 23.5538 71.6902 23.6423C78.8592 23.7308 78.0626 9.3927 82.488 7.79959C76.2925 5.76394 77.7971 20.279 73.0178 18.4204C69.8315 17.1813 69.3005 2.93173 62.397 2.93173C52.6613 2.93173 56.113 25.7664 48.2359 24.7043C45.7578 24.3503 44.6072 21.1641 42.3945 12.6674C39.3853 1.33861 35.7565 -1.31659 28.9415 0.542049Z" fill="#1A2953"/>
<path d="M7.16891 40.724C7.16891 40.6355 7.25741 40.547 7.34592 40.4585C7.43443 40.37 7.52293 40.37 7.61144 40.37C7.87696 40.37 8.23098 40.37 8.4965 40.4585C8.58501 40.4585 8.67352 40.547 8.67352 40.6355C8.67352 40.8125 8.58501 40.901 8.58501 41.078L5.48728 49.9287C5.39878 50.1057 5.31027 50.2827 5.13326 50.4597C4.95624 50.5482 4.77923 50.6367 4.51371 50.6367H4.07118C3.89417 50.6367 3.62865 50.5482 3.45163 50.4597C3.27462 50.2827 3.18611 50.1057 3.09761 49.8402L-0.00012207 41.078C-0.000121859 40.901 -0.000121859 40.724 -0.000121859 40.6355C-0.000121859 40.547 0.0883847 40.4585 0.176891 40.37C0.442411 40.2815 0.796437 40.2815 1.06196 40.2815C1.15046 40.2815 1.23897 40.2815 1.32748 40.37C1.41598 40.4585 1.41598 40.547 1.50449 40.724C3.09761 45.4149 4.07118 48.2471 4.3367 49.1321L7.16891 40.724Z" fill="#1A2953"/>
<path d="M10.709 50.5482H10.0009C9.8239 50.5482 9.73539 50.4598 9.73539 50.1942V43.6447C9.73539 43.3792 9.8239 43.2907 10.0009 43.2907H10.709C10.886 43.2907 10.9745 43.3792 10.9745 43.6447V50.1942C11.063 50.4598 10.9745 50.5482 10.709 50.5482ZM10.4434 41.7861C9.91241 41.7861 9.64689 41.5206 9.64689 40.9895C9.64689 40.4585 9.91241 40.193 10.4434 40.193C10.9745 40.193 11.24 40.4585 11.24 40.9895C11.1515 41.5206 10.886 41.7861 10.4434 41.7861Z" fill="#1A2953"/>
<path d="M14.869 49.1321C15.046 49.3977 15.4 49.4862 15.6655 49.4862C15.8426 49.4862 15.9311 49.6632 15.9311 49.7517C15.9311 49.9287 15.9311 50.1057 15.8426 50.2827C15.8426 50.4597 15.6655 50.4597 15.4885 50.4597C14.7805 50.5482 14.0724 50.2827 13.6299 49.6632C13.4529 49.2206 13.3644 48.7781 13.3644 48.3356V39.9274C13.3644 39.7504 13.4529 39.5734 13.7184 39.5734H14.4265C14.6035 39.5734 14.692 39.6619 14.692 39.9274V48.1586C14.692 48.6011 14.7805 48.9551 14.869 49.1321Z" fill="#1A2953"/>
<path d="M18.3207 50.5482H17.6127C17.4356 50.5482 17.3471 50.4597 17.3471 50.1942V44.6183C17.3471 44.2643 17.5241 43.9102 17.7897 43.7332C18.3207 43.5562 18.8517 43.3792 19.3828 43.2907C20.0023 43.2022 20.5334 43.1137 21.1529 43.1137C21.5954 43.1137 22.1265 43.2022 22.569 43.3792C22.8345 43.4677 23.1001 43.7332 23.1886 44.0873C23.2771 44.5298 23.3656 45.0608 23.3656 45.5034V50.2827C23.3656 50.4597 23.2771 50.6368 23.1001 50.6368H22.392C22.215 50.6368 22.1265 50.5482 22.1265 50.2827V45.7689C22.1265 45.5034 22.1265 45.1493 22.038 44.8838C21.9495 44.7068 21.861 44.5298 21.684 44.5298C21.4184 44.4413 21.0644 44.3528 20.7989 44.4413C20.1794 44.4413 19.5598 44.5298 19.0288 44.7068C18.9403 44.7953 18.8517 44.7953 18.7632 44.8838C18.5862 44.9723 18.5862 45.0608 18.5862 45.2379V50.2827C18.5862 50.4597 18.4977 50.5482 18.3207 50.5482Z" fill="#1A2953"/>
<path d="M26.6405 50.5482H25.9325C25.7554 50.5482 25.6669 50.4598 25.6669 50.1942V43.6447C25.6669 43.3792 25.7554 43.2907 25.9325 43.2907H26.6405C26.8175 43.2907 26.906 43.3792 26.906 43.6447V50.1942C26.906 50.4598 26.8175 50.5482 26.6405 50.5482ZM26.2865 41.7861C25.7554 41.7861 25.4899 41.5206 25.4899 40.9895C25.4899 40.4585 25.7554 40.193 26.2865 40.193C26.8175 40.193 27.083 40.4585 27.083 40.9895C27.083 41.5206 26.8175 41.7861 26.2865 41.7861Z" fill="#1A2953"/>
<path d="M31.9505 47.2735C31.4195 47.185 30.7999 47.362 30.3574 47.539C30.0919 47.716 30.0034 48.07 30.0034 48.3356C30.0034 48.6896 30.0919 49.0436 30.3574 49.3091C30.7114 49.5747 31.154 49.6632 31.508 49.6632C32.039 49.6632 32.4816 49.5747 33.0126 49.4861C33.1011 49.4861 33.1896 49.3091 33.2781 49.2206C33.3666 49.0436 33.3666 48.8666 33.3666 48.7781V47.362C32.9241 47.362 32.4816 47.2735 31.9505 47.2735ZM34.5172 49.9287C34.4287 50.1057 34.2517 50.1942 34.0747 50.2827C33.1896 50.6367 32.3046 50.8137 31.331 50.7252C30.6229 50.8137 29.8264 50.5482 29.2953 50.1057C28.9413 49.6632 28.6758 49.0436 28.7643 48.4241C28.6758 47.716 29.0298 47.008 29.5609 46.654C30.2689 46.2999 31.0655 46.2114 31.862 46.2999C32.3931 46.2999 32.8356 46.2999 33.3666 46.3884V45.7689C33.3666 45.5034 33.3666 45.1493 33.2781 44.8838C33.1011 44.5298 32.6586 44.2643 31.7735 44.2643C31.2425 44.2643 30.7114 44.3528 30.1804 44.4413L29.6494 44.5298C29.5609 44.5298 29.3839 44.4413 29.3839 44.3528C29.2953 44.1758 29.2953 43.9987 29.2953 43.7332C29.2953 43.5562 29.3839 43.4677 29.5609 43.4677C30.3574 43.2022 31.154 43.1137 31.9505 43.1137C32.7471 43.0252 33.4552 43.2022 34.0747 43.6447C34.4287 44.1758 34.6057 44.8838 34.5172 45.5034V49.3091C34.6057 49.4861 34.6057 49.7517 34.5172 49.9287Z" fill="#1A2953"/>
<path d="M36.9071 43.6447C36.9071 43.4677 36.9956 43.2907 37.1726 43.2907H37.8806C38.0576 43.2907 38.1461 43.3792 38.1461 43.6447V47.9816C38.1461 48.3356 38.1461 48.6896 38.2346 49.0436C38.4117 49.3977 38.8542 49.5747 39.5622 49.5747C40.0933 49.5747 40.6243 49.5747 41.1554 49.3977C41.2439 49.3977 41.3324 49.3092 41.4209 49.2206C41.5094 49.0436 41.5094 48.9551 41.5094 48.7781V43.6447C41.5094 43.4677 41.5979 43.2907 41.8634 43.2907H42.5715C42.7485 43.2907 42.837 43.3792 42.837 43.6447V49.3977C42.837 49.7517 42.66 50.1057 42.3944 50.2827C41.4209 50.6367 40.3588 50.8138 39.3852 50.7253C38.0576 50.7253 37.3496 50.3712 37.0841 49.7517C36.907 49.2206 36.907 48.6896 36.907 48.1586L36.9071 43.6447Z" fill="#1A2953"/>
<path d="M46.3774 47.2735C45.4039 47.0965 44.6958 46.2114 44.6958 45.2378C44.6958 43.8218 45.5809 43.1137 47.4395 43.1137C48.0591 43.1137 48.7671 43.2022 49.3867 43.2907C49.5637 43.2907 49.6522 43.4677 49.6522 43.6447C49.6522 43.8218 49.5637 44.0873 49.4752 44.2643C49.4752 44.3528 49.3867 44.4413 49.2096 44.4413H48.9441C48.4131 44.2643 47.882 44.2643 47.351 44.2643C46.997 44.2643 46.5544 44.3528 46.2889 44.5298C46.1119 44.7068 45.9349 44.9723 46.0234 45.2378C46.0234 45.4149 46.1119 45.6804 46.2004 45.7689C46.4659 45.9459 46.7315 46.1229 47.0855 46.2114L48.0591 46.4769C48.5901 46.5654 49.0326 46.831 49.4752 47.185C49.7407 47.539 49.9177 47.9815 49.9177 48.5126C49.9177 49.9287 49.0326 50.6367 47.174 50.6367C46.3774 50.6367 45.5809 50.5482 44.7843 50.2827C44.6958 50.2827 44.6073 50.1057 44.6073 50.0172C44.6073 49.8402 44.6958 49.6632 44.7843 49.3977C44.7843 49.2206 44.9613 49.1321 45.0498 49.1321C45.1383 49.1321 45.3153 49.2206 45.4039 49.2206C46.0234 49.3977 46.643 49.4862 47.174 49.4862C47.6165 49.5747 47.9705 49.3977 48.3246 49.2206C48.5016 49.0436 48.5901 48.7781 48.5901 48.5126C48.5901 48.3356 48.5016 48.1586 48.4131 47.9815C48.1476 47.8045 47.7935 47.6275 47.4395 47.539L46.3774 47.2735Z" fill="#1A2953"/>
<path d="M59.2109 43.6447C59.2994 43.3792 59.3879 43.2907 59.5649 43.2907C59.8305 43.2907 60.096 43.2907 60.3615 43.2907C60.5385 43.2907 60.627 43.3792 60.627 43.5562C60.627 43.6447 60.627 43.8217 60.5385 43.9103L58.2374 49.9287C58.1488 50.1057 58.0603 50.2827 57.9718 50.4597C57.7948 50.5482 57.6178 50.6367 57.4408 50.6367H57.0868C56.9098 50.6367 56.7327 50.6367 56.5557 50.4597C56.3787 50.2827 56.2902 50.1057 56.2902 49.9287L54.0775 43.9988C53.989 43.9103 53.989 43.7332 53.989 43.6447C53.989 43.4677 54.0775 43.3792 54.2546 43.3792C54.5201 43.3792 54.7856 43.2907 55.0511 43.3792C55.2281 43.3792 55.3166 43.4677 55.4051 43.7332C56.4672 46.7425 57.1753 48.6011 57.3523 49.3092C57.4408 48.5126 58.0603 46.654 59.2109 43.6447Z" fill="#1A2953"/>
<path d="M64.4324 47.2735C63.9014 47.185 63.2818 47.2735 62.8393 47.539C62.5738 47.716 62.4853 48.0701 62.4853 48.3356C62.4853 48.6896 62.5738 49.0436 62.8393 49.3092C63.1933 49.5747 63.6359 49.6632 63.9899 49.6632C64.5209 49.6632 64.9635 49.5747 65.4945 49.4862C65.583 49.4862 65.6715 49.3092 65.76 49.2207C65.8485 49.0436 65.8485 48.8666 65.8485 48.7781V47.362C65.406 47.2735 64.9635 47.2735 64.4324 47.2735ZM66.9991 49.9287C66.9106 50.1057 66.7336 50.1942 66.5566 50.2827C65.6715 50.6368 64.7864 50.8138 63.8129 50.7253C63.1048 50.8138 62.3083 50.5482 61.7772 50.1057C61.4232 49.6632 61.1577 49.0436 61.2462 48.4241C61.1577 47.716 61.5117 47.008 62.0428 46.654C62.7508 46.2999 63.5474 46.2114 64.2554 46.2114C64.7864 46.2114 65.229 46.2114 65.76 46.2999V45.6804C65.76 45.4149 65.76 45.0608 65.6715 44.7953C65.4945 44.4413 65.052 44.2643 64.2554 44.2643C63.7244 44.2643 63.1933 44.3528 62.6623 44.4413L62.1313 44.5298C62.0428 44.5298 61.8657 44.4413 61.8657 44.3528C61.7772 44.1758 61.7772 43.9988 61.7772 43.7332C61.7772 43.5562 61.8657 43.4677 62.0428 43.4677C62.8393 43.2022 63.6359 43.1137 64.4324 43.1137C65.229 43.0252 65.937 43.2022 66.5566 43.6447C66.9106 44.1758 67.0876 44.8838 66.9991 45.5034V49.3092C67.0876 49.4862 67.0876 49.7517 66.9991 49.9287Z" fill="#1A2953"/>
<path d="M70.0972 50.5482H69.3892C69.2122 50.5482 69.1236 50.4597 69.1236 50.1942V44.6183C69.1236 44.2643 69.3007 43.9102 69.5662 43.7332C70.0972 43.5562 70.6283 43.3792 71.1593 43.2907C71.7788 43.2022 72.3099 43.1137 72.9294 43.1137C73.4605 43.1137 73.903 43.2022 74.3455 43.3792C74.611 43.4677 74.8766 43.7332 74.9651 44.0873C75.0536 44.5298 75.1421 45.0608 75.1421 45.5034V50.2827C75.1421 50.4597 75.0536 50.6368 74.8766 50.6368H74.1685C73.9915 50.6368 73.903 50.5482 73.903 50.2827V45.7689C73.903 45.5034 73.903 45.1493 73.8145 44.8838C73.726 44.7068 73.6375 44.5298 73.4604 44.5298C73.1949 44.4413 72.8409 44.3528 72.5754 44.4413C71.9558 44.4413 71.3363 44.5298 70.8053 44.7068C70.7168 44.7953 70.6283 44.7953 70.5397 44.8838C70.4512 44.9723 70.4512 45.1493 70.4512 45.3264V50.3712C70.3627 50.4597 70.2742 50.5482 70.0972 50.5482Z" fill="#1A2953"/>
<path d="M81.78 44.9723C81.78 44.7068 81.6915 44.5298 81.5145 44.5298C81.1605 44.3528 80.7179 44.3528 80.2754 44.3528C79.6559 44.2643 78.9478 44.4413 78.5053 44.9723C78.1513 45.5919 77.9743 46.3884 78.0628 47.0965C77.9743 47.8046 78.1513 48.4241 78.4168 49.0436C78.7708 49.4862 79.3019 49.7517 79.8329 49.6632C80.3639 49.6632 80.895 49.5747 81.3375 49.4862C81.426 49.3977 81.5145 49.3092 81.603 49.2207C81.603 49.0436 81.6915 48.9551 81.6915 48.7781L81.78 44.9723ZM83.0191 49.8402C82.9306 50.0172 82.7536 50.1942 82.5766 50.2827C81.6915 50.6368 80.8064 50.8138 79.9214 50.7253C79.0363 50.8138 78.2398 50.5482 77.6202 49.9287C77.0892 49.1321 76.8237 48.0701 76.9122 47.0965C76.8237 46.0344 77.0892 44.8838 77.7087 43.9988C78.4168 43.3792 79.3904 43.0252 80.3639 43.1137C80.895 43.1137 81.426 43.2022 81.8685 43.3792V40.1045C81.8685 39.9275 81.957 39.839 82.1341 39.7505H82.8421C82.9306 39.7505 83.0191 39.7505 83.1076 39.839C83.1961 39.9275 83.1961 40.016 83.1961 40.1045V49.3091C83.1076 49.4862 83.1076 49.6632 83.0191 49.8402Z" fill="#1A2953"/>
<path d="M89.6568 46.2999C89.6568 46.2114 89.6568 46.1229 89.6568 45.9459C89.6568 45.5034 89.5682 45.0608 89.3027 44.6183C88.9487 44.3528 88.5062 44.1758 88.0637 44.2643C87.5326 44.1758 87.0016 44.4413 86.6475 44.7953C86.2935 45.2378 86.205 45.7689 86.205 46.2999L89.6568 46.2999ZM86.736 49.1321C87.1786 49.4862 87.7981 49.6632 88.3292 49.5747C88.8602 49.5747 89.4798 49.4862 90.0108 49.3977L90.3648 49.3092C90.4533 49.3092 90.5418 49.3977 90.6303 49.4862C90.7189 49.6632 90.7189 49.8402 90.8074 50.0172C90.8074 50.1942 90.7189 50.2827 90.5418 50.2827C89.8338 50.5482 89.0372 50.7253 88.1522 50.6367C87.1786 50.7253 86.2935 50.3712 85.5855 49.7517C84.9659 48.8666 84.7004 47.8931 84.7889 46.831C84.7004 45.7689 84.9659 44.7068 85.5855 43.9103C86.2935 43.2907 87.1786 42.9367 88.0637 43.0252C88.5062 43.0252 88.9487 43.1137 89.3027 43.2022C89.5682 43.2907 89.9223 43.4677 90.0993 43.6447C90.2763 43.9103 90.4533 44.1758 90.5418 44.4413C90.6303 44.7953 90.7189 45.0608 90.7189 45.4149C90.7189 45.7689 90.7189 46.1229 90.7189 46.654C90.7189 46.831 90.7189 47.008 90.6303 47.0965C90.5418 47.185 90.4533 47.185 90.3648 47.185H86.028C86.1165 47.893 86.2935 48.6011 86.736 49.1321Z" fill="#1A2953"/>
<path d="M93.7285 50.5482H93.0204C92.8435 50.5482 92.7549 50.4597 92.7549 50.1942V44.6183C92.7549 44.2643 92.9319 43.9102 93.1975 43.7332C93.7285 43.5562 94.2596 43.3792 94.7906 43.2907C95.4101 43.2022 95.9412 43.1137 96.5607 43.1137C97.0033 43.1137 97.5343 43.1137 97.9768 43.2907C98.2424 43.3792 98.5079 43.6447 98.5964 43.9987C98.6849 44.4413 98.7734 44.9723 98.7734 45.4149V50.1942C98.7734 50.3712 98.6849 50.5482 98.5078 50.5482H97.7998C97.6228 50.5482 97.5343 50.4597 97.5343 50.1942V45.7689C97.5343 45.5034 97.5343 45.1493 97.4458 44.8838C97.3573 44.7068 97.2687 44.5298 97.0918 44.5298C96.8262 44.4413 96.4722 44.3528 96.2067 44.4413C95.5872 44.4413 94.9676 44.5298 94.4365 44.7068C94.348 44.7953 94.2595 44.7953 94.171 44.8838C94.0825 44.9723 94.0825 45.1493 94.0825 45.3264V50.3712C93.994 50.4597 93.9055 50.5482 93.7285 50.5482Z" fill="#1A2953"/>
<path d="M100.72 43.6447C100.72 43.4677 100.809 43.2907 100.986 43.2907H101.694C101.871 43.2907 101.96 43.3792 101.96 43.6447V48.1586C101.96 48.4241 101.96 48.7781 102.048 49.0436C102.137 49.3977 102.579 49.5747 103.287 49.5747C103.907 49.5747 104.438 49.4862 104.969 49.3092C105.057 49.3092 105.146 49.2206 105.234 49.1321C105.323 49.0436 105.323 48.8666 105.323 48.6896V43.7332C105.323 43.5562 105.411 43.3792 105.677 43.3792H106.385C106.562 43.3792 106.65 43.4677 106.65 43.7332V50.2827C106.65 50.9023 106.562 51.4333 106.473 52.0528C106.296 52.7609 105.765 53.2919 105.057 53.5575C104.084 53.9115 103.022 54 101.96 54C101.694 54 101.606 53.9115 101.517 53.7345C101.517 53.5575 101.517 53.3805 101.517 53.2034C101.517 53.1149 101.517 53.0264 101.606 52.9379C101.694 52.8494 101.783 52.8494 101.871 52.8494C102.668 52.8494 103.553 52.7609 104.349 52.5839C104.703 52.4954 105.057 52.2299 105.234 51.8758C105.323 51.5218 105.411 51.1678 105.411 50.7253V50.3712C104.615 50.7253 103.818 50.9023 102.933 50.9023C101.783 50.9023 101.075 50.6368 100.897 50.0172C100.721 49.5747 100.721 49.0436 100.721 48.6011L100.72 43.6447Z" fill="#1A2953"/>
<path d="M110.279 47.2735C109.305 47.0965 108.597 46.2114 108.597 45.2378C108.597 43.8218 109.482 43.1137 111.341 43.1137C112.049 43.1137 112.669 43.2022 113.377 43.3792C113.554 43.3792 113.642 43.5562 113.642 43.7332C113.642 43.9103 113.554 44.1758 113.465 44.3528C113.465 44.4413 113.377 44.5298 113.2 44.5298H112.934C112.403 44.4413 111.872 44.3528 111.341 44.3528C110.987 44.3528 110.544 44.4413 110.279 44.6183C110.102 44.7953 109.925 45.0608 110.013 45.3263C110.013 45.5034 110.102 45.7689 110.19 45.8574C110.456 46.0344 110.722 46.2114 111.076 46.2999L112.049 46.5654C112.58 46.6539 113.023 46.9195 113.465 47.2735C113.731 47.6275 113.908 48.0701 113.908 48.6011C113.908 50.0172 113.023 50.7252 111.164 50.7252C110.367 50.7252 109.571 50.6367 108.774 50.3712C108.686 50.3712 108.597 50.1942 108.597 50.1057C108.597 49.9287 108.686 49.7517 108.774 49.4862C108.774 49.3091 108.951 49.2206 109.04 49.2206C109.128 49.2206 109.305 49.3091 109.394 49.3091C110.013 49.4862 110.633 49.5747 111.253 49.5747C111.695 49.6632 112.049 49.4862 112.403 49.3091C112.58 49.1321 112.669 48.8666 112.669 48.6011C112.669 48.4241 112.58 48.2471 112.492 48.0701C112.226 47.893 111.872 47.716 111.518 47.6275L110.279 47.2735Z" fill="#1A2953"/>
</svg>
