<svg width="89" height="80" viewBox="0 0 89 80" fill="none" xmlns="http://www.w3.org/2000/svg">
<path fill-rule="evenodd" clip-rule="evenodd" d="M39.1566 18.141C39.9717 17.5618 42.4154 16.4037 44.8599 18.7201C46.2375 20.135 46.3002 21.6789 46.1127 22.7082C45.9872 24.1877 45.2357 24.9601 44.8599 25.3458L31.3876 39.3053C29.883 40.8492 29.5699 43.6148 31.4496 45.8022C33.5803 47.7964 36.2743 47.3462 37.9029 45.8022L41.0362 42.5212C41.8048 41.8536 42.6305 41.7017 43.2992 41.5786L43.3019 41.5781L43.418 41.5564C44.6716 41.4275 45.9872 41.6852 47.1781 42.9078C48.0552 43.8082 48.3682 44.9663 48.4937 45.9311C48.6192 47.2173 48.0552 48.5043 47.1781 49.4692L30.4478 66.6445C29.0059 68.0596 27.877 70.9548 30.1968 73.4637C32.3895 75.5222 35.0215 75.0719 36.6501 73.4637L42.2899 67.6094C43.0422 66.8378 43.92 66.1943 44.9846 66.0656C46.4265 65.8085 47.8041 66.001 49.0578 67.288C49.9976 68.3173 50.3734 69.5398 50.3734 70.6971C50.3734 71.8552 49.9348 72.949 49.0578 74.0427L43.2644 80H8.32872C3.91044 80 0.328712 76.4183 0.328712 72V57.7769C4.25404 53.764 7.13631 50.8198 7.13631 50.8198L38.6561 18.5268C38.7768 18.402 38.9571 18.2779 39.1383 18.1533L39.1456 18.1483L39.1566 18.141ZM77.8789 57.9269C76.1248 59.7931 76.1248 62.7519 77.8789 64.5536C79.6339 66.4188 82.5161 66.4188 84.3338 64.5536L87.6538 61.1436C89.4087 59.2784 89.4087 56.3194 87.6538 54.5178C85.8377 52.717 82.9546 52.717 81.2005 54.5178L77.8789 57.9269ZM52.0656 57.4457C50.3123 59.3119 50.3123 62.2706 52.0656 64.0715C53.8206 65.9376 56.8276 66.0657 58.5834 64.2649L70.74 51.7848C72.5569 49.9839 72.3686 46.8317 70.6136 45.03C68.7975 43.2293 65.9137 43.2293 64.1603 45.03L52.0656 57.4457ZM50.186 39.6269C48.4326 37.826 48.4326 34.8663 50.186 33.0011L59.6479 23.2875C61.4028 21.4858 64.4733 21.2933 66.291 23.0941C68.0444 24.8957 67.8576 28.1116 66.1027 29.9132L56.6409 39.6269C54.8232 41.4277 52.0037 41.4277 50.186 39.6269ZM69.3603 19.878C67.6069 18.0764 67.6069 15.1174 69.3603 13.2515L80.9529 1.35122C82.7078 -0.450409 85.5901 -0.450409 87.4078 1.35122C89.1626 3.15206 89.1626 6.11104 87.4078 7.977L75.8152 19.9416C74.0602 21.7432 71.178 21.7432 69.3603 19.878ZM47.9935 8.94169C46.2394 10.807 46.2394 13.7658 47.9935 15.5675C49.8105 17.4327 52.6928 17.4327 54.4477 15.6319L61.7789 8.1058C63.5338 6.23964 63.5338 3.28066 61.7789 1.47903C59.9612 -0.321609 57.0789 -0.321609 55.3255 1.47903L47.9935 8.94169ZM73.6841 35.2525C71.9299 37.1177 71.9299 40.0767 73.6841 41.8784C75.439 43.7436 78.5095 43.8724 80.2637 42.0708L87.7203 34.4157C89.538 32.615 89.3498 29.4627 87.5956 27.6611C85.7779 25.8602 82.8965 25.8602 81.1408 27.6611L73.6841 35.2525ZM25.621 11.4822C23.8676 9.68149 23.8676 6.72173 25.621 4.85645L28.9426 1.44736C30.6967 -0.354263 33.5798 -0.354263 35.3966 1.44736C37.1516 3.24821 37.1516 6.20718 35.3966 8.07314L32.0759 11.4822C30.321 13.3476 27.4387 13.3476 25.621 11.4822Z" fill="#EDF1F8"/>
</svg>
