<svg width="110" height="36" viewBox="0 0 110 36" fill="none" xmlns="http://www.w3.org/2000/svg">
<path fill-rule="evenodd" clip-rule="evenodd" d="M29.0041 12.0522V23.7131C27.5171 22.2261 26.6563 20.1131 26.6563 17.8435C26.578 15.5739 27.5171 13.5391 29.0041 12.0522Z" fill="#1A2953"/>
<path d="M34.0909 16.8261H36.1256V22.2261H34.0909V16.8261Z" fill="#1A2953"/>
<path fill-rule="evenodd" clip-rule="evenodd" d="M40.7434 24.3391C39.1782 25.6696 37.2216 26.3739 35.1869 26.3739C33.0738 26.3739 31.1173 25.5913 29.6304 24.3391H40.7434Z" fill="#1A2953"/>
<path fill-rule="evenodd" clip-rule="evenodd" d="M41.2129 11.8174H39.5694V22.2261H38.0042V15.0261H36.1259V11.8174H34.2477V15.0261H32.3694V22.1478H30.7259V11.7391H29.1607C30.7259 10.1739 32.9172 9.31305 35.1085 9.31305C37.5346 9.39131 39.6477 10.3304 41.2129 11.8174Z" fill="#1A2953"/>
<path fill-rule="evenodd" clip-rule="evenodd" d="M43.7953 17.8435C43.7953 20.113 42.8562 22.2261 41.3692 23.713V11.9739C42.8562 13.5391 43.7953 15.5739 43.7953 17.8435Z" fill="#1A2953"/>
<path fill-rule="evenodd" clip-rule="evenodd" d="M94.1954 10.487C94.0389 10.3304 93.8041 10.2522 93.4911 10.2522C92.865 10.2522 92.3171 10.6435 92.2389 11.1913L91.6911 13.8522C91.6911 13.8522 91.6128 14.2435 91.8476 14.5565C92.0041 14.713 92.2389 14.7913 92.5519 14.7913C93.6476 14.7913 93.8041 13.8522 93.8041 13.8522L94.3519 11.1913C94.3519 11.1913 94.4302 10.7217 94.1954 10.487ZM94.1954 10.487C94.0389 10.3304 93.8041 10.2522 93.4911 10.2522C92.865 10.2522 92.3171 10.6435 92.2389 11.1913L91.6911 13.8522C91.6911 13.8522 91.6128 14.2435 91.8476 14.5565C92.0041 14.713 92.2389 14.7913 92.5519 14.7913C93.6476 14.7913 93.8041 13.8522 93.8041 13.8522L94.3519 11.1913C94.3519 11.1913 94.4302 10.7217 94.1954 10.487ZM94.1954 10.487C94.0389 10.3304 93.8041 10.2522 93.4911 10.2522C92.865 10.2522 92.3171 10.6435 92.2389 11.1913L91.6911 13.8522C91.6911 13.8522 91.6128 14.2435 91.8476 14.5565C92.0041 14.713 92.2389 14.7913 92.5519 14.7913C93.6476 14.7913 93.8041 13.8522 93.8041 13.8522L94.3519 11.1913C94.3519 11.1913 94.4302 10.7217 94.1954 10.487ZM94.1954 10.487C94.0389 10.3304 93.8041 10.2522 93.4911 10.2522C92.865 10.2522 92.3171 10.6435 92.2389 11.1913L91.6911 13.8522C91.6911 13.8522 91.6128 14.2435 91.8476 14.5565C92.0041 14.713 92.2389 14.7913 92.5519 14.7913C93.6476 14.7913 93.8041 13.8522 93.8041 13.8522L94.3519 11.1913C94.3519 11.1913 94.4302 10.7217 94.1954 10.487ZM82.8476 21.5217L81.4389 24.4174H83.0041L82.8476 21.5217ZM94.1954 10.487C94.0389 10.3304 93.8041 10.2522 93.4911 10.2522C92.865 10.2522 92.3171 10.6435 92.2389 11.1913L91.6911 13.8522C91.6911 13.8522 91.6128 14.2435 91.8476 14.5565C92.0041 14.713 92.2389 14.7913 92.5519 14.7913C93.6476 14.7913 93.8041 13.8522 93.8041 13.8522L94.3519 11.1913C94.3519 11.1913 94.4302 10.7217 94.1954 10.487ZM94.1954 10.487C94.0389 10.3304 93.8041 10.2522 93.4911 10.2522C92.865 10.2522 92.3171 10.6435 92.2389 11.1913L91.6911 13.8522C91.6911 13.8522 91.6128 14.2435 91.8476 14.5565C92.0041 14.713 92.2389 14.7913 92.5519 14.7913C93.6476 14.7913 93.8041 13.8522 93.8041 13.8522L94.3519 11.1913C94.3519 11.1913 94.4302 10.7217 94.1954 10.487ZM82.8476 21.5217L81.4389 24.4174H83.0041L82.8476 21.5217ZM82.8476 21.5217L81.4389 24.4174H83.0041L82.8476 21.5217ZM94.1954 10.487C94.0389 10.3304 93.8041 10.2522 93.4911 10.2522C92.865 10.2522 92.3171 10.6435 92.2389 11.1913L91.6911 13.8522C91.6911 13.8522 91.6128 14.2435 91.8476 14.5565C92.0041 14.713 92.2389 14.7913 92.5519 14.7913C93.6476 14.7913 93.8041 13.8522 93.8041 13.8522L94.3519 11.1913C94.3519 11.1913 94.4302 10.7217 94.1954 10.487ZM94.1954 10.487C94.0389 10.3304 93.8041 10.2522 93.4911 10.2522C92.865 10.2522 92.3171 10.6435 92.2389 11.1913L91.6911 13.8522C91.6911 13.8522 91.6128 14.2435 91.8476 14.5565C92.0041 14.713 92.2389 14.7913 92.5519 14.7913C93.6476 14.7913 93.8041 13.8522 93.8041 13.8522L94.3519 11.1913C94.3519 11.1913 94.4302 10.7217 94.1954 10.487ZM82.8476 21.5217L81.4389 24.4174H83.0041L82.8476 21.5217ZM61.0128 21.2087C60.778 20.9739 60.3085 20.9739 60.3085 20.9739H59.2128L58.8215 22.8522H59.8389C59.9172 22.8522 60.9346 22.8522 61.1693 21.913C61.1693 21.6 61.0911 21.3652 61.0128 21.2087ZM65.865 21.5217L64.4563 24.4174H66.0215L65.865 21.5217ZM82.8476 21.5217L81.4389 24.4174H83.0041L82.8476 21.5217ZM94.1954 10.487C94.0389 10.3304 93.8041 10.2522 93.4911 10.2522C92.865 10.2522 92.3171 10.6435 92.2389 11.1913L91.6911 13.8522C91.6911 13.8522 91.6128 14.2435 91.8476 14.5565C92.0041 14.713 92.2389 14.7913 92.5519 14.7913C93.6476 14.7913 93.8041 13.8522 93.8041 13.8522L94.3519 11.1913C94.3519 11.1913 94.4302 10.7217 94.1954 10.487ZM94.1954 10.487C94.0389 10.3304 93.8041 10.2522 93.4911 10.2522C92.865 10.2522 92.3171 10.6435 92.2389 11.1913L91.6911 13.8522C91.6911 13.8522 91.6128 14.2435 91.8476 14.5565C92.0041 14.713 92.2389 14.7913 92.5519 14.7913C93.6476 14.7913 93.8041 13.8522 93.8041 13.8522L94.3519 11.1913C94.3519 11.1913 94.4302 10.7217 94.1954 10.487ZM82.8476 21.5217L81.4389 24.4174H83.0041L82.8476 21.5217ZM65.865 21.5217L64.4563 24.4174H66.0215L65.865 21.5217ZM61.0128 21.2087C60.778 20.9739 60.3085 20.9739 60.3085 20.9739H59.2128L58.8215 22.8522H59.8389C59.9172 22.8522 60.9346 22.8522 61.1693 21.913C61.1693 21.6 61.0911 21.3652 61.0128 21.2087ZM108.908 1.01739C108.361 0.391304 107.578 0 106.639 0H8.03021C6.30847 0 4.66499 1.33043 4.43021 3.05217L0.0476022 32.5565C-0.10892 33.4174 0.125863 34.3565 0.673689 34.9826C1.14325 35.6087 2.00412 36 2.86499 36H101.395C103.117 36 104.761 34.6696 105.074 32.9478L109.456 3.44348C109.613 2.50435 109.378 1.64348 108.908 1.01739ZM79.9519 8.92174L78.9345 13.9304C78.9345 13.9304 78.8563 14.3217 79.0911 14.6348C79.2476 14.7913 79.4824 14.8696 79.7954 14.8696C80.8911 14.8696 81.0476 13.9304 81.1258 13.9304L82.1432 9H83.7084L82.691 14.0087C82.691 14.0087 82.2215 16.2783 79.5606 16.2783C78.778 16.2783 78.1519 16.0435 77.8389 15.6522C77.1345 14.9478 77.3693 13.9304 77.3693 13.9304L78.3867 9H79.9519V8.92174ZM72.3606 8.92174H77.6824L77.4476 10.3304H75.5693L74.3172 16.2H72.7519L73.9258 10.2522H72.0476L72.3606 8.92174ZM64.8476 8.92174H66.4128L64.9259 16.2783H63.3606L64.8476 8.92174ZM59.8389 8.92174H61.4824L60.3085 14.8696H62.8911L62.578 16.2H58.3519L59.8389 8.92174ZM50.2911 23.3217C50.1346 23.5565 47.3172 26.9217 42.8563 29.0348C39.9606 30.4435 36.6737 31.2261 33.2302 31.2261C23.9172 31.2261 15.9346 25.5913 12.4911 17.5304C12.4128 17.3739 12.4128 17.2957 12.3346 17.1391C12.3346 17.0609 12.2563 16.9826 12.2563 16.9043C11.0824 14.0087 10.6128 10.9565 10.7693 7.90435C10.8476 6.96522 11.0041 5.63478 11.0041 5.63478C11.0824 5.16522 11.3172 5.00869 11.6302 4.93043C13.1172 4.53913 17.265 3.9913 21.0215 4.69565C21.3346 4.77391 21.5693 5.00869 21.5693 5.32174C21.2563 6.41739 21.0998 7.98261 20.9433 9.23478C20.2389 14.9478 21.9606 19.0174 24.0737 21.8348C23.6824 20.6609 23.4476 19.4087 23.4476 18.0783C23.4476 11.6609 28.6911 6.49565 35.1867 6.49565C41.6824 6.49565 46.9259 11.6609 46.9259 18.0783C46.9259 19.7217 46.5346 21.4435 45.8302 22.9304C48.9606 19.8783 50.6824 15.4957 50.3693 10.7217C50.3693 10.2522 50.2911 9.86087 50.2128 9.31304C50.1346 8.92174 50.2911 8.76522 50.6041 8.68696C51.3867 8.53043 52.4824 8.60869 53.3433 8.84348C53.9693 9 53.9693 9.3913 53.9693 9.3913C53.9693 9.54783 54.0476 10.0174 54.0476 10.2522C54.2824 15.4174 53.1867 19.7217 50.2911 23.3217ZM58.5085 24.1826L57.9607 26.8435H56.3954L57.8824 19.5652H60.5433C60.6215 19.5652 61.7172 19.5652 62.3433 20.2696C62.7346 20.6609 62.8911 21.2087 62.7346 21.913C62.265 24.1826 59.6824 24.1826 59.6041 24.1826H58.5085ZM66.3345 26.8435L66.178 25.8261H63.7519L63.2041 26.9217H61.5606L65.3172 19.5652H67.1954L67.978 26.9217H66.3345V26.8435ZM66.6476 15.4957C66.3345 15.1826 66.178 14.713 66.2563 14.1652L66.3345 14.0087L66.9606 10.8783C67.3519 9.3913 68.9954 8.84348 70.0128 8.84348H72.1258L71.8128 10.2522H69.778C69.3867 10.2522 68.6824 10.4087 68.5259 11.0348L68.3693 11.8174H70.8737L70.5606 13.2261H68.0563C67.978 13.4609 67.8998 14.0087 67.8215 14.087C67.8215 14.3217 67.8215 14.4783 67.978 14.6348C68.1345 14.7913 68.5258 14.8696 68.7606 14.8696H70.8737L70.5606 16.2783H68.5258C67.978 16.2 67.1172 16.0435 66.6476 15.4957ZM74.0824 20.9739H72.0476C72.0476 20.9739 71.1085 20.9739 70.9519 21.6C70.8737 21.913 71.4998 22.3043 72.1258 22.6957C72.9867 23.2435 74.1606 23.9478 73.9258 24.9652C73.6911 26.1391 72.4389 26.9217 70.8737 26.9217H68.8389L69.1519 25.513H71.1867C71.265 25.513 72.1258 25.513 72.2824 24.887C72.3606 24.5739 71.8128 24.1826 71.1085 23.7913C70.2476 23.2435 69.1519 22.5391 69.3085 21.5217C69.5433 20.3478 70.7954 19.5652 72.3606 19.5652H74.3954L74.0824 20.9739ZM72.6737 19.3304H71.8911L70.7172 17.687H72.0476L72.5171 18.313L73.2215 17.687H74.6302L72.6737 19.3304ZM77.2911 26.8435H75.7258L76.8998 20.8957H75.0215L75.3345 19.487H80.6563L80.3432 20.8957H78.465L77.2911 26.8435ZM83.3172 26.8435L83.1606 25.7478H80.7346L80.1867 26.8435H78.5432L82.2998 19.487H84.178L84.9606 26.8435H83.3172ZM84.2563 8.92174H85.8997L86.5258 13.3826L88.9519 8.92174H90.6737L86.6041 16.2H85.4302L84.2563 8.92174ZM91.1432 20.9739H89.1085C89.1085 20.9739 88.1693 20.9739 88.0128 21.6C87.9345 21.913 88.5606 22.3043 89.1867 22.6957C90.0476 23.2435 91.2215 23.9478 90.9867 24.9652C90.7519 26.1391 89.578 26.9217 87.9345 26.9217H85.8215L86.0563 25.513H88.0911C88.0911 25.513 89.0302 25.513 89.1867 24.887C89.265 24.5739 88.6389 24.1826 88.0128 23.7913C87.1519 23.2435 86.0563 22.5391 86.2128 21.5217C86.4476 20.3478 87.6998 19.5652 89.265 19.5652H91.2998L91.1432 20.9739ZM95.9954 11.1913L95.4476 13.8522C95.1345 15.2609 93.8041 16.2 92.3171 16.1217C91.5345 16.1217 90.9085 15.887 90.5954 15.4957C89.8911 14.7913 90.1259 13.7739 90.1259 13.7739L90.6737 11.113C90.6737 11.113 91.1432 8.84348 93.8041 8.84348C94.5867 8.84348 95.2128 9.07826 95.5258 9.46957C96.1519 10.1739 95.9954 11.1913 95.9954 11.1913ZM101.708 10.2522H99.6737C99.6737 10.2522 98.7345 10.2522 98.578 10.8783C98.4998 11.1913 99.1258 11.5826 99.7519 11.9739C100.613 12.5217 101.787 13.2261 101.552 14.2435C101.317 15.4174 100.065 16.2 98.4998 16.2H96.3867L96.6215 14.7913H98.6563C98.6563 14.7913 99.5954 14.7913 99.7519 14.1652C99.8302 13.8522 99.2041 13.4609 98.578 13.0696C97.7171 12.5217 96.6215 11.8174 96.778 10.8C97.0128 9.62609 98.265 8.84348 99.8302 8.84348H101.943L101.708 10.2522ZM93.4911 10.2522C92.865 10.2522 92.3171 10.6435 92.2389 11.1913L91.6911 13.8522C91.6911 13.8522 91.6128 14.2435 91.8476 14.5565C92.0041 14.713 92.2389 14.7913 92.5519 14.7913C93.6476 14.7913 93.8041 13.8522 93.8041 13.8522L94.3519 11.1913C94.3519 11.1913 94.4302 10.8 94.1954 10.487C94.0389 10.3304 93.8041 10.2522 93.4911 10.2522ZM81.5172 24.4174H83.0824L82.8476 21.5217L81.5172 24.4174ZM64.4563 24.4174H66.0215L65.865 21.5217L64.4563 24.4174ZM60.2302 20.9739H59.1346L58.7432 22.8522H59.7606C59.8389 22.8522 60.8563 22.8522 61.0911 21.913C61.1693 21.6783 61.0911 21.4435 60.9346 21.287C60.6998 20.9739 60.2302 20.9739 60.2302 20.9739ZM65.865 21.5217L64.4563 24.4174H66.0215L65.865 21.5217ZM82.8476 21.5217L81.4389 24.4174H83.0041L82.8476 21.5217ZM94.1954 10.487C94.0389 10.3304 93.8041 10.2522 93.4911 10.2522C92.865 10.2522 92.3171 10.6435 92.2389 11.1913L91.6911 13.8522C91.6911 13.8522 91.6128 14.2435 91.8476 14.5565C92.0041 14.713 92.2389 14.7913 92.5519 14.7913C93.6476 14.7913 93.8041 13.8522 93.8041 13.8522L94.3519 11.1913C94.3519 11.1913 94.4302 10.7217 94.1954 10.487ZM94.1954 10.487C94.0389 10.3304 93.8041 10.2522 93.4911 10.2522C92.865 10.2522 92.3171 10.6435 92.2389 11.1913L91.6911 13.8522C91.6911 13.8522 91.6128 14.2435 91.8476 14.5565C92.0041 14.713 92.2389 14.7913 92.5519 14.7913C93.6476 14.7913 93.8041 13.8522 93.8041 13.8522L94.3519 11.1913C94.3519 11.1913 94.4302 10.7217 94.1954 10.487ZM82.8476 21.5217L81.4389 24.4174H83.0041L82.8476 21.5217ZM65.865 21.5217L64.4563 24.4174H66.0215L65.865 21.5217ZM82.8476 21.5217L81.4389 24.4174H83.0041L82.8476 21.5217ZM94.1954 10.487C94.0389 10.3304 93.8041 10.2522 93.4911 10.2522C92.865 10.2522 92.3171 10.6435 92.2389 11.1913L91.6911 13.8522C91.6911 13.8522 91.6128 14.2435 91.8476 14.5565C92.0041 14.713 92.2389 14.7913 92.5519 14.7913C93.6476 14.7913 93.8041 13.8522 93.8041 13.8522L94.3519 11.1913C94.3519 11.1913 94.4302 10.7217 94.1954 10.487ZM94.1954 10.487C94.0389 10.3304 93.8041 10.2522 93.4911 10.2522C92.865 10.2522 92.3171 10.6435 92.2389 11.1913L91.6911 13.8522C91.6911 13.8522 91.6128 14.2435 91.8476 14.5565C92.0041 14.713 92.2389 14.7913 92.5519 14.7913C93.6476 14.7913 93.8041 13.8522 93.8041 13.8522L94.3519 11.1913C94.3519 11.1913 94.4302 10.7217 94.1954 10.487ZM82.8476 21.5217L81.4389 24.4174H83.0041L82.8476 21.5217ZM82.8476 21.5217L81.4389 24.4174H83.0041L82.8476 21.5217ZM94.1954 10.487C94.0389 10.3304 93.8041 10.2522 93.4911 10.2522C92.865 10.2522 92.3171 10.6435 92.2389 11.1913L91.6911 13.8522C91.6911 13.8522 91.6128 14.2435 91.8476 14.5565C92.0041 14.713 92.2389 14.7913 92.5519 14.7913C93.6476 14.7913 93.8041 13.8522 93.8041 13.8522L94.3519 11.1913C94.3519 11.1913 94.4302 10.7217 94.1954 10.487ZM94.1954 10.487C94.0389 10.3304 93.8041 10.2522 93.4911 10.2522C92.865 10.2522 92.3171 10.6435 92.2389 11.1913L91.6911 13.8522C91.6911 13.8522 91.6128 14.2435 91.8476 14.5565C92.0041 14.713 92.2389 14.7913 92.5519 14.7913C93.6476 14.7913 93.8041 13.8522 93.8041 13.8522L94.3519 11.1913C94.3519 11.1913 94.4302 10.7217 94.1954 10.487ZM82.8476 21.5217L81.4389 24.4174H83.0041L82.8476 21.5217ZM94.1954 10.487C94.0389 10.3304 93.8041 10.2522 93.4911 10.2522C92.865 10.2522 92.3171 10.6435 92.2389 11.1913L91.6911 13.8522C91.6911 13.8522 91.6128 14.2435 91.8476 14.5565C92.0041 14.713 92.2389 14.7913 92.5519 14.7913C93.6476 14.7913 93.8041 13.8522 93.8041 13.8522L94.3519 11.1913C94.3519 11.1913 94.4302 10.7217 94.1954 10.487ZM94.1954 10.487C94.0389 10.3304 93.8041 10.2522 93.4911 10.2522C92.865 10.2522 92.3171 10.6435 92.2389 11.1913L91.6911 13.8522C91.6911 13.8522 91.6128 14.2435 91.8476 14.5565C92.0041 14.713 92.2389 14.7913 92.5519 14.7913C93.6476 14.7913 93.8041 13.8522 93.8041 13.8522L94.3519 11.1913C94.3519 11.1913 94.4302 10.7217 94.1954 10.487Z" fill="#1A2953"/>
<path d="M41.3692 11.9739V23.713C42.8562 22.1478 43.7953 20.113 43.7953 17.8435C43.7953 15.5739 42.8562 13.5391 41.3692 11.9739ZM29.2391 11.8174H30.8043V22.2261H32.4478V15.1044H34.326V11.8957H36.2043V15.1044H38.0826V22.3043H39.6478V11.8174H41.2913C39.6478 10.3304 37.5347 9.39131 35.1869 9.39131C32.9956 9.39131 30.8043 10.2522 29.2391 11.8174ZM35.1869 26.2957C37.2217 26.2957 39.1782 25.5913 40.7434 24.2609H29.6304C31.1173 25.5913 33.0739 26.2957 35.1869 26.2957ZM34.0909 16.8261V22.2261H36.1256V16.8261H34.0909ZM26.5782 17.8435C26.5782 20.113 27.5173 22.1478 28.926 23.713V12.0522C27.5173 13.5391 26.5782 15.5739 26.5782 17.8435Z" fill="#1A2953"/>
</svg>
