<svg width="106" height="20" viewBox="0 0 106 20" fill="none" xmlns="http://www.w3.org/2000/svg">
<path fill-rule="evenodd" clip-rule="evenodd" d="M6.18081 0L5.77891 0.0735125L5.24163 0.257294L4.94127 0.468642L4.7382 0.624856L4.37014 1.02458L3.89632 1.71836L3.69749 2.22835L3.55788 2.7705L0.401901 16.1728L0.203066 17.009L0.131147 17.2617L0.0973023 17.4776L0.0338443 17.7717V18.0335L0 18.2495L0.063458 18.8697L0.203066 19.2006L0.368057 19.4532L0.541508 19.6692L0.803802 19.8208L1.1084 19.9311L1.44261 19.9632L1.74721 20H15.5261L15.6614 19.9632L15.6911 19.9311L15.7587 19.6324L16.1691 18.0335L16.2664 17.519L16.5372 16.4209L16.9052 14.8541L16.9729 14.6382L17.0025 14.4498L16.9729 14.413L16.9052 14.3855H10.4537L10.4198 14.3441V14.2706L10.4875 13.9812L10.6483 13.3241L10.754 12.8877L11.2236 10.765L11.4944 9.70365L11.9301 7.87962L12.2982 6.35424L12.6662 4.85183L12.7339 4.74615L12.8058 4.7094H17.3071L17.3748 4.67723L17.4044 4.59913L17.709 3.28969L18.0136 2.08592L18.2167 1.20377L18.479 0.0367563L18.4494 0H6.18081ZM22.5784 0L22.4134 0.0367563L22.3838 0.0735125L22.3161 0.362968L22.2103 0.872961L18.2844 17.4776L18.1786 18.0335L18.1448 18.5022L18.2505 18.9387L18.4155 19.3062L18.7497 19.6692L19.0205 19.8208L19.4562 19.9311L19.7608 19.9632L19.9639 20H31.8263L31.894 19.9632V19.8943L32.0928 19.0122L32.1944 18.686L32.4271 17.666L33.2055 14.4498L33.1716 14.413L33.1335 14.3855H28.8353L28.6957 14.3441L28.6619 14.3074L28.9665 13.0623L31.894 0.546749L31.9913 0.179187L32.0252 0.0735125L31.9913 0H22.5784ZM40.3974 0L40.1562 0.0367563L39.9236 0.0735125L39.6866 0.14243L39.3863 0.257294L38.8744 0.5881L38.6459 0.767287L38.3794 1.02458L38.1383 1.31863L38.0071 1.60809L37.8379 1.97105L37.4698 3.31725L33.7047 18.9065L33.4678 19.9632L33.5016 20H42.4153L42.5803 19.9632L42.6057 19.9311L43.0542 18.2127L43.1853 17.5557L43.4518 16.499L43.8537 14.7439L43.9214 14.5279L43.9553 14.4866L44.0187 14.4498H47.9235L47.9573 14.4866L47.9912 14.5555V19.9311L48.0166 20H57.0995L57.163 19.9632L57.1968 19.8943V0.110269L57.163 0.0367563L57.0995 0H48.0166L47.9912 0.0735125V9.70365L47.9573 9.77716H45.0975L45.0594 9.74041L45.0975 9.59798L45.1694 9.37744L45.5036 8.10476L45.8082 6.71261L45.9732 6.05559L46.1721 5.2929L46.3371 4.49345L46.7093 2.95888L46.8828 2.41213L47.2551 0.872961L47.4454 0.0735125L47.4116 0.0367563L47.3481 0H40.3974ZM65.7933 0L65.3618 0.0735125L64.8287 0.220538L64.3549 0.505399L64.1561 0.657018L63.8176 0.992419L63.6103 1.27728L63.4538 1.75511L63.2127 2.59132L59.2486 19.0949L59.0456 19.7749V19.9311L59.0794 19.9632L59.1429 20H67.8112L67.9551 19.9632L67.9847 19.9311L68.6235 17.3765L68.6574 17.1881L68.962 16.0211L69.2623 14.7117L69.33 14.5279L69.3596 14.4866L69.4612 14.4498H73.3321L73.3659 14.5279V19.8943L73.3956 19.9632L73.4294 20H82.5377L82.5716 19.9632L82.6054 19.8943V0.110269L82.5716 0.0367563L82.5377 0H73.4294L73.3956 0.0367563L73.3659 0.110269V9.77716L73.3321 9.82311H70.468L70.4046 9.77716V9.74041L70.6076 8.86745L72.5198 1.09809L72.7525 0.14243V0.0367563L72.6933 0H65.7933ZM90.4658 0L90.1654 0.0367563L89.8946 0.110269L89.5266 0.289456L89.057 0.657018L88.7524 1.06134L88.5113 1.46106L88.3801 1.86079L88.2828 2.12267L87.9063 3.79508L87.8428 4.01562L87.0052 7.66827L86.7979 8.36205L86.7725 8.68826V9.30852L86.8698 9.56122L87.1363 10.0712L87.4409 10.3331L87.644 10.4388L87.9824 10.5399H93.6894L93.7317 10.5858V10.6961L93.5921 11.422L93.1522 13.4298L92.9533 14.1971L92.9195 14.3441L92.8518 14.3855H85.626L85.4907 14.413L85.423 14.4498V14.5922L85.2918 15.1849L84.5134 18.4654L84.175 19.9311V19.9632L84.2511 20H99.1003L99.3372 19.9632H99.7433L100.479 19.8208L100.953 19.6003L101.351 19.3062L101.656 19.0122L101.931 18.6446L102.159 18.2816L102.362 17.7717L102.531 17.0457L102.895 15.4376L103.305 13.6871L103.369 13.4666L103.872 11.275L103.948 10.8385L104.008 10.6226L104.08 10.2182V9.59798L104.008 9.19366L103.872 8.79853L103.673 8.5734L103.47 8.39421L103.136 8.21043L102.73 8.14151H96.8496L96.7143 8.10476L96.6846 8.068L96.7862 7.59017L97.1542 5.98668L97.4884 4.64048L97.5223 4.55778H104.312L104.41 4.49345L104.477 4.35102L104.575 3.9467L104.816 2.84861L105.188 1.24052L105.455 0.0367563L105.421 0H90.4658Z" fill="#182751"/>
</svg>
