<svg width="20" height="24" viewBox="0 0 20 24" fill="none" xmlns="http://www.w3.org/2000/svg">
<path fill-rule="evenodd" clip-rule="evenodd" d="M0.351472 0.351472C0.576516 0.126428 0.88174 0 1.2 0H12C12.3182 6.79649e-05 12.6234 0.126541 12.8484 0.3516L18.8484 6.3516C19.0735 6.57659 19.1999 6.88177 19.2 7.2V20.4C19.2 21.3548 18.8207 22.2705 18.1456 22.9456C17.4705 23.6207 16.5548 24 15.6 24H3.6C2.64522 24 1.72955 23.6207 1.05442 22.9456C0.379285 22.2705 0 21.3548 0 20.4V1.2C0 0.88174 0.126428 0.576515 0.351472 0.351472ZM13.2604 7.2C14.3833 7.2 14.9456 5.84239 14.1516 5.0484C13.3576 4.25441 12 4.81674 12 5.93962C12 6.63571 12.5643 7.2 13.2604 7.2ZM11.0719 14.3151C11.285 14.3151 11.4783 14.1903 11.5661 13.9962C11.7284 13.6372 11.4659 13.2304 11.0719 13.2304H8.71709C8.56254 13.2304 8.45002 13.0828 8.50472 12.9382C8.69293 12.4495 8.95708 12.0896 9.29717 11.8585C9.63727 11.6274 10.0368 11.5118 10.4958 11.5118C10.7863 11.5118 11.0505 11.5514 11.2882 11.6307C11.5292 11.7066 11.7422 11.8007 11.9271 11.913C12.1836 12.0614 12.5225 11.9693 12.6481 11.7009L12.8858 11.1928C13.0704 10.7982 12.9675 10.3174 12.5848 10.1092C12.3901 10.0032 12.1857 9.91271 11.9717 9.83774C11.5193 9.67925 11.0274 9.6 10.4958 9.6C9.63066 9.6 8.86462 9.80802 8.19764 10.2241C7.53396 10.6368 7.01392 11.2328 6.6375 12.012C6.53312 12.2281 6.44322 12.4562 6.36778 12.6964C6.27133 13.0036 5.99792 13.2304 5.67598 13.2304H5.57883C5.35187 13.2304 5.14891 13.3718 5.07017 13.5846L5.057 13.6202C4.93239 13.9572 5.18164 14.3151 5.54085 14.3151H5.58146C5.85584 14.3151 6.07288 14.5459 6.07288 14.8203C6.07288 15.0841 5.86396 15.3057 5.60013 15.3057H5.55439C5.34241 15.3057 5.15315 15.4385 5.08107 15.6378L5.0688 15.6717C4.93804 16.0334 5.20593 16.4151 5.59046 16.4151H5.71112C6.0129 16.4151 6.2695 16.6275 6.35839 16.9159C6.43572 17.1668 6.52875 17.4044 6.6375 17.6285C7.01392 18.4012 7.53396 18.9939 8.19764 19.4066C8.86462 19.816 9.63066 20.0208 10.4958 20.0208C11.0075 20.0208 11.4913 19.9465 11.9469 19.7979C12.1626 19.726 12.3675 19.6378 12.5618 19.5334C12.9422 19.3288 13.0408 18.8509 12.8559 18.4606L12.5998 17.9198C12.4794 17.6658 12.1553 17.5813 11.9123 17.7226C11.734 17.8283 11.5259 17.9191 11.2882 17.995C11.0505 18.071 10.7863 18.109 10.4958 18.109C10.0368 18.109 9.63727 17.9967 9.29717 17.7722C8.95708 17.5443 8.69293 17.1894 8.50472 16.7073C8.44968 16.5628 8.56224 16.4151 8.71683 16.4151H10.0794C10.2917 16.4151 10.4854 16.294 10.5782 16.1031C10.7575 15.7346 10.4892 15.3057 10.0794 15.3057H8.72619C8.45364 15.3057 8.22736 15.0928 8.22736 14.8203C8.22736 14.5363 8.46346 14.3151 8.74742 14.3151H11.0719Z" fill="white"/>
</svg>
