<svg width="85" height="20" viewBox="0 0 85 20" fill="none" xmlns="http://www.w3.org/2000/svg">
<path d="M78.0566 5.8658C74.4748 5.8658 71.5677 9.02811 71.5677 12.9304C71.5677 13.3744 71.6085 13.8036 71.6854 14.223H74.9547C74.8144 13.8234 74.7329 13.3892 74.7329 12.9304C74.7329 10.9324 76.2227 9.31425 78.0566 9.31425C79.8951 9.31425 81.3803 10.9324 81.3803 12.9304C81.3803 14.9334 79.8951 16.5515 78.0566 16.5515C77.6445 16.5515 77.246 16.4628 76.8793 16.3147V19.8766C77.2597 19.9556 77.6536 20 78.0566 20C79.4377 20 80.5245 19.4573 81.5071 18.3226V19.9506H84.5455V12.9304C84.5455 9.02809 81.6383 5.8658 78.0566 5.8658ZM54.6551 5.72273C51.0371 5.72273 48.1073 8.91957 48.1073 12.8614C48.1073 13.3054 48.1435 13.7444 48.2158 14.1638H51.5213C51.381 13.7592 51.3041 13.3202 51.3041 12.8614C51.3041 10.8387 52.8075 9.20571 54.655 9.20571C56.507 9.20571 58.0149 10.8387 58.0149 12.8614C58.0149 14.8791 56.507 16.517 54.655 16.517C54.2384 16.517 53.8354 16.4282 53.4686 16.2753V19.8767C53.8535 19.9556 54.252 20 54.655 20C58.273 20 61.2117 16.8031 61.2117 12.8614C61.2117 8.91958 58.2731 5.72273 54.6551 5.72273ZM19.9557 12.8614V5.72274H16.7588V12.8614C16.7588 13.3054 16.7949 13.7444 16.8718 14.1638H20.1773C20.0324 13.7592 19.9557 13.3202 19.9557 12.8614ZM26.2225 5.72274V12.8614C26.2225 14.8791 24.7192 16.517 22.8671 16.517C22.446 16.517 22.0476 16.4282 21.6762 16.2753V19.8767C22.0611 19.9556 22.4596 20 22.8671 20C26.4851 20 29.4194 16.8032 29.4194 12.8614V5.72275L26.2225 5.72274ZM39.4176 5.72274C38.2041 5.72274 37.072 6.08288 36.0984 6.70942V1.00291e-05H32.8291V14.1638H36.2841C36.1438 13.7592 36.0623 13.3202 36.0623 12.8614C36.0623 10.8387 37.5611 9.20572 39.4177 9.20572C41.2697 9.20572 42.773 10.8387 42.773 12.8614C42.773 14.8791 41.2697 16.517 39.4177 16.517C38.9966 16.517 38.5981 16.4282 38.2268 16.2753V19.8767C38.6117 19.9556 39.0056 20 39.4177 20C43.0357 20 45.9654 16.8032 45.9654 12.8614C45.9654 8.9196 43.0356 5.72274 39.4176 5.72274ZM16.7723 2.25655e-05H12.6155L4.29273 10L12.6155 19.9951H16.7723L8.47673 10L16.7723 2.25655e-05ZM70.3224 5.72276H67.1074V1.53637e-05H63.8426V19.9507H67.1074V9.28465H70.3224V5.72276ZM3.26029 14.1835H0V0H3.26029V14.1835Z" fill="#182751"/>
</svg>
