<svg width="110" height="34" viewBox="0 0 110 34" fill="none" xmlns="http://www.w3.org/2000/svg">
<mask id="mask0_2040_484" style="mask-type:luminance" maskUnits="userSpaceOnUse" x="0" y="0" width="110" height="34">
<path d="M0 33.9927H109.79V0.000938416H0V33.9927Z" fill="white"/>
</mask>
<g mask="url(#mask0_2040_484)">
<path d="M109.791 17.1149C109.769 24.3642 108.184 30.3666 106.103 31.5834L106.088 31.5931C106.074 31.6028 106.057 31.6106 106.04 31.6203C104.857 32.3045 102.881 32.8167 100.528 33.0189H100.512C100.48 33.0237 100.448 33.0256 100.416 33.0286C93.7201 33.5913 75.1628 33.9927 54.8903 33.9927C34.6186 33.9927 16.0711 33.5913 9.37482 33.0286C9.34275 33.0256 9.31166 33.0237 9.27958 33.0189H9.26306C6.91013 32.8167 4.93137 32.3045 3.7515 31.6203C3.73401 31.6106 3.71747 31.6028 3.70289 31.5931L3.68833 31.5834C1.59488 30.3617 0.00485944 24.301 0 17.0061V16.9186C0.0145783 9.65274 1.60266 3.62805 3.68833 2.40931L3.70289 2.40147C3.71747 2.39176 3.73401 2.38207 3.7515 2.37235C4.93137 1.69008 6.91013 1.17788 9.26306 0.973778H9.27958C9.31166 0.971832 9.34275 0.96896 9.37482 0.967014C16.0711 0.401379 34.6186 -7.62939e-06 54.8903 -7.62939e-06C75.1628 -7.62939e-06 93.7201 0.401379 100.416 0.967014C100.448 0.96896 100.48 0.971832 100.512 0.973778H100.528C102.881 1.17788 104.857 1.69008 106.04 2.37235C106.057 2.38207 106.074 2.39176 106.088 2.40147L106.103 2.40931C108.198 3.63291 109.791 9.71104 109.791 17.0255" fill="#182751"/>
</g>
<path fill-rule="evenodd" clip-rule="evenodd" d="M28.2868 24.6676L29.2023 26.7241H27.4364L28.2868 24.6676ZM28.5881 23.4168H28.0127L25.5723 29.1315H26.4052L27.1215 27.4579H29.5376L30.2947 29.1315H31.1276" fill="white"/>
<path d="M36.7315 26.3334H34.8257V27.0672H35.9152V28.2325C35.5245 28.3559 35.124 28.456 34.6848 28.456C33.3348 28.456 32.3853 27.5648 32.3853 26.2994C32.3853 25.0661 33.3445 24.1262 34.5749 24.1262C35.2572 24.1262 35.9492 24.3177 36.6149 24.6851V23.859C35.7237 23.4848 35.2572 23.3759 34.5924 23.3759C32.8615 23.3759 31.5456 24.6511 31.5456 26.3237C31.5456 27.9895 32.8275 29.2063 34.5681 29.2063C35.3592 29.2063 35.9735 29.0732 36.7315 28.7398" fill="white"/>
<path fill-rule="evenodd" clip-rule="evenodd" d="M39.1642 24.1505H39.689C40.4801 24.1505 40.796 24.4761 40.8057 25.0077C40.8125 25.484 40.5627 25.933 39.689 25.933H39.1642V24.1505ZM38.3488 23.4508V29.1315H39.1642V26.6658H39.5063C39.9223 26.6658 40.2644 26.7999 41.0117 27.9652L41.762 29.1315H42.7388C42.3452 28.5892 42.2042 28.3977 41.9613 28.007C41.5288 27.2975 41.2139 26.7727 40.6968 26.4335C41.3062 26.1905 41.6454 25.6997 41.6454 25.0418C41.6454 24.0582 40.9291 23.4508 39.7813 23.4508" fill="white"/>
<path d="M43.7845 29.1315H44.6004V23.4512H43.7845V29.1315Z" fill="white"/>
<path d="M51.1126 23.8425C50.338 23.5169 49.748 23.3759 49.1659 23.3759C47.3562 23.3759 46.05 24.6413 46.05 26.3752C46.05 27.5648 46.983 29.2063 49.1144 29.2063C50.0056 29.2063 50.613 28.9973 51.1709 28.7058V27.8146C50.5304 28.2325 49.8306 28.456 49.1902 28.456C47.8227 28.456 46.8907 27.5745 46.8907 26.2994C46.8907 25.0486 47.8567 24.1262 49.1562 24.1262C49.8141 24.1262 50.4138 24.308 51.1126 24.7162" fill="white"/>
<path d="M57.3579 23.4508H56.5415V26.7581C56.5415 27.2907 56.4735 27.7077 56.1829 27.9992C55.9254 28.2568 55.4763 28.456 54.8524 28.456C54.3587 28.456 53.9515 28.2986 53.6259 27.973C53.3683 27.7154 53.2857 27.4482 53.2857 26.8067V23.4508H52.4703V26.9817C52.4703 28.5308 53.6356 29.2063 54.8349 29.2063C56.525 29.2063 57.3579 28.2908 57.3579 26.899" fill="white"/>
<path d="M59.7031 23.4508H58.8877V29.1315H62.2698V28.3977H59.7031" fill="white"/>
<path d="M66.7425 23.4508H61.9948V24.1846H63.9599V29.1315H64.7754V24.1846H66.7425" fill="white"/>
<path d="M72.6933 23.4508H71.8769V26.7581C71.8769 27.2907 71.8118 27.7077 71.5203 27.9992C71.2608 28.2568 70.8118 28.456 70.1878 28.456C69.6941 28.456 69.2869 28.2986 68.9632 27.973C68.7037 27.7154 68.6211 27.4482 68.6211 26.8067V23.4508H67.8057V26.9817C67.8057 28.5308 68.971 29.2063 70.1703 29.2063C71.8604 29.2063 72.6933 28.2908 72.6933 26.899" fill="white"/>
<path fill-rule="evenodd" clip-rule="evenodd" d="M75.0657 24.1505H75.5896C76.3816 24.1505 76.6965 24.4761 76.7063 25.0077C76.714 25.484 76.4642 25.933 75.5896 25.933H75.0657V24.1505ZM74.2493 23.4508V29.1315H75.0657V26.6658H75.4078C75.8228 26.6658 76.1649 26.7999 76.9152 27.9652L77.6636 29.1315H78.6374C78.2457 28.5892 78.1048 28.3977 77.8628 28.007C77.4303 27.2975 77.1144 26.7727 76.5974 26.4335C77.2068 26.1905 77.5469 25.6997 77.5469 25.0418C77.5469 24.0582 76.8307 23.4508 75.6819 23.4508" fill="white"/>
<path d="M82.9011 23.4508H79.6763V29.1315H82.9759V28.3977H80.4947V26.6318H82.8185V25.899H80.4947V24.1846H82.9011" fill="white"/>
<path fill-rule="evenodd" clip-rule="evenodd" d="M21.0103 7.14912L18.9897 9.1065C18.3969 9.68186 17.9654 10.231 17.6417 10.748C17.1859 11.4789 16.734 12.7171 16.7097 13.689C16.7097 13.689 16.6854 14.17 16.6883 14.6259C16.6854 14.7862 16.6834 14.9495 16.6903 15.0807C16.7 15.2576 16.9089 15.3081 17.0032 15.2168L22.3311 10.1114C22.5226 9.92969 22.5731 9.68672 22.5566 9.47096C22.4934 8.64777 21.9278 7.50386 21.5711 7.17148C21.3252 6.94017 21.124 7.03735 21.0103 7.14912ZM17.2782 5.30351C17.0839 5.28213 16.9109 5.35016 16.8409 5.47845C16.7758 5.59799 16.7826 5.72628 16.7709 5.8915C16.7223 6.53003 16.7029 7.57675 16.7 7.68366L16.6757 9.63327C16.6708 10.0104 16.9449 9.95885 17.045 9.86166C17.1538 9.74989 18.0431 8.8956 18.8926 8.07436L20.4174 6.6C20.5244 6.49893 20.5729 6.32885 20.3912 6.16363C20.226 6.01299 19.6623 5.76029 18.8372 5.5494C18.5796 5.48136 18.2297 5.41527 17.9314 5.37154C17.5718 5.321 17.2782 5.30351 17.2782 5.30351ZM22.7072 11.2651C22.7169 11.3039 22.7121 11.3166 22.714 11.3282C22.8238 12.443 22.7237 13.5597 22.6557 14.2721C22.336 17.5814 19.8926 18.3997 18.8615 18.6913C18.4261 18.8157 17.5018 18.9507 17.1956 18.9605C16.7661 18.975 16.6737 18.7641 16.6835 18.5941C16.7729 16.6901 18.74 14.6696 18.74 14.6696C18.7857 14.5996 19.084 14.311 19.4271 13.9825C19.9198 13.4897 22.3914 11.1368 22.3914 11.1368C22.4234 11.1028 22.4691 11.0804 22.5226 11.0804C22.6217 11.0804 22.6994 11.1416 22.7072 11.2651ZM11.4187 7.14912L13.4393 9.1065C14.0321 9.68186 14.4617 10.231 14.7844 10.748C15.2431 11.4789 15.695 12.7171 15.7164 13.689C15.7164 13.689 15.7407 14.17 15.7388 14.6259C15.7436 14.7862 15.7456 14.9495 15.7388 15.0807C15.7261 15.2576 15.5172 15.3081 15.4229 15.2168L10.0979 10.1114C9.90648 9.92969 9.85594 9.68672 9.87247 9.47096C9.93272 8.64777 10.5013 7.50386 10.856 7.17148C11.1038 6.94017 11.305 7.03735 11.4187 7.14912ZM15.1488 5.30351C15.3452 5.28213 15.5152 5.35016 15.5852 5.47845C15.6513 5.59799 15.6435 5.72628 15.6562 5.8915C15.7048 6.53003 15.7261 7.57675 15.7261 7.68366L15.7504 9.63327C15.7553 10.0104 15.4812 9.95885 15.384 9.86166C15.2752 9.74989 14.3859 8.89755 13.5336 8.07436L12.0116 6.6C11.9047 6.49893 11.8561 6.32885 12.0378 6.16363C12.2031 6.01299 12.7667 5.76029 13.5899 5.5494C13.8494 5.48136 14.1964 5.41527 14.4977 5.37154C14.8573 5.321 15.1488 5.30351 15.1488 5.30351ZM9.72182 11.2651C9.71211 11.3039 9.71501 11.3166 9.71501 11.3282C9.60519 12.443 9.70238 13.5597 9.77333 14.2721C10.0911 17.5814 12.5335 18.3997 13.5656 18.6913C14.0001 18.8157 14.9253 18.9507 15.2334 18.9605C15.661 18.975 15.7534 18.7641 15.7456 18.5941C15.6562 16.6901 13.6891 14.6696 13.6891 14.6696C13.6405 14.5996 13.345 14.311 13.0019 13.9825C12.514 13.4946 10.0377 11.1368 10.0377 11.1368C10.0037 11.1028 9.95701 11.0804 9.90648 11.0804C9.80443 11.0804 9.72668 11.1416 9.72182 11.2651Z" fill="white"/>
<path fill-rule="evenodd" clip-rule="evenodd" d="M35.8791 9.12796C34.4591 9.12796 33.8538 10.2765 33.8538 12.9745C33.8538 13.4002 33.8683 13.7862 33.9004 14.1361C34.0656 16.006 34.6817 16.8213 35.8791 16.8213H39.6259C39.6911 16.8213 39.7443 16.7678 39.7443 16.6998V15.5345C39.7443 15.4665 39.6911 15.413 39.6259 15.413H36.9618C36.644 15.413 36.4448 14.9952 36.3574 14.1361C36.3409 13.9742 36.3283 13.7953 36.3186 13.6016H39.2905C39.3585 13.6016 39.412 13.5481 39.412 13.4829V12.3146C39.412 12.2485 39.3585 12.1951 39.2905 12.1951H36.3186C36.3749 10.9764 36.5857 10.3835 36.9618 10.3835H39.6015C39.6374 10.3835 39.6715 10.3689 39.6939 10.3398C39.7152 10.3135 39.725 10.2767 39.7201 10.2427L39.5382 9.22502C39.5285 9.16962 39.4771 9.12796 39.4217 9.12796H35.8791ZM40.3441 9.12796C40.3101 9.12796 40.276 9.14238 40.2546 9.16959C40.2303 9.19583 40.2205 9.23284 40.2273 9.26978L41.556 16.7221C41.5657 16.7804 41.6163 16.8213 41.6746 16.8213H44.1732C44.2315 16.8213 44.2831 16.7804 44.2919 16.7221L45.1295 12.0736L45.9703 16.7221C45.98 16.7804 46.0306 16.8213 46.0889 16.8213H48.5876C48.6459 16.8213 48.6944 16.7804 48.7041 16.7221L50.0346 9.26978C50.0414 9.23284 50.0318 9.19583 50.0076 9.16959C49.9862 9.14238 49.9521 9.12796 49.9152 9.12796H47.8975C47.8391 9.12796 47.7888 9.16957 47.7791 9.22788L47.0317 13.7687L46.2152 9.22502C46.2035 9.16962 46.1551 9.12796 46.0968 9.12796H44.1665C44.1082 9.12796 44.0567 9.16962 44.047 9.22502L43.2315 13.7687L42.4831 9.22788C42.4734 9.16957 42.423 9.12796 42.3647 9.12796H40.3441ZM53.101 9.12796C53.0359 9.12796 52.9795 9.18131 52.9795 9.2474V16.6998C52.9795 16.7678 53.0359 16.8213 53.101 16.8213H55.279C55.3471 16.8213 55.4006 16.7678 55.4006 16.6998V13.6792H57.3871V16.6998C57.3871 16.7678 57.4405 16.8213 57.5086 16.8213H59.6866C59.7517 16.8213 59.8052 16.7678 59.8052 16.6998V9.2474C59.8052 9.18131 59.7517 9.12796 59.6866 9.12796H57.5086C57.4405 9.12796 57.3871 9.18131 57.3871 9.2474V12.1855H55.4006V9.2474C55.4006 9.18131 55.3471 9.12796 55.279 9.12796H53.101ZM62.5953 9.12796C61.1744 9.12796 60.57 10.2765 60.57 12.9745C60.57 13.4002 60.5845 13.7862 60.6156 14.1361C60.7808 16.006 61.3999 16.8213 62.5953 16.8213H65.6617C66.8561 16.8213 67.4752 16.006 67.6404 14.1361C67.6715 13.7862 67.6862 13.4002 67.6862 12.9745C67.6862 10.2765 67.0797 9.12796 65.6617 9.12796H62.5953ZM68.5753 9.12796C68.5093 9.12796 68.4559 9.18131 68.4559 9.2474V16.6998C68.4559 16.7678 68.5093 16.8213 68.5753 16.8213H72.776C72.8411 16.8213 72.8944 16.7678 72.8944 16.6998V15.5345C72.8944 15.4665 72.8411 15.413 72.776 15.413H70.8749V9.2474C70.8749 9.18131 70.8214 9.12796 70.7534 9.12796H68.5753ZM73.7128 9.12796C73.6477 9.12796 73.5941 9.18131 73.5941 9.2474V16.6998C73.5941 16.7678 73.6477 16.8213 73.7128 16.8213H77.5713C77.6248 16.8213 77.6734 16.7855 77.685 16.732L77.9939 15.5636C78.0036 15.5267 77.9961 15.4908 77.9718 15.4616C77.9504 15.4325 77.9133 15.413 77.8773 15.413H76.0123V9.2474C76.0123 9.18131 75.9588 9.12796 75.8937 9.12796H73.7128ZM80.3343 9.12796C80.2808 9.12796 80.2323 9.16492 80.2177 9.21643L78.2604 16.6706C78.2506 16.7075 78.2582 16.7466 78.2796 16.7757C78.3039 16.8049 78.3382 16.8213 78.3751 16.8213H80.4558C80.5112 16.8213 80.5598 16.7823 80.5724 16.7289L80.9213 15.241H83.0051L83.352 16.7289C83.3647 16.7823 83.4132 16.8213 83.4686 16.8213H85.5496C85.5865 16.8213 85.6205 16.8049 85.6448 16.7757C85.6691 16.7437 85.6759 16.7075 85.6661 16.6706L83.6893 9.21643C83.6776 9.16492 83.6291 9.12796 83.5737 9.12796H80.3343ZM86.2394 9.12796C86.1733 9.12796 86.12 9.18131 86.12 9.2474V16.6998C86.12 16.7678 86.1733 16.8213 86.2394 16.8213H88.4174C88.4854 16.8213 88.5457 16.7678 88.5457 16.6998L88.5389 12.9289L89.2475 14.1361L90.7841 16.7612C90.8064 16.8 90.8452 16.8213 90.8889 16.8213H92.7755C92.8406 16.8213 92.8921 16.7678 92.8921 16.6998V9.2474C92.8921 9.18131 92.8406 9.12796 92.7755 9.12796H90.5954C90.5293 9.12796 90.476 9.18131 90.476 9.2474V13.0231L88.2251 9.18625C88.2008 9.15029 88.1618 9.12796 88.121 9.12796H86.2394ZM94.0993 9.12796C94.0312 9.12796 93.9777 9.18131 93.9777 9.2474V16.6998C93.9777 16.7678 94.0312 16.8213 94.0993 16.8213H98.2219C98.9479 16.8213 99.5348 16.6006 99.9692 16.1681C100.414 15.7211 100.703 15.0418 100.831 14.1379C100.88 13.7783 100.907 13.381 100.907 12.9485C100.907 10.5197 100.016 9.12796 98.4589 9.12796H94.0993ZM26.4363 9.16283C26.3712 9.16283 26.3177 9.21632 26.3177 9.28435V16.7367C26.3177 16.8018 26.3712 16.8554 26.4363 16.8554H28.6143C28.6824 16.8554 28.7359 16.8018 28.7359 16.7367V12.963L30.9818 16.7971C31.0032 16.834 31.0421 16.8554 31.0859 16.8554H32.9704C33.0365 16.8554 33.089 16.8018 33.089 16.7367V9.28435C33.089 9.21632 33.0365 9.16283 32.9704 9.16283H30.7924C30.7243 9.16283 30.6708 9.21632 30.6708 9.28435V13.0601L28.42 9.22033C28.3986 9.18632 28.3596 9.16283 28.3159 9.16283H26.4363ZM63.6781 10.3835H64.5761C64.6733 10.3835 64.7529 10.4204 64.8287 10.4933C65.1028 10.7674 65.2342 11.5547 65.2342 12.8998C65.2342 13.3828 65.2177 13.793 65.1837 14.1361C65.1224 14.7426 65.0037 15.1292 64.8287 15.3032C64.7529 15.379 64.6733 15.413 64.5761 15.413H63.6781C63.5828 15.413 63.5002 15.379 63.4254 15.3032C63.2504 15.1292 63.1338 14.7426 63.0736 14.1361C63.0366 13.793 63.0202 13.3828 63.0202 12.8998C63.0202 11.2068 63.2359 10.3835 63.6781 10.3835ZM96.3957 10.4595H97.5882C97.7185 10.4595 97.8478 10.5197 97.9596 10.6344C98.188 10.8598 98.4571 11.3894 98.4571 12.6198C98.4571 13.2156 98.4008 13.723 98.29 14.1361C98.1783 14.553 98.008 14.8765 97.7844 15.102C97.5269 15.3596 97.1899 15.4879 96.7797 15.4879H96.3957V10.4595ZM81.9632 10.7918L82.6552 13.7473H81.2713L81.9632 10.7918Z" fill="white"/>
</svg>
