<svg width="24" height="24" viewBox="0 0 24 24" fill="none" xmlns="http://www.w3.org/2000/svg">
<path d="M15.3636 10.9831L11.4561 8.37733C11.2719 8.25441 11.0577 8.18386 10.8365 8.17323C10.6152 8.16259 10.3953 8.21227 10.2001 8.31695C10.0049 8.42163 9.84185 8.57739 9.72832 8.76756C9.6148 8.95774 9.55508 9.17518 9.55556 9.39667V14.607C9.55552 14.8283 9.61556 15.0454 9.72926 15.2352C9.84297 15.4251 10.0061 15.5805 10.2012 15.6848C10.3963 15.7892 10.6161 15.8387 10.8371 15.828C11.0581 15.8172 11.272 15.7467 11.4561 15.6239L15.3636 13.0181C15.5309 12.9065 15.6682 12.7553 15.7631 12.5779C15.8581 12.4005 15.9077 12.2024 15.9077 12.0012C15.9077 11.8 15.8581 11.6019 15.7631 11.4246C15.6682 11.2472 15.5309 11.0947 15.3636 10.9831Z" stroke="white" stroke-width="2" stroke-linecap="round" stroke-linejoin="round"/>
<path d="M23 12C23 13.4445 22.7155 14.8749 22.1627 16.2095C21.6099 17.5441 20.7996 18.7567 19.7782 19.7782C18.7567 20.7996 17.5441 21.6099 16.2095 22.1627C14.8749 22.7155 13.4445 23 12 23C10.5555 23 9.12506 22.7155 7.79048 22.1627C6.4559 21.6099 5.24327 20.7996 4.22183 19.7782C3.20038 18.7567 2.39013 17.5441 1.83733 16.2095C1.28452 14.8749 1 13.4445 1 12C1 9.08262 2.15893 6.28473 4.22183 4.22183C6.28473 2.15893 9.08262 1 12 1C14.9174 1 17.7153 2.15893 19.7782 4.22183C21.8411 6.28473 23 9.08262 23 12Z" stroke="white" stroke-width="2" stroke-linecap="round" stroke-linejoin="round"/>
</svg>
