<svg width="56" height="40" viewBox="0 0 56 40" fill="none" xmlns="http://www.w3.org/2000/svg">
<path d="M20.1121 5.75701C17.7695 7.00312 15.9003 8.09969 14.5047 9.04673C13.109 9.99377 11.9377 11.19 10.9907 12.6355C10.0935 14.081 9.64486 15.8255 9.64486 17.8692C10.3925 18.9657 11.2648 19.838 12.2617 20.486C13.3084 21.134 14.5794 21.5826 16.0748 21.8318C21.3084 22.7788 23.9252 25.595 23.9252 30.2804C23.9252 33.0717 22.9533 35.3894 21.0093 37.2336C19.0654 39.0779 16.5483 40 13.4579 40C10.8162 40 8.47352 39.352 6.42991 38.0561C4.38629 36.7601 2.79128 34.9408 1.64486 32.5981C0.548287 30.2555 0 27.5888 0 24.5981C0 20.9595 0.797508 17.3956 2.39252 13.9065C4.03738 10.3676 6.40498 7.35202 9.49533 4.85981C12.5857 2.3676 16.1994 0.747663 20.3364 0C21.7321 1.14642 22.6293 2.54206 23.028 4.18692L20.1121 5.75701ZM51.8878 5.75701C49.5452 7.00312 47.676 8.09969 46.2804 9.04673C44.8847 9.99377 43.7134 11.19 42.7663 12.6355C41.8692 14.081 41.4206 15.8255 41.4206 17.8692C42.8162 20.0125 44.9595 21.3333 47.8505 21.8318C53.0343 22.7788 55.6262 25.595 55.6262 30.2804C55.6262 33.0717 54.6542 35.3894 52.7103 37.2336C50.8162 39.0779 48.324 40 45.2336 40C42.5919 40 40.2492 39.352 38.2056 38.0561C36.162 36.7601 34.567 34.9408 33.4206 32.5981C32.324 30.2555 31.7757 27.5888 31.7757 24.5981C31.7757 20.9595 32.5732 17.3956 34.1682 13.9065C35.8131 10.3676 38.1807 7.35202 41.271 4.85981C44.3614 2.3676 47.9751 0.747663 52.1121 0C53.5078 1.14642 54.405 2.54206 54.8037 4.18692L51.8878 5.75701Z" fill="#1CC0C2"/>
</svg>
