<svg width="22" height="22" viewBox="0 0 22 22" fill="none" xmlns="http://www.w3.org/2000/svg">
<path d="M18.7 22H3.3C2.42479 22 1.58542 21.6523 0.966548 21.0335C0.347678 20.4146 0 19.5752 0 18.7V1.1C0 0.808262 0.115892 0.528472 0.322183 0.322183C0.528472 0.115892 0.808262 0 1.1 0H16.5C16.7917 0 17.0715 0.115892 17.2778 0.322183C17.4841 0.528472 17.6 0.808262 17.6 1.1V14.3H22V18.7C22 19.5752 21.6523 20.4146 21.0335 21.0335C20.4146 21.6523 19.5752 22 18.7 22ZM17.6 16.5V18.7C17.6 18.9917 17.7159 19.2715 17.9222 19.4778C18.1285 19.6841 18.4083 19.8 18.7 19.8C18.9917 19.8 19.2715 19.6841 19.4778 19.4778C19.6841 19.2715 19.8 18.9917 19.8 18.7V16.5H17.6ZM4.4 5.5V7.7H13.2V5.5H4.4ZM4.4 9.9V12.1H13.2V9.9H4.4ZM4.4 14.3V16.5H9.9V14.3H4.4Z" fill="white"/>
</svg>
