<svg width="114" height="54" viewBox="0 0 114 54" fill="none" xmlns="http://www.w3.org/2000/svg">
<path d="M28.9416 0.542049C31.5083 0.719063 34.1635 5.94095 36.7302 16.4732C39.2969 27.0055 43.0142 29.5722 46.7314 29.5722C56.4672 29.5722 54.343 8.59615 60.981 8.41913C63.9902 8.33063 65.0523 23.5538 71.6903 23.6423C78.8593 23.7308 78.0628 9.3927 82.4881 7.79959C76.2926 5.76394 77.7972 20.279 73.0179 18.4204C69.8317 17.1813 69.3006 2.93173 62.3971 2.93173C52.6614 2.93173 56.1132 25.7664 48.2361 24.7043C45.7579 24.3503 44.6073 21.1641 42.3946 12.6674C39.3854 1.33861 35.7566 -1.31659 28.9416 0.542049Z" fill="#1A2953"/>
<path d="M7.16903 40.724C7.16903 40.6355 7.25754 40.547 7.34604 40.4585C7.43455 40.37 7.52305 40.37 7.61156 40.37C7.87708 40.37 8.23111 40.37 8.49663 40.4585C8.58513 40.4585 8.67364 40.547 8.67364 40.6355C8.67364 40.8125 8.58513 40.901 8.58513 41.078L5.4874 49.9287C5.3989 50.1057 5.31039 50.2827 5.13338 50.4597C4.95637 50.5482 4.77935 50.6367 4.51383 50.6367H4.0713C3.89429 50.6367 3.62877 50.5482 3.45175 50.4597C3.27474 50.2827 3.18623 50.1057 3.09773 49.8402L0 41.078C2.11016e-07 40.901 2.11016e-07 40.724 2.11016e-07 40.6355C2.11016e-07 40.547 0.0885067 40.4585 0.177013 40.37C0.442533 40.2815 0.796559 40.2815 1.06208 40.2815C1.15058 40.2815 1.23909 40.2815 1.3276 40.37C1.4161 40.4585 1.4161 40.547 1.50461 40.724C3.09773 45.4149 4.0713 48.2471 4.33682 49.1321L7.16903 40.724Z" fill="#1A2953"/>
<path d="M10.7091 50.5482H10.001C9.82403 50.5482 9.73552 50.4598 9.73552 50.1942V43.6447C9.73552 43.3792 9.82403 43.2907 10.001 43.2907H10.7091C10.8861 43.2907 10.9746 43.3792 10.9746 43.6447V50.1942C11.0631 50.4598 10.9746 50.5482 10.7091 50.5482ZM10.4436 41.7861C9.91253 41.7861 9.64701 41.5206 9.64701 40.9895C9.64701 40.4585 9.91253 40.193 10.4436 40.193C10.9746 40.193 11.2401 40.4585 11.2401 40.9895C11.1516 41.5206 10.8861 41.7861 10.4436 41.7861Z" fill="#1A2953"/>
<path d="M14.8691 49.1321C15.0461 49.3977 15.4001 49.4862 15.6657 49.4862C15.8427 49.4862 15.9312 49.6632 15.9312 49.7517C15.9312 49.9287 15.9312 50.1057 15.8427 50.2827C15.8427 50.4597 15.6657 50.4597 15.4887 50.4597C14.7806 50.5482 14.0726 50.2827 13.63 49.6632C13.453 49.2206 13.3645 48.7781 13.3645 48.3356V39.9274C13.3645 39.7504 13.453 39.5734 13.7185 39.5734H14.4266C14.6036 39.5734 14.6921 39.6619 14.6921 39.9274V48.1586C14.6921 48.6011 14.7806 48.9551 14.8691 49.1321Z" fill="#1A2953"/>
<path d="M18.3208 50.5482H17.6128C17.4358 50.5482 17.3473 50.4597 17.3473 50.1942V44.6183C17.3473 44.2643 17.5243 43.9102 17.7898 43.7332C18.3208 43.5562 18.8519 43.3792 19.3829 43.2907C20.0025 43.2022 20.5335 43.1137 21.153 43.1137C21.5956 43.1137 22.1266 43.2022 22.5691 43.3792C22.8347 43.4677 23.1002 43.7332 23.1887 44.0873C23.2772 44.5298 23.3657 45.0608 23.3657 45.5034V50.2827C23.3657 50.4597 23.2772 50.6368 23.1002 50.6368H22.3921C22.2151 50.6368 22.1266 50.5482 22.1266 50.2827V45.7689C22.1266 45.5034 22.1266 45.1493 22.0381 44.8838C21.9496 44.7068 21.8611 44.5298 21.6841 44.5298C21.4186 44.4413 21.0645 44.3528 20.799 44.4413C20.1795 44.4413 19.5599 44.5298 19.0289 44.7068C18.9404 44.7953 18.8519 44.7953 18.7634 44.8838C18.5863 44.9723 18.5863 45.0608 18.5863 45.2379V50.2827C18.5863 50.4597 18.4978 50.5482 18.3208 50.5482Z" fill="#1A2953"/>
<path d="M26.6406 50.5482H25.9326C25.7556 50.5482 25.6671 50.4598 25.6671 50.1942V43.6447C25.6671 43.3792 25.7556 43.2907 25.9326 43.2907H26.6406C26.8176 43.2907 26.9061 43.3792 26.9061 43.6447V50.1942C26.9061 50.4598 26.8176 50.5482 26.6406 50.5482ZM26.2866 41.7861C25.7556 41.7861 25.49 41.5206 25.49 40.9895C25.49 40.4585 25.7556 40.193 26.2866 40.193C26.8176 40.193 27.0832 40.4585 27.0832 40.9895C27.0832 41.5206 26.8176 41.7861 26.2866 41.7861Z" fill="#1A2953"/>
<path d="M31.9507 47.2735C31.4196 47.185 30.8001 47.362 30.3575 47.539C30.092 47.716 30.0035 48.07 30.0035 48.3356C30.0035 48.6896 30.092 49.0436 30.3575 49.3091C30.7116 49.5747 31.1541 49.6632 31.5081 49.6632C32.0392 49.6632 32.4817 49.5747 33.0127 49.4861C33.1012 49.4861 33.1897 49.3091 33.2783 49.2206C33.3668 49.0436 33.3668 48.8666 33.3668 48.7781V47.362C32.9242 47.362 32.4817 47.2735 31.9507 47.2735ZM34.5173 49.9287C34.4288 50.1057 34.2518 50.1942 34.0748 50.2827C33.1897 50.6367 32.3047 50.8137 31.3311 50.7252C30.6231 50.8137 29.8265 50.5482 29.2955 50.1057C28.9414 49.6632 28.6759 49.0436 28.7644 48.4241C28.6759 47.716 29.0299 47.008 29.561 46.654C30.269 46.2999 31.0656 46.2114 31.8622 46.2999C32.3932 46.2999 32.8357 46.2999 33.3668 46.3884V45.7689C33.3668 45.5034 33.3668 45.1493 33.2783 44.8838C33.1012 44.5298 32.6587 44.2643 31.7737 44.2643C31.2426 44.2643 30.7116 44.3528 30.1805 44.4413L29.6495 44.5298C29.561 44.5298 29.384 44.4413 29.384 44.3528C29.2955 44.1758 29.2955 43.9987 29.2955 43.7332C29.2955 43.5562 29.384 43.4677 29.561 43.4677C30.3575 43.2022 31.1541 43.1137 31.9507 43.1137C32.7472 43.0252 33.4553 43.2022 34.0748 43.6447C34.4288 44.1758 34.6059 44.8838 34.5174 45.5034V49.3091C34.6059 49.4861 34.6059 49.7517 34.5173 49.9287Z" fill="#1A2953"/>
<path d="M36.9072 43.6447C36.9072 43.4677 36.9957 43.2907 37.1727 43.2907H37.8807C38.0578 43.2907 38.1463 43.3792 38.1463 43.6447V47.9816C38.1463 48.3356 38.1463 48.6896 38.2348 49.0436C38.4118 49.3977 38.8543 49.5747 39.5624 49.5747C40.0934 49.5747 40.6244 49.5747 41.1555 49.3977C41.244 49.3977 41.3325 49.3092 41.421 49.2206C41.5095 49.0436 41.5095 48.9551 41.5095 48.7781V43.6447C41.5095 43.4677 41.598 43.2907 41.8635 43.2907H42.5716C42.7486 43.2907 42.8371 43.3792 42.8371 43.6447V49.3977C42.8371 49.7517 42.6601 50.1057 42.3946 50.2827C41.421 50.6367 40.3589 50.8138 39.3853 50.7253C38.0578 50.7253 37.3497 50.3712 37.0842 49.7517C36.9072 49.2206 36.9072 48.6896 36.9072 48.1586L36.9072 43.6447Z" fill="#1A2953"/>
<path d="M46.3775 47.2735C45.404 47.0965 44.6959 46.2114 44.6959 45.2378C44.6959 43.8218 45.581 43.1137 47.4396 43.1137C48.0592 43.1137 48.7672 43.2022 49.3868 43.2907C49.5638 43.2907 49.6523 43.4677 49.6523 43.6447C49.6523 43.8218 49.5638 44.0873 49.4753 44.2643C49.4753 44.3528 49.3868 44.4413 49.2098 44.4413H48.9442C48.4132 44.2643 47.8822 44.2643 47.3511 44.2643C46.9971 44.2643 46.5546 44.3528 46.289 44.5298C46.112 44.7068 45.935 44.9723 46.0235 45.2378C46.0235 45.4149 46.112 45.6804 46.2005 45.7689C46.4661 45.9459 46.7316 46.1229 47.0856 46.2114L48.0592 46.4769C48.5902 46.5654 49.0327 46.831 49.4753 47.185C49.7408 47.539 49.9178 47.9815 49.9178 48.5126C49.9178 49.9287 49.0327 50.6367 47.1741 50.6367C46.3775 50.6367 45.581 50.5482 44.7844 50.2827C44.6959 50.2827 44.6074 50.1057 44.6074 50.0172C44.6074 49.8402 44.6959 49.6632 44.7844 49.3977C44.7844 49.2206 44.9614 49.1321 45.05 49.1321C45.1385 49.1321 45.3155 49.2206 45.404 49.2206C46.0235 49.3977 46.6431 49.4862 47.1741 49.4862C47.6166 49.5747 47.9707 49.3977 48.3247 49.2206C48.5017 49.0436 48.5902 48.7781 48.5902 48.5126C48.5902 48.3356 48.5017 48.1586 48.4132 47.9815C48.1477 47.8045 47.7937 47.6275 47.4396 47.539L46.3775 47.2735Z" fill="#1A2953"/>
<path d="M59.211 43.6447C59.2995 43.3792 59.3881 43.2907 59.5651 43.2907C59.8306 43.2907 60.0961 43.2907 60.3616 43.2907C60.5386 43.2907 60.6272 43.3792 60.6272 43.5562C60.6272 43.6447 60.6272 43.8217 60.5387 43.9103L58.2375 49.9287C58.149 50.1057 58.0605 50.2827 57.972 50.4597C57.7949 50.5482 57.6179 50.6367 57.4409 50.6367H57.0869C56.9099 50.6367 56.7329 50.6367 56.5558 50.4597C56.3788 50.2827 56.2903 50.1057 56.2903 49.9287L54.0777 43.9988C53.9892 43.9103 53.9892 43.7332 53.9892 43.6447C53.9892 43.4677 54.0777 43.3792 54.2547 43.3792C54.5202 43.3792 54.7857 43.2907 55.0512 43.3792C55.2283 43.3792 55.3168 43.4677 55.4053 43.7332C56.4673 46.7425 57.1754 48.6011 57.3524 49.3092C57.4409 48.5126 58.0605 46.654 59.211 43.6447Z" fill="#1A2953"/>
<path d="M64.4325 47.2735C63.9015 47.185 63.282 47.2735 62.8394 47.539C62.5739 47.716 62.4854 48.0701 62.4854 48.3356C62.4854 48.6896 62.5739 49.0436 62.8394 49.3092C63.1935 49.5747 63.636 49.6632 63.99 49.6632C64.521 49.6632 64.9636 49.5747 65.4946 49.4862C65.5831 49.4862 65.6716 49.3092 65.7601 49.2207C65.8487 49.0436 65.8487 48.8666 65.8487 48.7781V47.362C65.4061 47.2735 64.9636 47.2735 64.4325 47.2735ZM66.9992 49.9287C66.9107 50.1057 66.7337 50.1942 66.5567 50.2827C65.6716 50.6368 64.7866 50.8138 63.813 50.7253C63.1049 50.8138 62.3084 50.5482 61.7773 50.1057C61.4233 49.6632 61.1578 49.0436 61.2463 48.4241C61.1578 47.716 61.5118 47.008 62.0429 46.654C62.7509 46.2999 63.5475 46.2114 64.2555 46.2114C64.7866 46.2114 65.2291 46.2114 65.7601 46.2999V45.6804C65.7601 45.4149 65.7601 45.0608 65.6716 44.7953C65.4946 44.4413 65.0521 44.2643 64.2555 44.2643C63.7245 44.2643 63.1935 44.3528 62.6624 44.4413L62.1314 44.5298C62.0429 44.5298 61.8659 44.4413 61.8659 44.3528C61.7773 44.1758 61.7773 43.9988 61.7773 43.7332C61.7773 43.5562 61.8659 43.4677 62.0429 43.4677C62.8394 43.2022 63.636 43.1137 64.4325 43.1137C65.2291 43.0252 65.9371 43.2022 66.5567 43.6447C66.9107 44.1758 67.0877 44.8838 66.9992 45.5034V49.3092C67.0877 49.4862 67.0877 49.7517 66.9992 49.9287Z" fill="#1A2953"/>
<path d="M70.0973 50.5482H69.3893C69.2123 50.5482 69.1238 50.4597 69.1238 50.1942V44.6183C69.1238 44.2643 69.3008 43.9102 69.5663 43.7332C70.0973 43.5562 70.6284 43.3792 71.1594 43.2907C71.779 43.2022 72.31 43.1137 72.9296 43.1137C73.4606 43.1137 73.9031 43.2022 74.3457 43.3792C74.6112 43.4677 74.8767 43.7332 74.9652 44.0873C75.0537 44.5298 75.1422 45.0608 75.1422 45.5034V50.2827C75.1422 50.4597 75.0537 50.6368 74.8767 50.6368H74.1686C73.9916 50.6368 73.9031 50.5482 73.9031 50.2827V45.7689C73.9031 45.5034 73.9031 45.1493 73.8146 44.8838C73.7261 44.7068 73.6376 44.5298 73.4606 44.5298C73.1951 44.4413 72.841 44.3528 72.5755 44.4413C71.956 44.4413 71.3364 44.5298 70.8054 44.7068C70.7169 44.7953 70.6284 44.7953 70.5399 44.8838C70.4514 44.9723 70.4514 45.1493 70.4514 45.3264V50.3712C70.3629 50.4597 70.2744 50.5482 70.0973 50.5482Z" fill="#1A2953"/>
<path d="M81.7802 44.9723C81.7802 44.7068 81.6916 44.5298 81.5146 44.5298C81.1606 44.3528 80.7181 44.3528 80.2755 44.3528C79.656 44.2643 78.9479 44.4413 78.5054 44.9723C78.1514 45.5919 77.9744 46.3884 78.0629 47.0965C77.9744 47.8046 78.1514 48.4241 78.4169 49.0436C78.771 49.4862 79.302 49.7517 79.833 49.6632C80.3641 49.6632 80.8951 49.5747 81.3376 49.4862C81.4261 49.3977 81.5146 49.3092 81.6031 49.2207C81.6031 49.0436 81.6916 48.9551 81.6916 48.7781L81.7802 44.9723ZM83.0192 49.8402C82.9307 50.0172 82.7537 50.1942 82.5767 50.2827C81.6916 50.6368 80.8066 50.8138 79.9215 50.7253C79.0365 50.8138 78.2399 50.5482 77.6204 49.9287C77.0893 49.1321 76.8238 48.0701 76.9123 47.0965C76.8238 46.0344 77.0893 44.8838 77.7089 43.9988C78.4169 43.3792 79.3905 43.0252 80.3641 43.1137C80.8951 43.1137 81.4261 43.2022 81.8687 43.3792V40.1045C81.8687 39.9275 81.9572 39.839 82.1342 39.7505H82.8422C82.9307 39.7505 83.0192 39.7505 83.1077 39.839C83.1963 39.9275 83.1963 40.016 83.1963 40.1045V49.3091C83.1077 49.4862 83.1077 49.6632 83.0192 49.8402Z" fill="#1A2953"/>
<path d="M89.6569 46.2999C89.6569 46.2114 89.6569 46.1229 89.6569 45.9459C89.6569 45.5034 89.5684 45.0608 89.3029 44.6183C88.9488 44.3528 88.5063 44.1758 88.0638 44.2643C87.5327 44.1758 87.0017 44.4413 86.6477 44.7953C86.2936 45.2378 86.2051 45.7689 86.2051 46.2999L89.6569 46.2999ZM86.7362 49.1321C87.1787 49.4862 87.7982 49.6632 88.3293 49.5747C88.8603 49.5747 89.4799 49.4862 90.0109 49.3977L90.365 49.3092C90.4534 49.3092 90.5419 49.3977 90.6305 49.4862C90.719 49.6632 90.719 49.8402 90.8075 50.0172C90.8075 50.1942 90.719 50.2827 90.5419 50.2827C89.8339 50.5482 89.0373 50.7253 88.1523 50.6367C87.1787 50.7253 86.2936 50.3712 85.5856 49.7517C84.966 48.8666 84.7005 47.8931 84.789 46.831C84.7005 45.7689 84.966 44.7068 85.5856 43.9103C86.2936 43.2907 87.1787 42.9367 88.0638 43.0252C88.5063 43.0252 88.9488 43.1137 89.3029 43.2022C89.5684 43.2907 89.9224 43.4677 90.0994 43.6447C90.2764 43.9103 90.4535 44.1758 90.542 44.4413C90.6305 44.7953 90.719 45.0608 90.719 45.4149C90.719 45.7689 90.719 46.1229 90.719 46.654C90.719 46.831 90.719 47.008 90.6305 47.0965C90.542 47.185 90.4535 47.185 90.365 47.185H86.0281C86.1166 47.893 86.2936 48.6011 86.7362 49.1321Z" fill="#1A2953"/>
<path d="M93.7286 50.5482H93.0206C92.8436 50.5482 92.7551 50.4597 92.7551 50.1942V44.6183C92.7551 44.2643 92.9321 43.9102 93.1976 43.7332C93.7286 43.5562 94.2597 43.3792 94.7907 43.2907C95.4102 43.2022 95.9413 43.1137 96.5608 43.1137C97.0034 43.1137 97.5344 43.1137 97.9769 43.2907C98.2425 43.3792 98.508 43.6447 98.5965 43.9987C98.685 44.4413 98.7735 44.9723 98.7735 45.4149V50.1942C98.7735 50.3712 98.685 50.5482 98.508 50.5482H97.7999C97.6229 50.5482 97.5344 50.4597 97.5344 50.1942V45.7689C97.5344 45.5034 97.5344 45.1493 97.4459 44.8838C97.3574 44.7068 97.2689 44.5298 97.0919 44.5298C96.8263 44.4413 96.4723 44.3528 96.2068 44.4413C95.5873 44.4413 94.9677 44.5298 94.4367 44.7068C94.3482 44.7953 94.2597 44.7953 94.1711 44.8838C94.0826 44.9723 94.0826 45.1493 94.0826 45.3264V50.3712C93.9942 50.4597 93.9056 50.5482 93.7286 50.5482Z" fill="#1A2953"/>
<path d="M100.721 43.6447C100.721 43.4677 100.809 43.2907 100.986 43.2907H101.694C101.871 43.2907 101.96 43.3792 101.96 43.6447V48.1586C101.96 48.4241 101.96 48.7781 102.048 49.0436C102.137 49.3977 102.579 49.5747 103.287 49.5747C103.907 49.5747 104.438 49.4862 104.969 49.3092C105.057 49.3092 105.146 49.2206 105.234 49.1321C105.323 49.0436 105.323 48.8666 105.323 48.6896V43.7332C105.323 43.5562 105.411 43.3792 105.677 43.3792H106.385C106.562 43.3792 106.651 43.4677 106.651 43.7332V50.2827C106.651 50.9023 106.562 51.4333 106.474 52.0528C106.297 52.7609 105.765 53.2919 105.057 53.5575C104.084 53.9115 103.022 54 101.96 54C101.694 54 101.606 53.9115 101.517 53.7345C101.517 53.5575 101.517 53.3805 101.517 53.2034C101.517 53.1149 101.517 53.0264 101.606 52.9379C101.694 52.8494 101.783 52.8494 101.871 52.8494C102.668 52.8494 103.553 52.7609 104.349 52.5839C104.703 52.4954 105.057 52.2299 105.234 51.8758C105.323 51.5218 105.411 51.1678 105.411 50.7253V50.3712C104.615 50.7253 103.818 50.9023 102.933 50.9023C101.783 50.9023 101.075 50.6368 100.898 50.0172C100.721 49.5747 100.721 49.0436 100.721 48.6011L100.721 43.6447Z" fill="#1A2953"/>
<path d="M110.279 47.2735C109.306 47.0965 108.597 46.2114 108.597 45.2378C108.597 43.8218 109.483 43.1137 111.341 43.1137C112.049 43.1137 112.669 43.2022 113.377 43.3792C113.554 43.3792 113.642 43.5562 113.642 43.7332C113.642 43.9103 113.554 44.1758 113.465 44.3528C113.465 44.4413 113.377 44.5298 113.2 44.5298H112.934C112.403 44.4413 111.872 44.3528 111.341 44.3528C110.987 44.3528 110.545 44.4413 110.279 44.6183C110.102 44.7953 109.925 45.0608 110.014 45.3263C110.014 45.5034 110.102 45.7689 110.191 45.8574C110.456 46.0344 110.722 46.2114 111.076 46.2999L112.049 46.5654C112.58 46.6539 113.023 46.9195 113.465 47.2735C113.731 47.6275 113.908 48.0701 113.908 48.6011C113.908 50.0172 113.023 50.7252 111.164 50.7252C110.368 50.7252 109.571 50.6367 108.774 50.3712C108.686 50.3712 108.597 50.1942 108.597 50.1057C108.597 49.9287 108.686 49.7517 108.774 49.4862C108.774 49.3091 108.951 49.2206 109.04 49.2206C109.129 49.2206 109.306 49.3091 109.394 49.3091C110.014 49.4862 110.633 49.5747 111.253 49.5747C111.695 49.6632 112.049 49.4862 112.403 49.3091C112.58 49.1321 112.669 48.8666 112.669 48.6011C112.669 48.4241 112.58 48.2471 112.492 48.0701C112.226 47.893 111.872 47.716 111.518 47.6275L110.279 47.2735Z" fill="#1A2953"/>
</svg>
