<svg width="71" height="48" viewBox="0 0 71 48" fill="none" xmlns="http://www.w3.org/2000/svg">
<path fill-rule="evenodd" clip-rule="evenodd" d="M19.0606 3.7668C30.0168 -1.23603 40.9729 -1.27514 51.9291 3.7668C55.6057 12.9663 55.6021 22.1658 51.9291 31.3652C40.9729 36.6052 30.0167 36.2579 19.0606 31.3652C15.3874 22.1658 15.4119 12.9663 19.0606 3.7668ZM50.8329 4.83438C40.5955 0.276603 30.3994 0.310467 20.1579 4.8357C16.923 13.3311 16.901 21.7964 20.1539 30.2894C30.4127 34.7305 40.6052 35.0341 50.8284 30.3087C54.0904 21.8073 54.0949 13.3354 50.8329 4.83438ZM32.2196 4.75942C35.1147 5.41789 34.7234 9.31967 34.0299 10.3405C34.9058 10.1963 35.8411 10.0842 36.8542 10.0142C36.3434 10.6266 35.6543 11.1386 34.8937 11.6103C34.4819 11.549 34.0702 11.4876 33.6584 11.4263C32.3442 15.8443 32.0963 17.8639 36.698 17.5555C39.4783 17.4939 41.303 17.6771 42.5368 18.2072C43.0431 17.0148 42.5935 15.6814 41.5384 14.2589C43.327 15.3332 44.3918 16.6044 44.6273 18.1009C44.0924 18.2899 43.6161 18.4825 43.3812 18.6894C44.301 19.3809 44.758 20.4204 45.0792 21.9007C45.3671 23.7254 46.4795 24.6223 48.0882 25.2403C48.4699 25.3779 48.7778 25.6466 49.0486 25.9813L50.3995 28.1653C52.8772 20.6632 52.7314 13.1966 49.9534 5.68952C40.2935 1.51245 30.7018 1.54384 21.0383 5.69189C18.1272 13.6194 18.1062 21.5022 21.0315 29.4284C30.7099 33.5053 40.2965 33.7899 49.9458 29.462C49.2606 28.3139 48.4865 27.3201 47.6071 26.5098C43.6418 25.165 41.3682 24.6775 39.6182 22.3617C36.1306 22.1405 32.734 23.4047 29.1521 21.8822C27.8748 21.4115 26.5174 21.0763 24.9904 21.0279C26.0265 23.0625 27.3354 24.1685 28.8429 24.5987C29.3617 24.646 29.7225 25.6236 30.0987 26.51C27.1303 25.2619 24.7669 23.0514 22.9849 20.9475C22.9479 20.6685 22.9109 20.3894 22.8739 20.1104C24.6179 19.595 26.5052 19.2418 28.6097 19.1345C28.7478 17.2467 29.2759 15.5904 30.0519 14.0544C30.2467 13.6962 30.2218 13.5252 29.8732 13.4524C29.0781 13.3227 28.283 13.1928 27.4879 13.0631C27.4079 12.7881 27.328 12.5132 27.2481 12.2383C28.8936 11.6443 30.5632 11.0632 32.512 10.6329C33.8545 8.05697 28.5833 9.25128 25.8754 10.2797C26.6581 9.65171 27.4744 9.1384 28.3294 8.75737C28.0832 8.00921 27.386 7.64953 26.6242 7.34541C27.8655 7.2566 28.7539 7.58022 29.2005 8.42009C29.7571 8.23662 30.3299 8.10825 30.9202 8.03955C30.6154 7.17904 29.7865 5.96859 29.0579 5.67774C30.3248 5.58708 31.5655 6.87849 32.0335 7.98157C32.3973 7.98549 32.7675 8.01142 33.1445 8.06032C33.7032 7.30484 32.9491 5.05062 32.2196 4.75942Z" fill="#182751"/>
<path fill-rule="evenodd" clip-rule="evenodd" d="M37.996 46.4178H35.389V40.8448C37.1717 40.8448 39.5953 40.5387 40.4273 42.318C40.9337 43.4009 40.7584 44.8267 39.9801 45.6167C39.5635 46.0394 38.8032 46.4178 37.996 46.4178ZM33.8359 47.8815H37.3859C38.8436 47.8815 39.9454 47.54 40.7942 46.8932C42.9357 45.2613 42.756 41.3089 40.2707 40.0563C39.4385 39.6369 38.6392 39.4375 37.6078 39.4375H33.8359V47.8815Z" fill="#182751"/>
<path fill-rule="evenodd" clip-rule="evenodd" d="M61.8476 43.9972H58.9632V42.5336H61.8476C62.8524 42.5336 62.8134 43.9972 61.8476 43.9972ZM57.2992 47.7126C57.2992 48.01 57.9273 47.8815 58.7414 47.8815C58.8692 47.8815 58.9078 47.8422 58.9078 47.7126V45.4046C61.0219 45.4046 60.5061 45.2449 61.0839 45.9545L62.0458 47.23C62.2121 47.4559 62.3937 47.6523 62.5132 47.8815H64.3437C64.3254 47.6577 64.2978 47.6974 64.1789 47.542L62.7353 45.6295C62.6239 45.4846 62.5612 45.4741 62.5132 45.2919C62.9785 45.0654 63.0154 45.2143 63.5545 44.6599C64.5795 43.6061 64.1215 41.1263 61.9031 41.1263H57.2992V47.7126Z" fill="#182751"/>
<path fill-rule="evenodd" clip-rule="evenodd" d="M23.8516 47.8815H25.4047V43.3217L27.6659 45.8681C27.797 46.001 27.8053 46.0409 27.9172 46.176C28.0152 46.2943 28.0929 46.3472 28.1864 46.4657C28.3681 46.6962 29.3474 47.8815 29.5094 47.8815H30.9516V41.1263H29.3984V45.6297L27.425 43.4105C27.2259 43.1488 25.5148 41.3338 25.4601 41.1263H23.8516V47.8815Z" fill="#182751"/>
<path fill-rule="evenodd" clip-rule="evenodd" d="M11.0938 46.5867H10.3727C9.28902 46.5867 8.32032 45.8161 8.32032 44.729C8.32032 44.0208 8.36186 43.3174 8.98474 42.8701C10.2787 41.9408 13.0906 42.1107 13.0906 44.5038C13.0906 45.1306 12.8809 45.6645 12.552 45.9837C12.2416 46.285 11.6741 46.5867 11.0938 46.5867ZM10.2617 47.994C11.6086 47.994 12.4823 47.9711 13.5431 47.1022C15.2651 45.6918 15.4748 40.9574 10.5945 40.9574C9.09828 40.9574 7.65598 41.5986 7.09979 42.8148C6.2908 44.5841 6.86281 46.8968 8.75512 47.6653C9.16258 47.8308 9.68011 47.994 10.2617 47.994Z" fill="#182751"/>
<path fill-rule="evenodd" clip-rule="evenodd" d="M43.0437 47.8815H49.0343C49.3237 47.8815 49.2007 47.2854 49.2007 46.4741H44.5968V45.1794H48.1468V43.772H44.5968V42.5336H49.0343C49.3237 42.5336 49.2007 41.9376 49.2007 41.1263H43.0437V47.8815Z" fill="#182751"/>
<path fill-rule="evenodd" clip-rule="evenodd" d="M50.1993 47.8815H56.3008V46.4741H51.7524V45.1794H55.3024V43.772H51.7524V42.5336H56.3008V41.1263H50.1993V47.8815Z" fill="#182751"/>
<path fill-rule="evenodd" clip-rule="evenodd" d="M65.0648 47.8815H71V46.4741H66.618V45.1794H70.1679V43.772H66.618V42.5336H71V41.1263H65.0648V47.8815Z" fill="#182751"/>
<path fill-rule="evenodd" clip-rule="evenodd" d="M15.5313 47.8815H17.0844V45.1794H21.0782V47.8815H22.6313V41.1263H21.0782V43.772H17.0844V41.1263H15.5313V47.8815Z" fill="#182751"/>
<path fill-rule="evenodd" clip-rule="evenodd" d="M4.27111 44.8979C4.27111 46.6155 2.80369 46.5304 1.55314 46.5304C0.984343 46.5304 0.468687 46.3597 0 46.2489V47.8252C0.49228 47.8667 0.811719 47.994 1.55314 47.994C2.5486 47.994 3.17227 48.0646 4.11247 47.7205C5.52231 47.2045 5.87968 45.9543 5.87968 44.335V39.4375H4.27111V44.8979Z" fill="#182751"/>
</svg>
