<svg width="105" height="16" viewBox="0 0 105 16" fill="none" xmlns="http://www.w3.org/2000/svg">
<path d="M6.9267 11.2094C7.07028 11.5701 7.02476 12.0324 6.95472 12.3125C6.83215 12.8098 6.49597 13.3176 5.50144 13.3176C4.56994 13.3176 4.00264 12.7783 4.00264 11.9658V10.5196H0V11.6682C0 14.995 2.6159 16 5.4209 16C8.11734 16 10.3375 15.0825 10.6912 12.5927C10.8733 11.304 10.7402 10.46 10.6772 10.1484C10.0469 7.02471 4.38785 6.09321 3.96412 4.34578C3.90528 4.08809 3.90051 3.82099 3.95011 3.56136C4.05517 3.08161 4.38084 2.55983 5.31234 2.55983C6.18781 2.55983 6.69558 3.09912 6.69558 3.91155V4.83604H10.4181V3.78548C10.4181 0.535749 7.50101 0.0279786 5.39288 0.0279786C2.73846 0.0279786 0.570805 0.906947 0.175094 3.34075C0.0700376 4.0061 0.0525282 4.60142 0.210112 5.35082C0.857959 8.39744 6.15629 9.27992 6.9267 11.2094Z" fill="white"/>
<path d="M15.9686 0.504259L13.2022 15.4187H17.2328L19.2744 1.88399H19.3585L21.344 15.4187H25.3537L22.6047 0.500758L15.9686 0.504259ZM38.5032 0.504259L36.6647 11.9063H36.5772L34.7422 0.50426H28.6594L28.3303 15.4187H32.0633L32.1543 2.01006H32.2383L34.7282 15.4187H38.5137L41.007 2.01357H41.0876L41.1821 15.4187H44.9116L44.5825 0.500758L38.5032 0.504259Z" fill="white"/>
<path d="M55.417 11.1815C55.5606 11.5422 55.5151 12.0044 55.4451 12.2846C55.3225 12.7818 54.9863 13.2896 53.9918 13.2896C53.0603 13.2896 52.493 12.7503 52.493 11.9379V10.4916H48.4903V11.6402C48.4903 14.967 51.1062 15.972 53.9112 15.972C56.6077 15.972 58.8279 15.0545 59.1816 12.5647C59.3637 11.276 59.2306 10.4321 59.1675 10.1204C58.5372 6.99673 52.8782 6.06524 52.4545 4.3178C52.3956 4.06011 52.3909 3.79302 52.4405 3.53338C52.5455 3.05363 52.8712 2.53185 53.8027 2.53185C54.6781 2.53185 55.1859 3.07114 55.1859 3.88357V4.80807H58.9084V3.7575C58.9084 0.507771 55.9913 0 53.8832 0C51.2288 0 49.0611 0.878969 48.6654 3.31277C48.5604 3.97812 48.5429 4.57344 48.7005 5.32284C49.3483 8.36947 54.6466 9.25194 55.417 11.1815Z" fill="white"/>
<path d="M67.9361 13.1846C68.9727 13.1846 69.2914 12.4702 69.3649 12.1061C69.3964 11.945 69.3999 11.7278 69.3999 11.5352V0.504362H73.1749V11.1956C73.1756 11.5227 73.1639 11.8498 73.1399 12.1761C72.8773 14.9601 70.6781 15.8636 67.9361 15.8636C65.1906 15.8636 62.9914 14.9601 62.7288 12.1761C62.7183 12.029 62.6903 11.4687 62.6938 11.1956V0.50086H66.4688V11.5317C66.4653 11.7278 66.4723 11.945 66.5039 12.1061C66.5739 12.4702 66.896 13.1846 67.9361 13.1846ZM86.1739 0.504362L86.377 12.2111H86.2964L82.8646 0.504362H77.3316V15.2612H80.9981L80.795 3.14827H80.8755L84.556 15.2612H89.8683V0.504362L86.1739 0.504362ZM99.0432 13.0305C100.122 13.0305 100.5 12.3477 100.567 11.945C100.598 11.7804 100.602 11.5703 100.602 11.3847V9.21351H99.0713V7.04235H104.356V11.0415C104.356 11.3216 104.349 11.5247 104.303 12.022C104.058 14.7395 101.701 15.7095 99.0572 15.7095C96.4133 15.7095 94.0601 14.7395 93.8114 12.022C93.7694 11.5247 93.7589 11.3216 93.7589 11.0415V4.76614C93.7589 4.49999 93.7939 4.03074 93.8219 3.78561C94.1546 0.994624 96.4133 0.0981447 99.0572 0.0981447C101.701 0.0981447 104.019 0.987619 104.293 3.78211C104.342 4.25836 104.328 4.76263 104.328 4.76263V5.2634H100.567V4.42645C100.567 4.42645 100.567 4.07627 100.521 3.85915C100.451 3.52998 100.171 2.77357 99.0292 2.77357C97.9437 2.77357 97.625 3.49146 97.5444 3.85915C97.4989 4.05526 97.4814 4.3214 97.4814 4.56303V11.3812C97.4814 11.5703 97.4884 11.7804 97.5164 11.9485C97.5865 12.3477 97.9647 13.0305 99.0432 13.0305Z" fill="white"/>
</svg>
