<svg width="118" height="28" viewBox="0 0 118 28" fill="none" xmlns="http://www.w3.org/2000/svg">
<path d="M12.4301 0C12.3079 0 12.1853 0.00506996 12.0604 0.0156708C11.5488 0.0594568 11.0639 0.19358 10.6067 0.424955C10.4233 0.518519 10.2477 0.627753 10.0684 0.731457C9.68999 0.950387 9.31066 1.1707 8.9318 1.38963C6.67613 2.69814 4.42138 4.00803 2.16386 5.3124C1.72001 5.56866 1.32409 5.877 0.98072 6.25633C0.339139 6.9652 0.00129578 7.79253 0.000834879 8.75121C-0.000547837 12.2518 -8.69321e-05 15.7524 0.00129578 19.2529C0.00129578 19.3852 0.00913117 19.5184 0.0224974 19.6502C0.0768843 20.1927 0.247419 20.6988 0.538251 21.1592C0.912045 21.751 1.39738 22.2336 2.00209 22.5908C2.40446 22.8286 2.81005 23.0609 3.21427 23.2955C5.15514 24.4206 7.09601 25.5457 9.03688 26.6707C9.42865 26.898 9.82503 27.1174 10.2099 27.3552C10.8902 27.7769 11.6221 28 12.4236 28C12.4365 28 12.449 28 12.4614 27.9995C13.0007 27.9949 13.516 27.888 14.0124 27.682C14.2534 27.5815 14.4769 27.4469 14.7019 27.3151C15.4495 26.8777 16.1994 26.4454 16.9483 26.0112C18.8763 24.893 20.8024 23.7721 22.7331 22.6581C23.1858 22.3968 23.5821 22.0709 23.9241 21.6778C24.5293 20.9818 24.8441 20.1757 24.8436 19.2493C24.8423 17.5015 24.8432 15.7537 24.8432 14.006C24.8432 12.2435 24.8432 10.481 24.8432 8.71849C24.8436 8.57054 24.8349 8.42351 24.816 8.27694C24.7413 7.69988 24.5431 7.16938 24.2108 6.69327C23.831 6.1494 23.3577 5.70463 22.7806 5.37093C20.4646 4.03016 18.1494 2.68708 15.8343 1.34446C15.4255 1.10709 15.0139 0.876181 14.6111 0.629597C13.9326 0.213399 13.2076 0 12.4301 0ZM4.03744 10.1911C3.28617 10.1869 2.70036 9.50156 2.80867 8.73969C2.86444 8.34838 3.06586 8.04095 3.40508 7.83355C3.67794 7.66762 3.95679 7.51091 4.23379 7.35052C6.30971 6.14663 8.38655 4.94229 10.4629 3.73886C10.9012 3.48491 11.3391 3.23049 11.7774 2.97607C11.9798 2.859 12.195 2.79585 12.4273 2.79585C12.4499 2.79585 12.4739 2.79631 12.4969 2.7977C13.0675 2.82812 13.5588 3.248 13.675 3.80708C13.7861 4.34081 13.5528 4.88007 13.0804 5.16076C12.6877 5.3949 12.2895 5.62074 11.894 5.85027C9.61809 7.1703 7.34167 8.48988 5.06572 9.81037C4.94174 9.88181 4.8196 9.95463 4.69562 10.0247C4.50342 10.133 4.29647 10.1911 4.03744 10.1911ZM17.5355 8.48895L17.4862 8.47743C16.711 8.02989 15.9371 7.58143 15.1526 7.12744L15.2084 7.05784C15.5062 6.77485 15.7629 6.45913 15.9666 6.101C16.1574 5.76593 16.3003 5.41057 16.3925 5.03585L16.4261 4.92293C17.1534 5.34558 17.8641 5.75532 18.5832 6.17475C18.3827 6.3946 18.2024 6.61445 18.0554 6.86012C17.9061 7.10993 17.7858 7.37356 17.6982 7.65195C17.6111 7.92296 17.5632 8.20227 17.5355 8.48895ZM20.3461 15.0191L20.3309 14.9398L20.33 14.8508C20.33 12.8477 20.3304 10.8442 20.3295 8.84016C20.3295 8.66548 20.3563 8.49817 20.4411 8.34285C20.5936 8.06538 20.8798 7.89669 21.1914 7.89669C21.244 7.89669 21.2979 7.90176 21.3527 7.9119C21.7099 7.97827 21.9833 8.2668 22.0386 8.61709L22.0556 8.8374C22.0561 10.905 22.0561 12.9722 22.0561 15.0403L22.051 15.1965C21.3606 15.0403 21.2596 15.0135 20.8937 15.0135C20.76 15.0135 20.5913 15.0172 20.3461 15.0191ZM12.4167 19.211L12.4033 19.2059L12.2738 19.1349C10.6358 18.1846 8.99817 17.2342 7.35965 16.2833L7.32646 16.2566C7.31218 16.1432 7.30941 11.9098 7.32278 11.7535L7.33015 11.7406L7.33983 11.73C8.99955 10.7672 10.6579 9.80438 12.3176 8.84109L12.3955 8.79822L12.4236 8.79177C12.5596 8.85123 17.4383 11.684 17.5309 11.7577V16.2515L17.4129 16.3276C16.5197 16.8461 15.6255 17.3641 14.7318 17.8822C14.0211 18.2943 13.3109 18.7063 12.6001 19.1184L12.4434 19.2078L12.4167 19.211ZM3.65213 20.107C3.2198 20.107 2.83725 19.7632 2.80083 19.3262L2.79484 19.1492C2.79484 17.0964 2.79484 15.0435 2.7953 12.9906L2.81466 12.8067C2.95155 12.8399 3.08844 12.8772 3.22717 12.904C3.36683 12.9316 3.50786 12.9556 3.64936 12.9699C3.79132 12.9842 3.9342 12.9888 4.07662 12.9902C4.09414 12.9902 4.11165 12.9906 4.12916 12.9906C4.25361 12.9906 4.37805 12.9851 4.51125 12.9823L4.51494 13.1644C4.5154 14.7693 4.5154 16.3741 4.5154 17.9785C4.5154 18.3975 4.51909 18.8155 4.51402 19.234C4.50941 19.5576 4.36976 19.8157 4.09045 19.9826C3.94618 20.0687 3.79639 20.107 3.65213 20.107ZM16.4284 23.0665C16.3616 22.8595 16.3026 22.6576 16.2316 22.4599C16.1597 22.2562 16.0602 22.0631 15.9523 21.8755C15.8463 21.692 15.7297 21.5151 15.5905 21.3551C15.4522 21.1957 15.3061 21.0431 15.1614 20.885L15.2877 20.7965C16.0486 20.354 16.8101 19.913 17.571 19.4714C18.4089 18.9856 19.2469 18.5003 20.0843 18.0136C20.2341 17.9274 20.3894 17.8569 20.5627 17.8287C20.6406 17.8163 20.7167 17.8098 20.7909 17.8098C21.1191 17.8098 21.409 17.9329 21.6606 18.1698C21.9201 18.4146 22.0556 18.7261 22.051 19.0796C22.0455 19.5433 21.8454 19.9157 21.4458 20.1637C21.1661 20.337 20.8775 20.4969 20.5922 20.6624C19.2745 21.427 17.9559 22.1912 16.6368 22.9549L16.4284 23.0665ZM12.4232 25.206C12.1969 25.206 11.9793 25.1424 11.7691 25.0198C10.9782 24.5593 10.1855 24.1017 9.39409 23.6426C8.39807 23.0655 7.40297 22.4876 6.40696 21.9101L6.26454 21.822C6.88676 21.168 7.2329 20.408 7.30711 19.5332L7.40666 19.5484C7.68781 19.7106 7.96897 19.8738 8.24966 20.0365C9.81996 20.9472 11.3903 21.8584 12.961 22.7687L13.0882 22.8429C13.5187 23.1213 13.7312 23.5191 13.6976 24.0275C13.6616 24.5746 13.2837 25.0166 12.7638 25.159C12.6476 25.1908 12.5342 25.206 12.4232 25.206Z" fill="white"/>
<path d="M42.2977 7.40352H39.3632L34.0955 20.4702H37.3757L38.1961 18.2353H43.4454L44.2838 20.4702H47.5465L42.2977 7.40352ZM39.2166 15.4841L40.8205 11.1668L42.424 15.4841H39.2166Z" fill="white"/>
<path d="M52.6165 7.47957H49.5367V20.4702H58.7405V17.6236H52.6165V7.47957Z" fill="white"/>
<path d="M83.6451 11.2046L82.0416 15.5219H85.2495L83.6451 11.2046ZM81.0212 18.2731L80.2008 20.508H76.9196L82.1877 7.44132H85.1218L90.3716 20.508H87.1093L86.2709 18.2731H81.0212Z" fill="white"/>
<path d="M97.8166 13.8032C99.0006 13.8032 99.9487 13.1151 99.9487 12.0453C99.9487 10.9949 99.0006 10.3261 97.8166 10.3261H95.5378V13.8032H97.8166ZM95.5374 16.7064V20.4697H92.4576V7.47911H97.8898C100.952 7.47911 103.01 9.237 103.01 12.0453C103.01 13.8603 102.118 15.2928 100.641 16.0764L103.831 20.4697H100.112L97.452 16.7064H95.5374Z" fill="white"/>
<path d="M108.719 17.8338V20.4697H105.639V7.47911H108.719V13.3824L113.659 7.47911H117.304L112.584 13.1731L117.706 20.4697H113.95L110.487 15.6943L108.719 17.8338Z" fill="white"/>
<path d="M69.6976 7.62015L71.3127 13.729C71.3883 14.0041 71.4583 14.2908 71.5233 14.5895C71.5878 14.8877 71.6546 15.2297 71.7252 15.6164C71.8132 15.1601 71.8879 14.784 71.9492 14.4881C72.0105 14.1927 72.0704 13.9396 72.1289 13.729L73.6384 7.62015H77.1758L73.5421 20.4702H70.2945L68.7058 14.9845C68.6472 14.7909 68.5505 14.4139 68.4163 13.852C68.3578 13.5999 68.3108 13.4045 68.2753 13.2639C68.2463 13.3865 68.2052 13.5594 68.1522 13.782C68.0176 14.3494 67.9153 14.7504 67.8453 14.9845L66.2823 20.4702H63.026L59.4019 7.62015H62.9389L64.4134 13.764C64.4834 14.0802 64.5526 14.3964 64.6194 14.7121C64.6867 15.0283 64.7498 15.3528 64.8084 15.6865C64.8609 15.4408 64.9176 15.1831 64.9794 14.914C65.0407 14.6448 65.1328 14.2618 65.2559 13.764L66.8709 7.62015H69.6976Z" fill="white"/>
</svg>
